<?xml version="1.0" encoding="UTF-8"?>
<svg id="Layer_2" xmlns="http://www.w3.org/2000/svg" version="1.1" xmlns:xlink="http://www.w3.org/1999/xlink" viewBox="0 0 68.1 65.2">
  <!-- Generator: Adobe Illustrator 29.7.1, SVG Export Plug-In . SVG Version: 2.1.1 Build 8)  -->
  <defs>
    <style>
      .st0 {
        stroke: #231f20;
        stroke-linecap: round;
        stroke-linejoin: round;
        stroke-width: 1.8px;
      }

      .st0, .st1 {
        fill: none;
      }

      .st2 {
        clip-path: url(#clippath-1);
      }

      .st3 {
        fill: #f914a5;
      }

      .st4 {
        fill: #231f20;
      }

      .st5 {
        fill: #fef818;
      }

      .st6 {
        fill: #fe0d0d;
      }

      .st7 {
        fill: #4b58ff;
      }

      .st8 {
        clip-path: url(#clippath);
      }
    </style>
    <clipPath id="clippath">
      <rect class="st1" width="68.1" height="65.2"/>
    </clipPath>
    <clipPath id="clippath-1">
      <rect class="st1" width="68.1" height="65.2"/>
    </clipPath>
  </defs>
  <g id="Replace_with_delete_layer_">
    <g id="logo_mark">
      <g class="st8">
        <g class="st2">
          <g>
            <path class="st7" d="M9,47.7c0-.2-1,0-2,1.1-1,.9-2,1-2,1.1-.5-.6-.9-1.5-1.3-2.6-.4-.3-.8-1.7-1.1-2.8-.3-1.5-.6-.6-.8-2.6-.2-2.5-.4-4.4-.5-3.1-.1,1.8-.2-1.9-.3-2.9,0-3.7,0-4.5,0-3,0-2.2.1.4.2-2.8.1-1.4.3-1.1.5-2.9.2-2.1.4-.8.7-3,.3-.4.6-1.6.9-2.4.3-.6.7-2.2,1.1-2.3.4-1,.9-2.8,1.3-2.6.5-.5,1-2.4,1.5-2.3.5-.7,1.1-1.4,1.7-2.1,1.6-1.8,3.4-2.7,5.3-5,2-2.3,4.1-2.4,6.3-3.7,2.2-.9,4.6-1.6,7-2.3,2.5-.6,5,.6,7.6-.6,2.6.3,5.1.9,7.5,1.1,2.4,1.1,4.7,2.4,6.9,2.8,2.2.4,4.2,2.5,6,4.1.9.8,1.8,1.6,2.6,2.5.8.2,1.6,1.5,2.3,2.8.7.9,1.4,2.1,2,3,.6,1.5,1.2,1.5,1.7,3.3.5,1.5.9.5,1.3,3.4.4,3.4.7,3.9.9,3.6.2-.1.4.7.5,3.7,0,1,.1,2.8,0,3.9,0,1,0,.5-.2,2.4,0,1-.2,2.1-.3,2.4-.1.3-.3-.5-.5,2.3-.2.6-.4.5-.7,2.4-.2,1.8-.5.6-.8,2.2-.3.7-.6,1.5-1,2.3,0,.2-1-1-2.1-1-1-.2-2.1-.8-2.1-1-1.1-.4-2.3-1-3.5-1.7-1.2.7-2.3-2.9-3.5-1.2-1.2.4-2.4-2-3.6-1.1-1.2-1.8-2.4-.7-3.6-.8-1.2,0-2.5,0-3.7-.1s-2.5-.4-3.7-.8c-2.5-.1-5-.5-7.4.1-1.2,0-2.5-.2-3.7.4-1.2.6-2.5,0-3.7.7-.4-1.3-.8-1.4-1.2-1.5-.4,0-.8,1.2-1.2,2.7-.8,1.6-1.6-1.3-2.4,0-.8.9-1.6-.7-2.4,1-.8.9-1.6,1.9-2.3.7-.8.5-1.5,1.6-2.3,1.4-.8.2-1.5.4-2.3.8"/>
            <path class="st0" d="M9,47.7c0-.2-1,0-2,1.1-1,.9-2,1-2,1.1-.5-.6-.9-1.5-1.3-2.6-.4-.3-.8-1.7-1.1-2.8-.3-1.5-.6-.6-.8-2.6-.2-2.5-.4-4.4-.5-3.1-.1,1.8-.2-1.9-.3-2.9,0-3.7,0-4.5,0-3,0-2.2.1.4.2-2.8.1-1.4.3-1.1.5-2.9.2-2.1.4-.8.7-3,.3-.4.6-1.6.9-2.4.3-.6.7-2.2,1.1-2.3.4-1,.9-2.8,1.3-2.6.5-.5,1-2.4,1.5-2.3.5-.7,1.1-1.4,1.7-2.1,1.6-1.8,3.4-2.7,5.3-5,2-2.3,4.1-2.4,6.3-3.7,2.2-.9,4.6-1.6,7-2.3,2.5-.6,5,.6,7.6-.6,2.6.3,5.1.9,7.5,1.1,2.4,1.1,4.7,2.4,6.9,2.8,2.2.4,4.2,2.5,6,4.1.9.8,1.8,1.6,2.6,2.5.8.2,1.6,1.5,2.3,2.8.7.9,1.4,2.1,2,3,.6,1.5,1.2,1.5,1.7,3.3.5,1.5.9.5,1.3,3.4.4,3.4.7,3.9.9,3.6.2-.1.4.7.5,3.7,0,1,.1,2.8,0,3.9,0,1,0,.5-.2,2.4,0,1-.2,2.1-.3,2.4-.1.3-.3-.5-.5,2.3-.2.6-.4.5-.7,2.4-.2,1.8-.5.6-.8,2.2-.3.7-.6,1.5-1,2.3,0,.2-1-1-2.1-1-1-.2-2.1-.8-2.1-1-1.1-.4-2.3-1-3.5-1.7-1.2.7-2.3-2.9-3.5-1.2-1.2.4-2.4-2-3.6-1.1-1.2-1.8-2.4-.7-3.6-.8-1.2,0-2.5,0-3.7-.1s-2.5-.4-3.7-.8c-2.5-.1-5-.5-7.4.1-1.2,0-2.5-.2-3.7.4-1.2.6-2.5,0-3.7.7-.4-1.3-.8-1.4-1.2-1.5-.4,0-.8,1.2-1.2,2.7-.8,1.6-1.6-1.3-2.4,0-.8.9-1.6-.7-2.4,1-.8.9-1.6,1.9-2.3.7-.8.5-1.5,1.6-2.3,1.4-.8.2-1.5.4-2.3.8h0Z"/>
            <path class="st3" d="M14.6,64.3c-1.7,0-3.2-.5-4.3-1.3-1.5-.9-2.1-2.1-2-4.2,0-3.2.4-5.3,4.7-6.3.5-.1,1-.2,1.5-.2,1.3,0,2.6.4,3.9,1.1.1,0,.3.2.4.4.4.6.7,1.2,1,1.6.7,1,1.2,1.8,1.3,2.9,0,1-.3,2-1,3.3-.4.6-.9,1.4-2,2.1,0,0-.1,0-.2.1-1,.4-2.1.6-3.2.6M29.4,62.9c-.1,0-.2,0-.4,0-1.5-.6-3.8-2.5-3.9-4.8-.1-.9,0-3.1,3.7-4.2,0,0,.2,0,.2,0h.5c.4,0,.6,0,.8,0,.1,0,.2,0,.3,0,.2,0,.5,0,1.3-.3.1,0,.2,0,.3,0,.2,0,.4,0,.5.2l.3.2c.5,0,.9,0,1.4,0,1.8,0,3.6,0,5.3-.5,0,0,.1,0,.2,0h0c.7,0,1.4,0,2.2,0s1.6,0,2.4,0c.8,0,1.6,0,2.4,0,1.3,0,2.5,0,3.7.3.3,0,.6,0,1,0,.8,0,1.7-.2,2.6-.2s.8,0,1.1,0c.2,0,.3,0,.5,0,2.2,0,3.9,1.5,4.1,3.8,0,.8,0,1.5-.3,2.2,0,.1,0,.2-.2.3-1.6,1.8-4.2,2.4-6.2,2.4s-.5,0-.8,0h-.5c-.3,0-.6-.1-.8-.1s-.5,0-1.4.5c-.1,0-.3,0-.4,0s-.2,0-.2,0c-.8-.2-1.1-.3-1.3-.3s-.4,0-.8.1c-.2,0-.4,0-.7.1,0,0-.1,0-.2,0h-.1c-1.4-.2-2.8-.2-4.2-.2-2.3,0-4.5.2-6.8.4-1.8.2-3.7.3-5.7.4h0"/>
            <path class="st4" d="M14.5,53.2c1.3,0,2.5.4,3.5,1,1.1,2,2.1,2.9,2.2,4.1,0,.8-.2,1.6-.9,2.7-.3.5-.7,1.2-1.7,1.8-.9.3-1.8.5-2.9.5s-2.7-.3-3.8-1.2c-1.1-.7-1.7-1.5-1.6-3.4,0-3.2.3-4.6,4-5.5.4,0,.8-.2,1.3-.2M47.3,54.2c1.2,0,2.3,0,3.7.3,1.2,0,2.4-.3,3.6-.3s.8,0,1.1,0c.2,0,.3,0,.5,0,1.8,0,3,1.3,3.2,3,0,.6,0,1.2-.2,1.8-1.3,1.5-3.7,2.1-5.5,2.1s-.5,0-.7,0c-.6,0-1-.1-1.4-.1-.5,0-.9.1-1.8.6-.8-.2-1.2-.3-1.6-.3s-.8.1-1.7.3c-1.5-.2-2.9-.2-4.3-.2-4.2,0-8,.6-12.6.8-1.4-.6-3.2-2.3-3.3-4-.1-1.2.6-2.5,3-3.2h.5c.6,0,.9,0,1.2,0s.8,0,1.7-.4l.6.4c2.4,0,4.8,0,7.2-.5.8,0,1.5,0,2.2,0,1.7,0,3.2-.1,4.9-.1M14.5,51.3h0c-.6,0-1.1,0-1.7.2-4.9,1.2-5.3,3.8-5.4,7.2,0,2.4.7,3.9,2.4,5,1.3,1,3,1.5,4.9,1.5s2.4-.2,3.5-.6c.2,0,.3-.1.5-.2,1.2-.9,1.8-1.7,2.2-2.4.9-1.5,1.2-2.6,1.2-3.8,0-1.4-.7-2.3-1.4-3.4-.3-.5-.6-1-1-1.6-.2-.3-.4-.5-.7-.7-1.4-.8-3-1.2-4.4-1.2M47.3,52.3c-.8,0-1.7,0-2.5,0-.8,0-1.6,0-2.4,0s-1.4,0-2.1,0h-.2c-.1,0-.3,0-.4,0-1.6.4-3.3.4-5.2.5-.4,0-.7,0-1.1,0h0c-.3-.2-.7-.3-1-.3s-.4,0-.6.1c-.8.3-.9.3-1,.3s-.2,0-.3,0c-.2,0-.5,0-.9,0h-.5c-.2,0-.3,0-.5,0-4.3,1.3-4.5,4.1-4.4,5.2.2,2.5,2.5,4.7,4.5,5.5.2,0,.5.1.7.1h0c2,0,3.9-.2,5.8-.4,2.3-.2,4.5-.4,6.8-.4,1.4,0,2.8,0,4.1.2,0,0,.2,0,.2,0,.1,0,.2,0,.3,0,.3,0,.5,0,.7-.1.3,0,.5,0,.6,0,.2,0,.7.1,1.1.2.2,0,.3,0,.5,0,.3,0,.6,0,.8-.2.8-.4.9-.4,1-.4h0c.2,0,.4,0,.7,0h.5c.3,0,.6,0,.9,0,1.1,0,4.7-.2,6.9-2.7.2-.2.3-.4.4-.7.3-.8.4-1.7.3-2.5h0c-.3-2.8-2.4-4.7-5-4.7s-.3,0-.5,0c-.4,0-.7,0-1.1,0-.9,0-1.8,0-2.7.2-.3,0-.5,0-.8,0-1.2-.2-2.4-.3-3.8-.3"/>
            <path class="st5" d="M26.3,53.4c-.4,0-.8,0-1.2,0h-.5c-1.4,0-2.7-.1-3.7-.5-1.9-.5-3.5-1.5-4.8-3.3-.3-.3-.5-.6-.7-.9-.6-.8-1-1.3-1.6-2.6-.9-2-1.3-6.5-1.3-7.8-.3-3,.9-6.4,2.3-7.9.8-.9,1.7-1.4,2.5-1.8-.8-1.4-1.6-3.1-1.7-4.7-.4-1.8-.7-5.8,1.1-7.7l2.9-3h.3c.4-.2.8-.4,1.3-.5.8-.3,1.7-.7,2.5-.7.9,0,1.9-.1,2.9-.1,1.5,0,2.7.1,3.8.5,2.6.7,4.8,1.7,6.5,3l.2.2.4.8c.7,1.4,1.4,2.8.4,4.5h0c0,.1,0,.2,0,.2-.8.9-1.6,1.5-2.6,1.5s-.3,0-.4,0c-.2.9-.4,2-.6,3.3-.6,3.2-1.5,8-1.2,9.4v.3c0,0,0,.3,0,.3-.5,1.4-1,6.8-.8,9.7.6.5,1,1.3,1.2,2.4.3,1.5,0,3.4-1,4.3-.8.7-2,.9-3,1.1-.3,0-.5,0-.7.2-.7.2-1.4.2-2.3.2M22.2,44c.3.2,1,.4,1.7.6,0-.3,0-.6,0-.7v-.2s0-.3,0-.3l.4-5c-.2-1,0-2.4,0-3.2-1,0-2.1.2-2.5.4-.6.4-1,.9-1,1.3-.1,2.8.5,5.7,1.5,7M25.7,20.2c-.2,0-.5,0-1.4.5h0s0,0,0,0c-.6.2-1.1,1.4-1.1,2,0,.6.5,2.2,1,3.2.4,0,.8,0,1.3,0h0c.3-1.6.7-4.2.9-5.7-.2,0-.4,0-.5,0"/>
            <path class="st4" d="M26.6,12.8c1.1,0,2.3.1,3.5.4,2.2.6,4.3,1.5,6,2.8.8,1.6,1.5,2.6.7,3.9-.8.9-1.3,1.1-1.8,1.1s-.8-.1-1.4-.1c-.3,2.9-2.5,11.9-2,14.2-.6,1.7-1.1,8.1-.8,10.8,1.5.5,1.8,4.2.7,5-.8.7-2.3.8-3.2,1-.6.2-1.3.2-2,.2s-.8,0-1.1,0c-1.5,0-2.9,0-3.9-.5-1.9-.4-3.2-1.5-4.2-2.9-1-1.4-1.4-1.6-2.1-3.3-.8-1.7-1.2-6.2-1.2-7.4-.3-2.6.8-5.7,2-7.1,1.1-1.3,2.7-1.7,3.3-2.1-1.2-1.6-2.2-3.8-2.3-5.4-.5-1.9-.5-5.4.8-6.7l2.7-2.7c1.1-.3,2.5-1.1,3.6-1.1.9,0,1.8-.1,2.8-.1M23.2,27.3c.2,0,1.2-.1,2-.1s.8,0,1,.1c.2-1.1,1.3-7.2,1.3-8-.9-.2-1.3-.3-1.8-.3s-1,.1-1.9.6c-1.3.4-2,2.2-2,3.2,0,1.1,1.1,3.9,1.4,4.5h0M24.8,46c.1,0,.2,0,.3,0,0-.5,0-2-.1-2.4l.4-5.2c-.2-.8,0-2.9,0-3.2,0-.4,0-.9,0-.9h0c-.2-.1-.5-.1-.9-.1-1.1,0-2.9.3-3.5.6-.8.6-1.5,1.4-1.6,2.3-.2,3.2.6,6.5,1.9,8,.4.3,2.4,1,3.4,1M26.6,10.4c-1,0-2,0-3,.1-1,0-2,.4-2.9.8-.4.2-.8.3-1.2.4l-.6.2-.5.5-2.7,2.7c-2.1,2.2-2,6.5-1.4,8.8.1,1.3.6,2.8,1.3,4-.6.4-1.2.9-1.8,1.5-1.6,1.8-3,5.4-2.6,8.8,0,1.5.4,6.1,1.4,8.3.6,1.5,1.2,2.1,1.8,2.9.2.2.4.5.6.8,1.5,2,3.2,3.2,5.4,3.7,1.2.5,2.6.5,4,.6h.4c.4,0,.8,0,1.2,0,1,0,1.8,0,2.6-.3.2,0,.5,0,.7-.2,1-.2,2.4-.5,3.5-1.4,1.5-1.3,1.7-3.7,1.4-5.4-.2-1.1-.7-2-1.2-2.7,0-2.9.4-7.7.8-8.8l.2-.6v-.6c-.4-1.2.6-6.2,1.1-8.9.2-.8.3-1.6.4-2.3,1.2-.2,2.1-1,2.9-1.8l.2-.2.2-.2c1.3-2.3.4-4.2-.3-5.7,0-.2-.2-.3-.2-.5l-.2-.5-.5-.4c-1.8-1.4-4.1-2.5-6.9-3.2-1.2-.3-2.6-.5-4.1-.5M24.5,21.9h0s.1,0,.1,0c-.1.6-.2,1.3-.3,2-.1-.4-.2-.8-.2-1,0-.2.2-.7.4-.9M22.2,36.7c.1,0,.4,0,.6-.1,0,.6,0,1.3,0,1.9l-.3,3.9c-.5-1.2-.9-3.1-.8-5.3,0,0,.1-.2.4-.4"/>
            <path class="st6" d="M54.4,54.7c-1.2,0-2.5-.8-3.2-2h0c0,0,0-.2,0-.2-.7-2.1-1.4-3.5-2.5-5.4l-.4-.8c-.3-.5-.6-1-.9-1.5-.4-.7-.8-1.3-1.2-2.1l-.8-1.6-.8-1.5c0-.2-.2-.4-.3-.6.1,1.2,1.1,7.5,1.3,8.1v.2c0,0,0,.2,0,.2,0,1.2-.2,2.3-.9,3.5h0c0,.1-.1.2-.1.2-.7.7-1.6,1-2.6,1s-1.7-.3-2.4-.7h-.2c0-.1-.2-.5-.2-.5-.6-1.2-1-2-1.2-3.5,0-.2,0-.5,0-.8,0-.2,0-.4,0-.5,0-.2,0-.3-.2-.5,0-.3-.2-.6-.3-1-.1-.7,0-1.3,0-1.9,0-.5.1-1,0-1.4,0-.2-.1-.4-.2-.6-.1-.3-.2-.5-.3-.9-.3-1.4-.5-2.8-.6-4.2-.1-.9-.2-1.9-.4-2.8,0-.2,0-.3-.2-.5-.3-.5-.6-1.3-.4-2.6-.2-.9-.4-1.6-.6-2.4-.2-.9-.5-1.8-.7-2.9,0-.5-.1-1-.2-1.5,0-.6-.1-1.2-.3-1.8-.3-1.4-.6-2.4-.7-4,0-1-.2-1.9-.8-2.7v-.2c0,0-.1-.2-.1-.2-.4-2.6.4-3.7,3.2-4.5.3,0,.5,0,.7,0,2.9,0,3.6,4.1,3.9,5.6,0,.2,0,.4.1.7,0,.4.2.8.2,1.2,0,.3,0,.5,0,.8,0,.2,0,.5,0,.7,0,.2,0,.4.1.6,0,.3.1.6.2.9,0,.4,0,.7,0,1,0,.5,0,.7.4,1.5v.2c0,0,0,.2,0,.2.1,1.5.2,2.1.6,3.5.4.6,1.1,1.9.9,2.5v.3c-.2.2-.2.4-.2.5.2-.3.3-.7.5-1v-.3c.9-1.4,2.7-4.8,3.4-6h0c0-.1,0-.2,0-.2.7-.7,1.4-1,2.2-1s1.7.4,2.6,1.2c.8.8,1.3,2.1,1.1,3.2h0c0,.1,0,.2,0,.2-.3.8-.5,1.1-.7,1.6l-.3.7c-.3.6-.9,1.4-1.5,2.2-.5.7-1.1,1.5-1.5,2.1.1.3.3.6.4,1,.3.8.6,1.6,1.2,2.2l.2.2v.2c.2.4.5.8.9,1.3.3.4.7.9,1,1.4.1.3.2.6.3.9s0,.3.1.4c.3.8.8,1.5,1.3,2.2.7,1,1.6,2.2,2,3.7.5.8.7,1.1.9,1.8,0,.2.2.5.3.9h0v.2c0,.1.2.3.2.5.3.6.4.8.4,1.1.2,1.7-.3,2.7-1.8,3.7-.4.3-.9.4-1.4.4"/>
            <path class="st4" d="M36,10.6c1.7,0,2.5,2.2,3,4.9,0,.6.3,1.2.4,1.8,0,.5,0,1,.1,1.5s.2.9.3,1.4c.1,1.4-.1,1.4.6,2.8.1,1.6.2,2.3.6,3.8.3.3,1,1.8.9,1.8,0,0,0,0,0-.1-.5,2.5.3,2.1.4,3.4.7-.9,1.2-1.9,1.8-3,.7-1.3,2.5-4.7,3.2-5.9.5-.5,1-.8,1.6-.8s1.3.3,2,1c.6.6.9,1.6.8,2.4-.5,1.1-.5,1.2-1,2.2s-2.5,3.2-3.2,4.7c.7,1.3.9,2.7,2,3.8.3,1,1.4,1.8,1.8,2.8.2.4.3.8.4,1.2.7,2,2.7,3.4,3.3,6,.8,1.1.7,1.2,1.3,2.6,0,.2.6,1.3.6,1.5.1,1.3-.1,2-1.4,2.9-.3.2-.6.3-.9.3-.9,0-1.9-.6-2.5-1.5-.8-2.5-1.7-4-3-6.3-.7-1.3-1.5-2.3-2-3.6l-.8-1.6-.8-1.5c-.3-.6-.8-1.2-1.1-1.9-.3.4-.9,1-.9,1.5,0,.4,1.1,8.2,1.4,8.7,0,1.1-.3,2.1-.8,3.1-.5.5-1.3.8-2,.8s-1.3-.2-1.9-.6c-.7-1.3-1-1.9-1.2-3.4,0-.4,0-1,0-1.3,0-.5-.3-.9-.5-1.4-.2-1.1.2-2.2,0-3.3,0-.5-.4-1-.5-1.5-.5-2.2-.7-4.6-1-7-.1-.8-.9-1.3-.6-3-.4-2.1-1-3.3-1.3-5.4-.2-1.1-.2-2.2-.5-3.3-.4-1.4-.5-2.4-.7-3.9-.1-1.1-.3-2.1-.9-3.1-.3-2.1.2-2.8,2.6-3.6.2,0,.3,0,.5,0M36,8.9c-.3,0-.5,0-.8,0h0s0,0,0,0c-2.7.8-4.3,2.1-3.8,5.5v.4c0,0,.3.3.3.3.4.6.5,1.4.6,2.3.2,1.7.4,2.8.8,4.2.1.5.2,1.1.2,1.7,0,.5,0,1,.2,1.5.2,1.2.5,2.1.7,3,.2.7.4,1.4.5,2.1-.2,1.5.2,2.4.5,2.9,0,0,.1.2.1.3.1.9.3,1.9.4,2.8.2,1.4.4,2.9.7,4.3,0,.4.2.8.3,1,0,.2.1.3.2.4,0,.3,0,.7,0,1.1,0,.7-.2,1.4,0,2.2,0,.5.2.8.3,1.1,0,.1,0,.2.1.3,0,0,0,.2,0,.3,0,.2,0,.6,0,.9.2,1.7.6,2.6,1.2,3.8v.2c.1,0,.3.4.3.4l.4.3c.9.6,1.8.9,2.9.9s2.4-.4,3.2-1.2l.2-.2v-.3c.9-1.4,1.2-2.6,1.1-4v-.7c-.2-.4-.4-1.4-.6-2.6.2.3.4.7.6,1,.3.5.6,1,.9,1.5l.4.8c1,1.8,1.7,3.2,2.4,5.2v.2c0,0,.2.2.2.2.9,1.5,2.5,2.4,4,2.4s1.4-.2,1.9-.6c1.8-1.2,2.4-2.5,2.2-4.5,0-.4-.2-.8-.5-1.3,0-.1-.1-.3-.2-.4h0s0-.3,0-.3c-.2-.4-.2-.6-.3-.9-.2-.7-.4-1.1-1-1.9-.4-1.6-1.3-2.8-2.1-3.8-.5-.7-1-1.3-1.2-2,0,0,0-.2,0-.3,0-.3-.2-.7-.3-1-.3-.6-.7-1.2-1.1-1.6-.3-.3-.6-.7-.7-.9v-.5c-.1,0-.4-.3-.4-.3-.5-.5-.7-1.1-1-1.9,0-.2-.1-.4-.2-.5.3-.5.8-1.1,1.2-1.7.7-.9,1.3-1.7,1.6-2.4.1-.3.2-.5.3-.7.2-.5.4-.8.7-1.6v-.2c0,0,.1-.2.1-.2.2-1.5-.3-3-1.3-4-1-1-2.1-1.4-3.2-1.4s-1.8.2-2.9,1.3l-.2.2v.2c-.7.9-1.9,3.1-2.8,4.8-.1-.3-.3-.5-.4-.7-.3-1.3-.4-1.9-.5-3.2v-.4s-.2-.3-.2-.3c-.3-.7-.3-.7-.3-1.2,0-.2,0-.6,0-1,0-.4-.1-.7-.2-1s0-.4,0-.5c0-.2,0-.4,0-.6,0-.3,0-.6,0-.9,0-.5-.2-1-.2-1.4,0-.2,0-.4-.1-.6-.3-1.7-1.1-6.3-4.8-6.3"/>
          </g>
        </g>
      </g>
    </g>
  </g>
</svg>