<?xml version="1.0" encoding="UTF-8"?>
<svg id="Layer_2" xmlns="http://www.w3.org/2000/svg" version="1.1" xmlns:xlink="http://www.w3.org/1999/xlink" viewBox="0 0 336.7 90.7">
  <!-- Generator: Adobe Illustrator 29.7.1, SVG Export Plug-In . SVG Version: 2.1.1 Build 8)  -->
  <defs>
    <style>
      .st0 {
        fill: none;
      }

      .st1 {
        clip-path: url(#clippath-1);
      }

      .st2 {
        fill: #f1f2f2;
      }

      .st3 {
        fill: #f914a5;
      }

      .st4 {
        fill: #231f20;
      }

      .st5 {
        fill: #11fffa;
      }

      .st6 {
        fill: #fef818;
      }

      .st7 {
        fill: #fe0d0d;
      }

      .st8 {
        fill: #01f61c;
      }

      .st9 {
        fill: #4b58ff;
      }

      .st10 {
        clip-path: url(#clippath);
      }
    </style>
    <clipPath id="clippath">
      <rect class="st0" width="336.7" height="90.7"/>
    </clipPath>
    <clipPath id="clippath-1">
      <rect class="st0" width="336.7" height="90.7"/>
    </clipPath>
  </defs>
  <g id="Replace_with_delete_layer_">
    <g id="bunt_w">
      <g class="st10">
        <g class="st1">
          <g>
            <path class="st2" d="M251.9,55c-.2,0-.4,0-.6,0-4.1-.9-4.4-4.7-4.6-6.3,0-.2,0-.3,0-.4-.6-1.5-.7-2.4-.5-3.5,0-.2,0-.4,0-.6-.1-2-.4-4.2-.6-6.4-.4-3.6-.8-7.2-.8-10.6-.4-1.2-.6-2.5-.4-3.6-.2-2-.1-5,2.2-8,.6-.7,1.4-1.1,2.3-1.1s.4,0,.7,0l1,.2c2,.5,2.9.7,4.2,2.4.1.1.2.3.4.5.3.4.5.8.6,1.2.3,1.5,1.3,3.7,2.2,5.6.5,1,.9,2,1.2,2.8,0-.5,0-.9,0-1.4-.7-3.5-1.5-8.1,2.4-12,.5-.5,1.1-.8,1.8-.9.3,0,.6,0,.8,0,2.2,0,3.9,1,5.2,2.9.2.4.4.8.5,1.3.2,2.3.2,4.3.2,6.3s0,3.6.2,5.6c0,.4,0,.8-.1,1.2-.4,1.1-.3,2.5-.3,4,0,1.2,0,2.5,0,3.8.2,1.3.2,2.7,0,4,.2,1,.3,2.2.4,3.3,0,.6.1,1.1.2,1.5,0,.5,0,1.1-.2,1.6l-.3.7c-.1.3-.2.6-.4.8-.5,1.3-1.7,2.6-4,2.6s-2.3-.3-3.7-.8c-.4-.1-.7-.3-1-.6-1.6-1.5-2.5-2.8-3.2-4.1,0,.3,0,.7,0,1.1,0,.8,0,3.2-1.3,4.7-.4.5-.9.8-1.4,1-.3.3-.6.5-1,.7l-.9.3c-.3.1-.7.2-1,.2"/>
            <path class="st2" d="M251.9,56c-.3,0-.6,0-.8,0-4.9-1-5.2-5.5-5.4-7.2,0,0,0-.2,0-.2-.7-1.8-.7-2.9-.6-3.9,0-.2,0-.3,0-.4-.1-2-.4-4.1-.6-6.4-.4-3.5-.7-7.1-.8-10.6-.4-1.3-.6-2.6-.4-3.8-.3-3.3.5-6.1,2.4-8.6.8-1,1.9-1.5,3.1-1.5s.6,0,.9.1l1,.2c2.3.5,3.3.8,4.8,2.8.1.1.2.3.4.5.4.5.7,1,.8,1.6.1.7.5,1.6.9,2.6,0-2.6.7-5.5,3.3-8.1.6-.6,1.5-1.1,2.4-1.1.3,0,.6,0,.9,0,2.5,0,4.6,1.1,6.1,3.4.4.5.6,1.1.6,1.8.2,2.3.2,4.4.2,6.4s0,3.6.2,5.4c0,.5,0,1.1-.2,1.6-.3.9-.3,2.3-.2,3.7,0,1.2,0,2.5,0,3.8.1,1.3.2,2.7,0,3.9.2,1,.3,2.2.4,3.3,0,.6.1,1.1.2,1.4.1.7,0,1.5-.3,2.2l-.3.7c-.1.3-.2.5-.4.8-.6,1.6-2.1,3.2-5,3.2s-2.5-.3-4-.8c-.5-.2-1-.5-1.4-.9-.7-.6-1.2-1.2-1.7-1.8-.2,1.1-.6,2.4-1.5,3.4-.5.5-1,1-1.6,1.2-.4.3-.8.6-1.2.8l-.9.3c-.4.2-.9.2-1.4.2M249.8,19.4c-.7,1.4-.7,2.7-.5,3.9,0,.2,0,.5,0,.7-.1.4,0,1.1.3,1.7.1.2.2.5.2.8,0,3.3.4,7.1.8,10.7.2,2.3.5,4.5.6,6.6,0,.7,0,1.2,0,1.5,0,.4,0,.5.3,1.3,0,.2.1.4.2.6,0,.3,0,.7.1,1.1,0,.9.1,1.3.2,1.6.2-.2.5-.5.9-.6,0-.3.1-.8,0-1.1,0-.2,0-.3,0-.5.1-.8,0-1.4-.1-2.2,0-.6-.2-1.3-.2-2.1s0-.2,0-.2c.1-1.1-.6-4.9-1-6.9-.2-.9-.3-1.7-.4-2.2-.1-.9.4-1.8,1.3-2.1.2,0,.4,0,.6,0,.7,0,1.4.4,1.7,1.1.7,1.5,2.7,4.6,4.2,6.9.6,1,1.2,1.8,1.5,2.4s.6,1,.9,1.5c.8,1.4,1.4,2.3,2.6,3.6.6.2,1.1.3,1.4.3,0-.1.1-.2.2-.3v-.4c.1-.4,0-.8,0-1.2-.1-1-.2-2.4-.4-3,0-.3-.1-.6,0-.9.1-1,.1-2.5,0-3.6,0-.2,0-.4,0-.6.2-1,.1-2.2.1-3.4,0-1.7,0-3.5.4-5.3-.2-2-.2-3.9-.2-5.7s0-3.4-.2-5.3c-.2-.2-.4-.3-.6-.4-1.5,2-1.2,4.1-.5,7.5,0,.2,0,.5,0,.7-.1.8-.1,1.4,0,2,0,.3,0,.5,0,.8-.1.4,0,1.7,0,2.5,0,1.6,0,2.5-.2,3.3,0,.5,0,1.6,0,2.3,0,.6,0,1.3,0,1.8,0,.9-.6,1.7-1.5,1.9-.1,0-.2,0-.4,0-.8,0-1.5-.5-1.8-1.2-.6-1.5-2.2-4.6-2.7-5.2-.4-.2-.6-.6-.7-1-.3-1-.6-1.5-1.1-2.3-.2-.3-.4-.7-.7-1.1,0-.1-.1-.2-.1-.3-.3-.8-.8-1.9-1.3-3-.9-2-1.9-4.3-2.4-6.2,0-.1-.2-.2-.2-.3s-.1-.2-.2-.2c-.2,0-.5-.1-.9-.2"/>
            <path class="st2" d="M286.2,54.8c-2.8,0-5.1-1.9-5.7-4.6h0c-.5.1-1.1.2-1.7.2s-.9,0-1.3-.1c-.2,0-.4,0-.6,0-1.5,0-2.9-.7-3.9-1.3-.3-.2-.7-.4-.9-.5-.5-.1-.9-.4-1.3-.7-2-1.9-3-5.2-3-9.7s.5-3.2.9-4.4c.1-.4.3-.8.4-1.2,0,0,0-.2.1-.3,1.9-4.9,6.3-8.5,10.7-9.1v-1.4c-.3-1.6-.3-3.2-.2-4.6,0-1.4,0-2.6-.2-3.6,0-.3-.1-.5-.1-.8v-1.1c0-.2,0-.4,0-.5,0-.7,0-1.5.2-2.6,0-.3.2-.6.3-.9,1.2-2.1,3.1-3.4,5.3-3.6.2,0,.4,0,.6,0,3,0,5.4,2.2,5.7,5.3.1,1.1,0,2.2-.5,3.5-.1,2.9,0,4.9.6,6.7.1.4.2.8.1,1.2-.2,2.2-.2,6-.1,8.8,0,.9,0,1.6,0,2.2.4,3.2.4,6.4.4,9.5,0,1.8,0,3.5,0,5.2,0,.3,0,.5,0,.8,0,.8,0,1.6,0,2.7-.2,1.5-.9,2.4-1.4,3.1-.1.2-.3.3-.4.5-.4.5-.8.8-1.4,1-.9.3-1.7.5-2.5.5M280.1,36.6c-.4,1.1-.5,1.5-.5,1.8,0,0,0,0,0,0,.2,0,.4-.1.5-.2,0,0,.1-.1.1-.1,0-.6,0-1.2,0-1.9,0,0-.1.1-.2.2v.2c0,0,0,0,0,0Z"/>
            <path class="st2" d="M286.2,55.9c-3,0-5.5-1.8-6.4-4.5-.3,0-.6,0-.9,0s-.9,0-1.3,0c-.2,0-.4,0-.6,0-1.8,0-3.2-.8-4.4-1.5-.2-.1-.5-.3-.7-.4-.6-.2-1.2-.5-1.7-1-2.7-2.7-3.3-7.1-3.3-10.4s.5-3.5.9-4.7c.1-.4.3-.8.4-1.2,0-.1,0-.3.1-.4,1.9-5,6.1-8.6,10.7-9.6v-.5c-.3-1.7-.3-3.3-.2-4.7,0-1.3,0-2.5-.2-3.4,0-.3-.1-.7-.1-1v-1.1c0-.2,0-.4,0-.6,0-.7,0-1.6.2-2.8,0-.4.2-.8.4-1.2,1.4-2.4,3.6-3.9,6.1-4.1.2,0,.4,0,.7,0,3.5,0,6.3,2.6,6.7,6.2.1,1.2,0,2.5-.5,3.9-.1,2.7,0,4.6.5,6.2.2.5.2,1.1.2,1.6-.2,2.2-.2,6.1-.1,8.8,0,.8,0,1.5,0,2.1.4,3.2.4,6.5.4,9.6,0,1.8,0,3.5,0,5.1,0,.3,0,.5,0,.7,0,.8.1,1.7,0,2.9-.3,1.8-1,2.8-1.6,3.6-.1.2-.2.3-.4.5-.5.6-1.1,1.1-1.8,1.4-1,.3-1.9.5-2.8.5M285.4,49.4c.1.4.4.6.9.6s.2,0,.3,0c0,0,0,0,0-.1.5-.6.5-.6.5-.9,0-.6,0-1,0-1.7,0-.2,0-.5,0-.8,0-1.8,0-3.6,0-5.4,0-3,0-6.1-.3-9,0,0,0-.2,0-.2,0-.6,0-1.4,0-2.2,0-2.8,0-6.5.1-9.1-.7-2.3-.9-4.9-.6-8.5,0-.2,0-.4.1-.6.4-.9.4-1.4.3-1.6,0-.5-.2-1-.9-1h-.1c-.5,0-1,.4-1.4.9,0,.4,0,.7,0,1.1,0,.2,0,.5,0,.7v.8c.4,1.6.4,3.2.3,4.7,0,1.4,0,2.7.2,3.8,0,.2,0,.4,0,.6,0,.5,0,3.8,0,4.3,0,.6-.2,1.2-.7,1.6-.4.3-.8.5-1.3.5s-.3,0-.4,0c-.4,0-.8-.1-1.2-.1-2.9,0-6.2,2.6-7.6,6.1-.1.5-.3,1-.4,1.4-.3,1-.6,1.8-.6,2.9,0,2.7.5,4.8,1.3,5.9.5.2.9.4,1.4.7.4.2,1.2.7,1.5.7.2,0,.4,0,.6,0s.4,0,.5,0c.3,0,.5.1.8.1.8,0,1.5-.5,2-.9,0,0,.1-.1.2-.2,0,0,.2-.2.3-.3,1-.8,1.4-1.1,2.1-1.1s1.1.2,1.5.7c.4.4.5,1,.4,1.5-.2,1.3-.2,2.5,0,4.1M278.9,43.5c-1.8,0-3.8-1.4-4.1-3.9-.3-1.7.1-3,.6-4.4l.2-.7c0-.2.2-.4.3-.6,1.2-1.5,2.8-3.2,5.1-3.6.1,0,.2,0,.3,0,.1,0,.3,0,.5,0,0,0,0,0,.1,0,.2,0,.5,0,.8,0,.8,0,1.3.3,1.6.6.8.8.7,1.8.7,2.4,0,.2,0,.3,0,.5,0,.6,0,1.2,0,1.9,0,1.4,0,2.9,0,4.2,0,.8-.5,1.4-1.2,1.7-.1,0-.2.2-.3.3-.4.4-.9.9-1.7,1.1-.2,0-.4.1-.5.2-.6.2-1.4.5-2.3.5h-.2"/>
            <path class="st2" d="M303.6,49.4c-4.6-.2-7.8-3-10.5-5.7l-.3-.3c-.5-.5-1.1-1.1-1.6-1.9-.2-.4-.4-.8-.5-1h0c-.1-.5-.3-.8-.4-1.1-.5-1.2-1-2.5-1.3-4.1h0c-.1-.3-.2-.6-.3-.8-.1-.4-.1-.7-.1-1.1.4-5.1,1.3-10.9,6.1-14.5,1.9-1.5,4.2-2.3,6.5-2.3s4.2.7,5.8,2.1c0,0,0,0,.1.1.2.2.4.4.6.5.7.6,1.4,1.1,2,2,.2.3.4.5.7.9.7.8,1.6,1.9,2,3.4,0,.2.1.5.2.7.1.3.3.7.4,1.2.4,1.5,1,5.1-.5,7.4-.6,1-1.5,1.6-2.6,1.9l-.8.3c-.4.2-.8.2-1.2.2h-.6c-.8,0-1.8,0-2.9.2.2,0,.5.1.6.2l.8.2c.3,0,.6.2.9.4.1,0,.2.1.3.2,1,.5,3.9,1.9,3.1,5.9h0c0,.5-.2,1-.4,1.5-.9,1.6-2.3,2.2-2.9,2.4-.1,0-.2,0-.3.1l-1.3.7c-.4.2-.9.3-1.4.3h-.2"/>
            <path class="st2" d="M303.6,50.4c-5.4-.2-9.2-4-11.2-6l-.3-.3c-.5-.5-1.3-1.2-1.8-2.1-.3-.5-.5-.9-.6-1.2v-.2c-.2-.3-.3-.6-.4-.9-.5-1.2-1-2.6-1.3-4.2-.1-.2-.2-.5-.3-.8-.1-.5-.2-1-.1-1.4.5-5.4,1.4-11.4,6.5-15.2,2.1-1.6,4.6-2.5,7.1-2.5s4.6.8,6.5,2.3c.1,0,.2.2.3.3,0,0,.3.2.5.4.7.5,1.5,1.2,2.1,2.2.1.2.4.5.6.8.8.9,1.8,2,2.2,3.8,0,.2.1.4.2.7.1.3.3.8.4,1.3.4,1.6,1.1,5.6-.7,8.2-.7,1.1-1.8,1.9-3.1,2.3l-.7.3c-.2,0-.5.2-.7.2,2.1,1.5,2.9,3.6,2.4,6.2h0c0,.5-.2,1.1-.5,1.8,0,0,0,0,0,0-1,1.9-2.6,2.5-3.4,2.8,0,0-.2,0-.2,0l-1.2.7c-.6.3-1.2.5-1.9.5h-.1M293.5,33.3c.1.3.3.7.4,1.2.1,1,.5,1.9,1,3,.1.3.3.7.4,1v.2c.1,0,.1.2.2.3.1.3.5.6.8.9.1.1.2.2.4.3,2.1,2.1,4.2,4,6.8,4.3l.8-.4c.3-.2.7-.3.9-.4,0,0,.2,0,.2,0,0,0,0-.2,0-.2,0-.1,0-.2,0-.3-.1,0-.3-.2-.4-.2-.2,0-.4-.2-.6-.3l-.7-.2c-.1,0-.3,0-.4-.2,0,0,0,0,0,0h-.1c-.4,0-.8-.1-1.2-.4,0,0,0,0-.2,0-.4,0-.7-.1-1-.3-.9-.6-1.6-1.3-2.3-2-.2-.2-.4-.4-.6-.6s-.4-.4-.5-.7c0-.2-.2-.5-.4-.7-.2-.3-.4-.7-.6-1.2-.2-.5-.2-1.2,0-1.7.3-.5.8-.9,1.4-1,4.2-.8,7.4-1.1,9.6-1.1h.2l.6-.3c0,0,.1,0,.2,0,.2-.6.1-2.3-.2-3.6,0,0,0,0,0-.1,0,0,0-.1,0-.2,0-.1-.1-.3-.2-.4-.1-.2-.1-.5-.1-.8,0-.1,0-.2-.1-.3,0-.4-.5-.9-1-1.5-.4-.4-.8-.9-1.1-1.4-.1-.2-.6-.5-.9-.8-.3-.2-.6-.5-.9-.7-.8-.6-1.7-.9-2.6-.9s-2.4.5-3.5,1.3c-3.1,2.3-3.7,6.3-4.1,10.6M297.9,31.9c-.5,0-1-.2-1.4-.5-.5-.4-.6-1.1-.5-1.7.1-.8,1-4.9,3.8-6,.2,0,.4-.1.7-.1h.2c1.9.2,4,.6,5,1.9.9.9,1.9,2.8,1.2,4.2-.2.5-.6.9-1.1,1-1.2.4-3.2.6-5,.8-1,0-1.9.2-2.4.3-.1,0-.2,0-.3,0"/>
            <path class="st2" d="M325.5,53.2c-1,0-2.1-.3-3.3-.9-.3-.1-.5-.3-.8-.5v-.2c-.1,0-.2,0-.2,0-.6-.5-1-.9-1.4-1.4-.2.5-.5.9-1,1.3-.4.3-1.5,1-2.8,1s-.6,0-.9-.1l-2.2-.7c-1-.3-1.7-1.1-2-2l-.3-1c-.9-1.7-.8-3.5-.7-4.3v-.7c0-.2,0-.3,0-.4,0-.3,0-.6,0-.9,0-.9,0-2,0-2.9s0-2.2.1-3.2c0-.1,0-.2,0-.3v-.5c.1,0,0-.8,0-.8,0-1.2,0-2.1.2-2.8,0,0,0,0,0-.1,0-.2.1-.5.1-.8,0-.3,0-.6,0-.9,0,0,0-.3,0-.3-.2-.6-.2-1.2,0-1.8l.3-1c0-.1.1-.3.2-.4.5-.9,1.9-3.8,5.3-3.8h2.2c1,0,2.2,0,3.3.2,2.8.4,5.6,2.5,6.9,5.4,0,0,0,0,0,.1.5,1.3.7,2.4.7,3.4,0,2.9-1.5,4.5-2.6,5.7h-.1c0,.2,0,.3,0,.4v.4c.1,0,2.2,4.9,2.2,4.9.2.4.4.8.6,1.1,0,0,0,.2.1.3,0,0,0,0,0,0l.2.3c.2.3.4.6.5,1,.2,1,.6,2.6-.3,4.2-.8,1.9-2.5,3.1-4.5,3.1"/>
            <path class="st2" d="M325.5,54.3c-1.2,0-2.4-.3-3.8-1-.4-.2-.7-.4-1-.8h0c-.2-.3-.4-.5-.6-.6-.1.2-.3.3-.5.4-.5.3-1.8,1.2-3.4,1.2s-.8,0-1.2-.2l-2.2-.7c-1.3-.4-2.3-1.4-2.6-2.8l-.2-.9c-.9-1.9-.8-3.9-.8-4.7v-.7c0-.1,0-.2,0-.3h0c0-.4,0-.6,0-.9,0-.8,0-2,0-2.9s0-2.2.1-3.3c0-.1,0-.3,0-.4v-.3c0,0,0-.6,0-.6,0-1.3,0-2.3.2-3.1,0,0,0-.1,0-.2,0-.2,0-.4.1-.5,0-.2,0-.5,0-.8h0c-.2-.9-.2-1.7,0-2.5l.3-1c0-.2.1-.4.2-.5,1.5-2.9,3.5-4.4,6.2-4.4h2.2c1,0,2.3,0,3.5.2,3.2.5,6.2,2.8,7.7,5.9,0,.1,0,.2.1.3.5,1.3.7,2.6.7,3.7,0,3.1-1.5,4.9-2.6,6.1h0c0,0,2,4.8,2,4.8.3.4.5.9.6,1.2,0,0,0,.2.1.3v.2c.4.4.6.9.7,1.3.3,1,.7,2.9-.4,4.9-1,2.3-3,3.6-5.4,3.6M324.7,48.1c.4.2.7.2.8.2,0,0,0,0,0-.2,0-.2.1-.3.2-.4,0,0,0-.2,0-.2l-.3-.4c-.2-.2-.3-.5-.3-.7,0,0,0-.2-.1-.3-.1-.1-.2-.3-.3-.5l-2.2-5.3c-.1-.2-.2-.3-.2-.5v-.4c-.1,0-.3-.2-.3-.2,0,0-.1-.2-.2-.3,0-.1-.1-.3-.2-.5,0-.2-.2-.4-.3-.7-.4-.9,0-2,.9-2.4,0,0,.1,0,.2-.2l.2-.3c0,0,.1-.1.1-.2l.3-.4c1.1-1.2,1.4-1.6,1.4-2.5s-.1-1-.4-1.6c-.6-1.3-1.9-2.3-3.2-2.5-.7-.1-1.7-.1-2.5-.1h-2.2c-.3,0-.6.6-.9,1v.4c-.1,0-.1,0,0,0,.1.3.2.7.1,1,0,.1,0,.3,0,.4,0,.1,0,.2,0,.4,0,.5,0,1.1-.2,1.8,0,.5-.1,1-.1,1.6,0,0,0,0,0,.1v1.3c0,.2,0,.3,0,.5l-.2.7c0,.7,0,1.6,0,2.5s0,2,0,2.7h0c0,.3,0,.5,0,.7,0,.2,0,.5,0,.7v.8h0c0,.8,0,1.5.3,2.1,0,.2.1.3.2.5v.3c0,0,.3,0,.3,0,0-.2.1-.3.1-.5,0-.3-.1-.7-.1-1.1v-.6c-.3-1.1-.2-4-.2-4.9-.1-.6,0-1.1,0-1.5,0,0,0,0,0-.1v-.5c0-.8.5-1.5,1.2-1.8.1,0,.2,0,.3,0-.1,0-.3-.2-.4-.2-.5-.4-.8-1.1-.7-1.8,0-.2,0-1,0-1.5,0-.5,0-1,0-1.2,0,0,0-.2,0-.3,0,0,0,0,0-.1,0-.2,0-.8-.1-1.1-.1-.7.1-1.4.7-1.8.4-.3.8-.4,1.2-.4s.4,0,.6.1c.1,0,.3,0,.4,0,1.3.1,4.6.6,4.5,3.5,0,0-.1,1.2-.1,1.2,0,.5-.3.9-.6,1.2l-1.3,1.2s-.1,0-.1.1l-.4.3c-.2.1-.4.2-.5.3-.1,0-.5.1-.9.2-.3,0-.7.2-.9.2-.1,0-.2,0-.3,0,.2,0,.4.2.6.4,0,0,.2.2.3.4,0,0,0,.1.1.2.1,0,.2.2.3.3,0,0,.2.2.2.3,1.5,2.4,2.5,4.9,3.2,7,.1.2.2.5.3.7,0,.1,0,.2.1.3,0,0,0,.1,0,.2l.3,1.2h0s0,0,.3.3h.2c0,.2.1.2.2.3h0c0,0,0,0,0,0Z"/>
            <path class="st2" d="M229.9,89.2c-1,0-2.1-.2-3.3-.5-5.6-1.5-9.6-3.2-9.6-11.6,0-4.2,2.1-7.5,4-9.4.4-.5,1-.8,1.6-1,1.1-.3,2-.6,2.8-.9,1.6-.6,3.1-1.1,4.8-1.1s.8,0,1.3,0c2,.4,3.7,1.4,5.8,3.3.9.9,2.1,2.2,3.1,4.5.1.3.2.6.2.9.4,3.9-.5,9.6-4.6,13.1-1.7,1.7-3.6,2.6-5.9,2.6M233.3,62.1c-.4,0-.9,0-1.3,0-1.4-.2-6.4-1.4-6.9-9.1,0-.3,0-.6,0-.9.2-1.1.4-1.8.6-2.3.2-.6.2-.6,0-2-.1-1.1.3-2.1,1-2.9h0c.1-.5.2-1.1.3-1.6.6-2.8,1.1-5.5,1.2-8.2,0-.3,0-.7.2-1,.8-2.5,1.2-4.7,1.7-7,.6-3,1.2-6.1,2.7-9.7,0-.4.2-1.3.2-1.3.2-1.8.5-3.9,1.2-6,.7-4.4,4.1-7.3,8.5-7.3s.8,0,1.3,0c1.5.2,2.9.8,4.1,1.5.4.2.7.6,1,.9,3,4.2,2.6,9.9,1.4,13.6l-.3.8c-.3.8-.3,1.6-.1,2.5.2.8,0,1.6-.3,2.4-.5,1-.8,1.8-.8,2.5,0,.3,0,.7,0,1.2,0,.3,0,.7-.2,1-2.1,5.9-2.9,11.3-3.8,17-.4,3-.9,6-1.5,9.2-.1.5-.3.9-.6,1.3-1.9,2.6-5.8,5.3-9.6,5.3"/>
            <path class="st2" d="M229.9,90.7c-1.1,0-2.3-.2-3.7-.5-5.6-1.5-10.7-3.7-10.8-13,0-3.7,1.5-7.3,4.4-10.5.6-.7,1.4-1.2,2.3-1.4,1-.3,1.9-.6,2.7-.9,1.7-.6,3.3-1.2,5.2-1.2-2.4-.9-5.9-3.3-6.4-10.1,0-.4,0-.9,0-1.3.2-1.1.4-1.9.6-2.4,0-.1,0-.2,0-.3,0-.1,0-.8-.1-1.1-.2-1.4.3-2.8,1.1-3.8,0-.4.1-.7.2-1.1.6-2.8,1.1-5.5,1.2-8,0-.5,0-1,.2-1.5.8-2.4,1.2-4.5,1.6-6.8.6-3.1,1.2-6.2,2.7-9.9,0-.4.1-.7.1-1.1.3-2,.5-4,1.2-6.2.9-5.1,4.9-8.4,10-8.4s1,0,1.5,0h.2c1.6.3,3.2.9,4.6,1.7.6.4,1.1.8,1.4,1.4,3.3,4.7,2.9,11,1.5,15l-.3.8c-.1.3-.2.7-.2.8,0,.1,0,.5.2.9.3,1.2,0,2.4-.5,3.4-.4.8-.6,1.4-.6,1.8,0,.4,0,.8,0,1.2,0,.5-.1,1-.3,1.4-2.1,5.7-2.9,11.1-3.7,16.7-.4,3-.9,6-1.5,9.3-.1.7-.4,1.3-.8,1.9-2,2.8-6.3,5.9-10.8,5.9h0c1.6.6,3.2,1.7,4.9,3.3,1,1,2.4,2.5,3.4,5.1.2.4.3.8.3,1.3.5,4.4-.6,10.5-5.1,14.4-2,2-4.2,3-6.9,3M224.6,71.7c-1.1,1.3-2.2,3.2-2.2,5.4,0,4.9,1.2,5.2,5.7,6.4.8.2,1.4.3,1.9.3.9,0,1.4-.3,2.1-1,0,0,.1,0,.2-.2,2.5-2.1,3.1-5.7,2.9-8.3-.6-1.3-1.2-1.9-1.7-2.4-1.6-1.5-2.4-1.8-3-1.9,0,0-.2,0-.3,0-.7,0-1.6.3-2.9.8-.8.3-1.6.6-2.6.9M230.5,52.8c.1,1.7.7,3.7,2.3,3.9.2,0,.3,0,.5,0,1.7,0,3.8-1.4,5-2.7.6-3,1-5.8,1.4-8.5.9-5.9,1.7-11.5,3.9-17.8,0-.3,0-.6,0-.9,0-1.8.2-2.3,1.1-4.2-.4-2.2-.2-2.9.5-4.8l.2-.7c.8-2.5.9-6.1-.4-8.4-.5-.3-1.1-.5-1.7-.6-.1,0-.3,0-.5,0-.9,0-2.9.3-3.2,2.9,0,.1,0,.3,0,.4-.6,1.7-.8,3.5-1.1,5.3,0,.6-.2,1.2-.2,1.8,0,.2,0,.3-.1.5-1.4,3.2-1.9,6.1-2.5,9-.4,2.3-.9,4.7-1.8,7.4,0,3.1-.7,6-1.3,8.9-.2.9-.4,1.7-.5,2.6,0,.4-.3.7-.6,1h-.1c.1,1.6,0,2.3-.3,3.3-.1.4-.2.8-.4,1.5"/>
            <path class="st2" d="M19.6,47.9c-.5,0-1,0-1.5-.1-.2,0-.3,0-.5,0-1-.1-2.4-.3-3.6-1.2-1.7-1.2-2.1-3.5-1.9-5.3.1-1,.4-1.8.9-2.5-.2-2.4-.8-6-1.1-6.8v-.3c-.2-.3-.3-.7-.2-1v-.3c.1-.9-1.1-5.2-1.5-7.1,0,0-.3-1-.4-1.4-1-.3-1.8-.9-2.4-1.4h0c-.1-.2-.2-.3-.3-.4h0c-1.5-2.4-.7-4.4-.1-5.8l.3-.7c.1-.3.3-.5.5-.7l.2-.2c1.5-1.4,3.5-2.5,5.9-3.3,2.2-.8,4.5-.8,6.3-.8s1.9.3,2.8.5c.4.1.6.2.9.2h.3c.3.1.6.3.9.5l2.7,2.3c2.3,2.1,2.4,6.2,2.1,8.1,0,1.1-.3,2.1-.6,3,.4.2.8.5,1.1.9,1.6,1.6,3.1,4.8,3,7.9,0,1.2,0,5.3-.7,7.4-.5,1.4-1,2.1-1.4,2.8-.1.2-.3.4-.5.7-1.2,1.9-2.8,3.2-4.8,3.9-1.1.5-2.4.6-3.6.8h-.4c-.7.1-1.3.2-2,.2"/>
            <path class="st2" d="M19.6,48.9c-.6,0-1.1,0-1.7-.1-.1,0-.2,0-.4,0h-.1c-1-.1-2.6-.3-3.9-1.3-2.1-1.4-2.6-4.2-2.3-6.3.1-1,.4-1.9.9-2.7-.2-2.4-.8-5.6-1-6.2l-.2-.5c-.1-.3-.2-.7-.1-1v-.5c0-1-1.1-5.3-1.5-6.8,0-.3-.1-.6-.2-.8-.9-.4-1.7-1-2.2-1.5l-.2-.2c-.1-.1-.2-.2-.3-.4v-.2c-2-2.7-.9-5.3-.4-6.6l.3-.9c.1-.3.3-.5.5-.7l.4-.3c1.6-1.4,3.7-2.6,6.3-3.5,2.4-.9,4.8-.9,6.6-.9s2.1.3,3,.6c.3,0,.6.2.8.2h.5c.3.2.6.3.9.5l2.9,2.6c2.6,2.4,2.7,6.7,2.4,9,0,.8-.2,1.7-.5,2.5.2.2.4.4.6.6,1.7,1.7,3.4,5.1,3.3,8.6,0,1.3,0,5.5-.8,7.8-.5,1.5-1.1,2.3-1.6,3-.1.2-.3.4-.5.7-1.3,2.1-3.1,3.5-5.3,4.3-1.2.5-2.6.7-3.9.8h-.4c-.7.1-1.4.2-2.2.2M17.1,42.7c.3,0,.8.2,1.1.2.3,0,.6,0,.8.1.2,0,.4,0,.6,0,.5,0,1,0,1.5-.1h.4c.9-.1,1.8-.2,2.2-.5,0,0,.2,0,.3-.1,1-.3,1.7-.9,2.4-1.9.2-.3.4-.6.6-.9.4-.6.6-.8.9-1.6.4-1.2.5-4.6.4-5.6,0,0,0-.2,0-.3,0-1.8-.9-3.8-1.6-4.5-.5-.5-1.1-.7-1.6-.9-.3-.1-.6-.2-.8-.3-.5-.2-.8-.7-1-1.2,0-.2,0-.4,0-.6-.4.5-1,.9-1.7.9h-.3c-.2,0-.4,0-.6,0-.4,0-.6,0-.7,0-.2.1-.5.2-.8.2s-.5,0-.7-.1c-.5-.2-1-.7-1.1-1.3-.1-.4-1.6-6.1-1.6-7,0-.9.5-1.8,1.4-2,.2,0,.4-.1.6-.2.5-.1.9-.3,1.5-.3s1.3.2,2.1.5c2.1.6,3.1,2.8,3.2,4.3,0,1-.4,2.6-.7,3.7.6-1.2,1.1-2.5,1.1-3.3s0-.2,0-.3c.3-1.6-.1-3.5-.5-3.9l-2.1-1.8c-.3,0-.6-.2-.9-.2-.5-.1-1.1-.3-1.3-.3-1.6,0-3.2,0-4.7.5-1.6.6-3,1.3-4,2.1h0c-.1.4-.3.8-.4,1.1,0,0,0,0,0,0,.2,0,.6-.1,1-.2h.2c.9,0,1.7.6,1.9,1.6.1.7.5,2.1.9,3.5,1.1,4,1.8,6.8,1.7,8.5.7,2.1,1.4,7.1,1.4,9.4,0,.6-.4,1.2-.9,1.6-.1.3-.1.9,0,1.2M21.1,41.5c-.1,0-.3,0-.4,0-.9-.1-1.5-.8-1.6-1.7,0,0-.2-1.3,0-2.3l-.6-4.1c0-.2,0-.5,0-.7,0-.3-.1-1.5-.2-1.8-.1-.5-.3-1.3,0-2,.2-.5.6-1,1.2-1.2.2,0,.7-.2,2-.2s2.1,0,3.1.4c0,0,.2,0,.3.1,1.4.8,2.2,2,2.4,3.3.4,3.3-.2,6.6-1.5,8.3-.1.2-.2.3-.4.4-.6.4-2.7,1.5-4.1,1.5"/>
            <path class="st2" d="M43.8,46.5c-4.6-.2-7.8-3-10.5-5.7l-.3-.3c-.5-.5-1.1-1.1-1.6-1.9-.2-.4-.4-.8-.5-1h0c-.1-.5-.2-.8-.4-1.1-.5-1.2-1-2.5-1.3-4.1h0c-.1-.3-.2-.6-.3-.8v-.2c-.1-.2-.1-.5-.1-.7v-.2c.5-5.1,1.3-10.9,6.1-14.5,1.9-1.5,4.2-2.3,6.4-2.3s4.2.7,5.8,2.1c0,0,0,0,.1.1.2.2.4.3.6.5.7.6,1.4,1.1,2,2,.2.3.4.5.7.9.7.8,1.6,1.9,2,3.4,0,.2.1.5.2.7.1.3.3.7.4,1.2.4,1.5,1,5.1-.5,7.5-.6.9-1.5,1.6-2.6,1.9l-1,.4c-.2,0-.5.2-.8.2s-.6,0-.8,0c-.8,0-1.8,0-2.9.2.2,0,.5.1.7.2l.9.2c.2,0,.4.1.6.2h.1c.1.2.2.2.4.3,1,.5,3.8,1.9,3,5.9h0c0,.5-.2,1-.4,1.5-.9,1.6-2.3,2.2-2.9,2.4-.1,0-.2,0-.3.1l-1.5.8c-.3.2-.6.2-.9.2s-.4,0-.4,0"/>
            <path class="st2" d="M43.7,47.5c-5.4-.2-9.2-4-11.2-6l-.3-.3c-.5-.5-1.3-1.2-1.8-2.1-.3-.5-.5-.9-.6-1.2h0c-.1-.4-.2-.7-.3-.9h0c-.5-1.3-1-2.7-1.3-4.3-.1-.2-.2-.5-.3-.8v-.4c-.2-.2-.2-.5-.2-.7v-.4c.5-5.4,1.4-11.4,6.5-15.2,2.1-1.6,4.6-2.5,7.1-2.5s4.6.8,6.5,2.3c0,0,.2.1.2.2.2.2.4.3.5.5.7.5,1.5,1.2,2.1,2.2.1.2.4.5.6.8.8.9,1.8,2,2.2,3.8,0,.2.1.4.2.7.2.4.3.8.4,1.3.4,1.6,1.1,5.6-.7,8.2-.7,1.1-1.8,1.9-3.1,2.3l-1.2.5c0,0-.1,0-.2,0,2.1,1.5,2.8,3.6,2.3,6.2h0c0,.5-.2,1.1-.5,1.8,0,0,0,0,0,0-1,1.9-2.7,2.5-3.4,2.8,0,0-.2,0-.2,0l-1.7.9c-.3.2-.6.2-.9.2s-.6,0-.6,0M33.6,30.4c.1.3.3.7.3,1.2.1,1,.5,1.9,1,3,.1.3.3.7.4,1v.2c.1,0,.2.2.2.3.2.3.5.6.8.9.1.1.2.2.4.3,2.1,2.1,4.2,4,6.8,4.3l.8-.4c.3-.2.7-.3.9-.4,0,0,.2,0,.2,0,0,0,0-.2,0-.2,0-.1,0-.2,0-.3-.1,0-.3-.2-.4-.2-.2,0-.4-.2-.6-.3l-.7-.2c-.1,0-.3,0-.4-.2,0,0,0,0,0,0h-.1c-.4,0-.8-.1-1.2-.4,0,0,0,0-.2,0-.4,0-.7-.1-1-.3-.9-.6-1.6-1.3-2.3-2-.2-.2-.4-.4-.6-.6-.2-.2-.4-.4-.5-.7,0-.2-.2-.5-.4-.7-.2-.3-.4-.7-.6-1.2-.2-.5-.2-1.2,0-1.7.3-.5.8-.9,1.3-1,4.2-.8,7.4-1.1,9.6-1.1h.2l.7-.3c0,0,.2,0,.2,0,.2-.6.1-2.3-.2-3.6,0,0,0,0,0-.1,0,0,0-.1,0-.2,0-.1-.1-.3-.2-.4,0-.2-.2-.5-.2-.8,0-.1,0-.2-.1-.3,0-.4-.5-.9-1-1.5-.4-.4-.8-.9-1.1-1.4-.1-.2-.6-.5-.9-.8-.3-.2-.6-.5-.9-.7-.8-.6-1.7-.9-2.7-.9s-2.4.5-3.5,1.3c-3.1,2.3-3.7,6.3-4.1,10.6M38,29c-.5,0-1-.2-1.3-.5-.4-.4-.7-1.1-.5-1.7.1-.8,1-4.9,3.8-6,.2,0,.4-.1.7-.1h.2c1.9.2,4,.6,5,1.9.9.9,1.8,2.8,1.2,4.2-.2.5-.6.9-1.1,1-1.2.4-3.2.6-5,.8-1,0-1.9.2-2.4.3-.1,0-.2,0-.3,0"/>
            <path class="st2" d="M59.6,48.2c-.1,0-.2,0-.3,0h-.2c-4.4-.8-5-4-5.4-5.7-.3-1.2-.6-2.7-.9-4.3-.5-2.7-1.2-6.6-2.2-7.9-1.3-1.7-1.2-3.3-1-5.4v-.8c0-.1,0-.3.1-.4h0c.7-2.2,2.6-4.4,5.4-4.4s2.2.4,3.3,1.1h.1c.2.2.3.4.5.5h0c1.3,1.8,2.2,3.6,2.8,5.4.2-.1.3-.3.5-.4h.2c.2-.3.4-.4.7-.5h.2c1-.4,2-.5,2.9-.5,2.7,0,4.5,1.3,5.7,2.8,0,0,0-.1,0-.2,0-.4,0-.6.1-.9-.3-2.4,1.1-3.9,1.8-4.6l.3-.4c0-.1.2-.2.3-.3h0c.8-.7,2-1.4,3.7-1.4s1.8.2,3,.5h.2c.2.1.5.3.7.4h.2c1.7,1.5,2.9,4.5,1.7,7.7h0c0,.2-.1.4-.2.5h0c-.9,1.5-1.3,3-1.7,4.9-.3,1.4-.6,2.8-1.2,4.2-.7,3.4-2.7,6.2-5.8,7.9l-.3.2c-.3.2-.6.2-.9.2s-.3,0-.4,0h-.4c-2.5-.6-4.5-2.3-6-4.2-.9,2.2-2.7,5.2-6.9,5.9h-.2c0,0-.2,0-.3,0"/>
            <path class="st2" d="M59.6,49.2c0,0-.2,0-.3,0h-.3c-5.1-.9-5.9-4.8-6.2-6.5-.3-1.3-.6-2.8-.9-4.4-.5-2.4-1.2-6.4-2.1-7.5-1.5-2-1.4-4-1.2-6.1v-.8c0-.1.1-.3.1-.4v-.2c1-3,3.5-5,6.4-5s2.6.4,3.9,1.2l.3.2c.2.1.3.3.5.4l.2.3c1,1.2,1.8,2.6,2.4,4.2.1,0,.2-.1.3-.1h.4c1.1-.4,2.2-.6,3.2-.6,2.1,0,3.6.6,4.8,1.5.2-2,1.4-3.4,2.1-4.1l.4-.4c0-.1.2-.2.3-.3h.2c1-.8,2.3-1.6,4.3-1.6s1.9.2,3.2.6h.4c.2.2.5.3.7.5l.3.3c2,1.6,3.4,5,2,8.7v.2c-.1.1-.2.2-.3.4v.2c-.9,1.2-1.3,2.7-1.7,4.5-.3,1.3-.6,2.8-1.2,4.3-.8,3.7-2.9,6.6-6.3,8.5l-.7.4c-.3.2-.6.2-.9.2s-.3,0-.4,0l-.7-.2c-2-.4-3.9-1.5-5.6-3.2-1.1,2.1-3.2,4.4-7,5.1h-.3c0,0-.2,0-.3,0M54.4,25.1c0,1-.1,1.9,0,2.1,1.7,2.2,2.5,6.1,3.2,10,.3,1.5.6,3,.9,4.1,0,0,0,.1,0,.2.3,1.5.3,1.7,1.1,1.8,2-.5,2.7-2.2,3.3-4.2,0-.2.1-.3.2-.5.7-1,1.2-2.4,1.7-3.6.3-.7,1-1.2,1.8-1.2h0c.8,0,1.5.5,1.8,1.2,1.1,2.5,2.9,5.4,5.1,6.3,1.6-1,2.5-2.5,2.8-4.4,0-.2,0-.3.1-.4.5-1.2.8-2.4,1.1-3.8.5-2,.9-4.1,2.2-6.2.2-.7,0-1.3-.2-1.7-.5-.1-.8-.2-1.1-.2s-.4,0-.8.3c0,0-.1.1-.2.2-.2.2-.5.5-.6.7,0,0,0,0,0,.1,0,.3,0,.7,0,1,0,.2,0,.6-.2,1-.4,3-.9,6.5-2.4,8.5-.3.5-.9.8-1.5.8h0c-.6,0-1.1-.3-1.5-.7-.8-.9-1.3-2.1-1.7-3.2-1.1-2.6-1.8-3.8-3.4-3.8s-.7,0-1.1.1c-.9.9-1.5,2.8-2,4.2-.1.3-.2.6-.3.9-.3.8-1,1.3-1.8,1.3h-.1c-.8,0-1.6-.6-1.8-1.5-.2-.7-.3-1.5-.5-2.2-.7-3-1.3-5.9-3.1-8.4-.1,0-.3-.1-.4-.1-.2,0-.5.3-.7.7v.4s0,0,0,0Z"/>
            <path class="st2" d="M94.6,47.5c-2.9,0-5.7-1-9.4-3.5l-.2-.2c-.3-.2-.6-.5-.7-.9v-.3c-.3-.5-.5-.9-.7-1.3-.6-1.1-1.1-2.2-1.3-4.4,0,0,0,0,0,0-.1-.3-.2-.6-.3-.9v-.2c-.2-.2-.2-.5-.2-.8v-.2c.3-3.5.9-10,5.9-13.6,1.9-1.4,4.1-2.1,6.1-2.1s.3,0,.5,0c2.8,0,5.3,1.6,6.9,4.1.1.1.3.2.3.3.6.5,1.9,1.5,1.6,3.3,0,.4.1.8,0,1.3l.4.8c.1.2.2.4.2.6v.2c0,.4.1.7.1.9,0,.1,0,.3.2.7v.3c.2.4.2.8.1,1.1v.3c-.2.3-.2.5-.2.7-.2.7-.4,1.7-1.5,2.8h0c0,.2-.2.2-.3.3h0c0,.1-.4.3-.7.4,1.7,1.6,1.8,3.3,1.8,4.1v.2c0,.2,0,.4-.1.6v.2c-.5,1-.9,2-2.1,2.8-.1.2-.3.3-.4.4l-.8.7c-.2.2-.4.3-.7.4h-.2c-1.6.6-3,.9-4.4.9"/>
            <path class="st2" d="M94.6,48.5c-3.1,0-6.1-1.1-9.9-3.7l-.5-.3c-.3-.2-.6-.5-.7-.9l-.2-.6c-.2-.5-.4-.8-.6-1.2-.6-1.1-1.1-2.3-1.4-4.5-.1-.3-.2-.6-.4-.9v-.4c-.2-.2-.2-.5-.2-.8v-.4c.4-3.7,1-10.5,6.4-14.4,2.1-1.5,4.4-2.4,6.7-2.4s.4,0,.5,0c3.1,0,5.8,1.7,7.7,4.4,0,0,.2.1.3.2.6.5,2.2,1.8,1.9,4,0,.4,0,.7,0,1l.4.7c.1.2.2.4.2.6v.4c.1.4.2.7.2,1,0,.1,0,.3.2.5l.2.6c.1.4.1.8,0,1.1l-.2.6c0,.3-.1.5-.2.7-.2.8-.4,2-1.8,3.3l-.2.2s0,0-.1,0c1.1,1.5,1.2,3.1,1.2,3.8v.3c0,.2,0,.4-.1.6v.4c-.6,1.1-1.1,2.2-2.4,3.2-.1.2-.3.3-.4.5l-.9.8c-.2.2-.4.3-.7.4h-.4c-1.7.7-3.2,1-4.8,1M88.4,40.2c2.6,1.7,4.5,2.4,6.2,2.4s1.6-.1,2.5-.4h0c.3-.7.7-1,1.2-1.1h0s0,0,0,0c0-.1-.2-.3-.6-.5h0c-.2,0-.5.1-.7.1s-.3,0-.4,0c0,0,0,0-.1.1-.3.2-.7.6-1.3.9-.2,0-.3.1-.5.2-.3,0-.5,0-.8,0-1,0-1.8-.4-2.9-1-.4-.2-.7-.5-.8-.9,0-.2-.6-1-.9-1.4-.3-.4-.5-.8-.6-1-.3-.5-.3-1.2,0-1.8.3-.6.8-1,1.4-1.1l1.2-.2c2-.4,3.9-.8,6-.8h.2c.2-.1.5-.2.8-.3,0,0,.1,0,.2,0,.2,0,.3-.2.5-.2.1,0,.4-.2.7-.3,0,0,0-.3.1-.5-.2-.8-.3-1.1-.3-1.6l-.4-.7c-.1-.2-.2-.5-.2-.7,0,0,0-.1,0-.2-.1-.4-.2-.8,0-1.1,0-.2,0-.2,0-.4,0,0,0,0,0-.1,0-.2,0-.3,0-.5-.2-.1-.3-.3-.6-.5-.2-.1-.3-.3-.4-.5-.8-1.4-1.9-2.1-3.2-2.2h-.3c-1,0-2.2.4-3.2,1.2-2.8,2.1-3.5,5.9-3.9,9.7,0,0,0,0,0,0,.1.3.3.6.4,1,0,0,0,.2,0,.3.2,1.5.4,2.1.9,3.1.1.3.3.6.4,1M89.8,33.9c-.4,0-.8-.1-1.1-.4-.5-.4-.8-.9-.8-1.5v-1.6c0-.2,0-.3,0-.5.8-2.9,2.6-3.7,4-4.2h.3c.2-.2.5-.3.8-.3h.1c1.9.1,3.2,1,3.9,2.5.8.9.9,2,1,2.4,0,.1,0,.2,0,.4s0,.2,0,.3c0,.4,0,.9-.3,1.2-.3.5-.8.8-1.4.9l-1.8.3c-.9.3-1.7.3-2.5.3s-1.2,0-1.8.2c-.2,0-.4,0-.6,0"/>
            <path class="st2" d="M115.6,68.1c-.3,0-.6,0-.9,0-.2,0-.3,0-.5,0h-.4c-.3,0-.5,0-.7,0-.4,0-1.1,0-1.8-.2-4.1-.9-6.6-4.7-8.2-7.2-1.8-3-2.2-7.2-1.1-11.1.7-2.3,1.8-4.2,3.4-5.6-.1-.8-.2-1.8,0-2.9,0-.8.3-1.6.5-2.3-2.4-2.2-3.9-5.1-4.2-8.3,0-.6-.1-1.5,0-2.4.1-.9.6-1.8.9-2.5l.2-.4c.6-1.4,4.3-8.9,10.3-9.6.2,0,.3,0,.5,0,.6,0,1.3.1,2.1.2.8-1.9,2-3.8,2.8-4.7,1-1.1,2.5-1.7,4.4-1.7s.9,0,1.3,0c2.7.4,4.3,2.2,4.3,4.6,0,1.7-.4,4.1-2.2,5.3,0,0,0,0-.1,0-.3.2-.6.3-.9.5.8.8,1.4,1.6,1.8,2.6,1.5,2.2,1.2,4.6,1.1,6.4,0,.5-.1,1-.1,1.4v.4c0,.4-.2.9-.4,1.2l-.2.3c-.3.4-.5.9-.8,1.5-.4,1-.9,2.1-1.9,3.2-1.9,3.2-6.6,4.2-9.2,4.5,0,.1,0,.2,0,.3h0c1.9.5,4.3,1.3,5.7,2.1,1,.6,1.7,1.3,2.2,1.9,3.6,3.9,3.2,9.1,2.9,12.9v1.1c0,.3-.2.6-.3.8v.2c-2.6,4.2-5.7,6.7-9.2,7.2-.3,0-.7,0-1.2,0M113.8,55.5c.4,0,.8,0,1,0s.2,0,.3,0c0-.1,0-.3,0-.4-.2-.2-.4-.4-.6-.7-.6-.7-1-1.2-1.3-1.6-.2.6-.3,1.1-.4,1.5.1.3.3.7.6,1.1.2,0,.3,0,.5,0M114.1,30.1c.2,0,.3,0,.5,0,.3-.1.7-.3,1-.4l.8-.7c0-.1,0-.3-.1-.5,0-.1-.3-.3-.5-.3-.5,0-1-.2-1.4-.3-.5.5-.8.8-1,1.1.3.5.5.9.7,1.2h.1"/>
            <path class="st2" d="M115.6,69.1c-.3,0-.7,0-1,0-.2,0-.3,0-.4,0s-.3,0-.4,0c-.2,0-.4,0-.7,0-.5,0-1.2,0-2-.2-4.6-1.1-7.1-5.1-8.8-7.7,0,0,0,0,0-.1-1.9-3.1-2.3-7.7-1.2-11.8.7-2.3,1.8-4.2,3.3-5.7,0-.8-.1-1.7,0-2.6,0-.7.2-1.3.4-1.9-2.3-2.3-3.8-5.3-4.1-8.5,0-.7-.2-1.6,0-2.7.2-1.1.6-2,1-2.7l.2-.3c1-2.2,4.7-9.5,11.2-10.2.2,0,.4,0,.7,0,.5,0,.9,0,1.5.1.8-1.8,1.9-3.4,2.7-4.2,1.2-1.3,3-2,5.2-2s.9,0,1.4,0c0,0,0,0,.1,0,3.1.5,5.1,2.7,5.1,5.6,0,1,0,4.4-2.6,6.2.5.6.8,1.2,1.1,1.8,1.6,2.4,1.4,5.1,1.2,7,0,.5,0,1,0,1.3v.7c0,.4-.1.9-.4,1.2l-.4.6c-.2.2-.4.7-.7,1.3-.4,1-1,2.2-2,3.4-1.4,2.3-4.1,3.6-6.6,4.2,1.1.4,2,.8,2.7,1.2,1.1.7,1.8,1.4,2.4,2,0,0,0,0,0,0,3.8,4.1,3.4,9.6,3.1,13.6v1.4c-.1.3-.2.6-.3.8l-.2.4c-2.7,4.5-5.9,7.1-9.8,7.7-.4,0-.9.1-1.4.1M114.2,63.2c.3,0,.6,0,.8,0,.2,0,.4,0,.6,0s.3,0,.4,0c2.4-.4,4.3-2.6,5.5-4.5v-.4c.3-3.3.5-7-1.5-9.2-.4-.4-.8-.8-1.3-1.1-1-.6-4.5-1.7-5.8-1.8-.7,0-1.2-.5-1.5-1.1-.6-1.4-.8-2.7-.7-3.9.2-1.2.7-2.3,1-3,0-.1,0-.2.1-.3.3-.7,1-1.2,1.8-1.2,2.8,0,6.4-1.1,7.1-2.3,0-.2.2-.4.4-.5.5-.5.8-1.2,1.1-2,.3-.6.6-1.4,1.1-2.1,0-.4,0-.8,0-1.2.2-1.6.2-2.7-.4-3.4-.2-.3-.4-.6-.4-.9-.2-.6-2-2-2.6-2.5h-.2c-.4-.4-.7-.9-.7-1.4-.1.1-.3.2-.5.3-.3.1-.7.2-1.1.2-.7,0-1.5-.1-2.4-.3-.6,0-1.3-.2-1.6-.2-2.3.3-5,3.6-6.4,6.8,0,.2-.2.3-.2.5-.2.4-.4.9-.5,1.1,0,0,0,0,0,.1,0,.2,0,.8,0,1.1.2,2.4,1.6,4.6,3.9,6.1.7.4,1,1.3.8,2,0,.4-.2.8-.4,1.3-.2.7-.5,1.5-.6,2.1,0,.9.1,2,.3,2.8,0,.2,0,.4.1.6.1.8-.3,1.7-1,2-1.3.6-2.2,2-2.8,3.9-.7,2.5-.5,5.5.6,7.2,1.3,2,2.9,4.6,5.2,5.1.2,0,.4,0,.6,0s.3,0,.4,0c.2,0,.4,0,.7,0M122.9,14.3c-.2,0-.8,0-.9.2-.5.5-1.4,2-1.8,3.1.9-.9,2.1-1.5,3-1.9.1,0,.3-.1.4-.2,0-.2.2-.6.2-1.1h0c-.2,0-.5,0-.7,0M114.8,60.5c-.6,0-1.2,0-1.9-.2,0,0-.2,0-.2,0,0,0-.2,0-.3,0-.5,0-.9,0-1.3-.3-.1,0-.2-.1-.4-.2-1.1-.9-2.7-3.4-2.8-5.1-.1-1.2,1.2-4.9,1.2-4.9.2-.4.4-.7.8-.9.1,0,.2-.1.3-.2.5-.4,1.4-.9,2.6-1.1h.2c2.1,0,3.8,2.1,5.3,3.9.4.4.7.9.9,1.1.3.3.5.7.6,1.2,0,.1,0,.3,0,.5.2,1.2.4,2.9-.7,4.3-1.1,1.4-2.5,2-4.3,2M112.8,35.1c-.2,0-.4,0-.6,0-1.1-.4-2.1-1.5-3.4-4.3-1.6-3,1.5-5.9,3-7.2l.3-.3c.3-.3.7-.5,1.2-.5h.2c.7,0,1.3.2,2,.4.2,0,.5.2.6.2,2.2.1,4.3,1.9,4.8,3.9.5,1.7.8,3.5-1.2,5.3l-1.1,1c-.5.4-2.8,1.5-3.7,1.5s-.2,0-.3,0c-.2,0-.4,0-.5,0-.3,0-.7,0-1,0,0,0-.2,0-.3,0M114.5,29.1c0,0,.1,0,.2,0,0,0,0,0,0,0,0,0,0,0,0,0,0,0,0,0,0,0"/>
            <path class="st2" d="M141.2,46.1c-1.2,0-2.3-.3-3.4-1h-.2c-.2-.2-.4-.4-.6-.6v-.2c-1,.3-2,.4-2.9.4s-.4,0-.6,0h-.2c-.3,0-.5,0-.8-.2l-.8-.4c-.6-.1-1.2-.4-1.7-.7-1.4-.4-2.9-1.6-3.3-4.3l-.2-.3c-.2-.3-.4-.6-.4-1v-.3c-.3-1.5-.3-4.6-.4-7.5,0-1.8,0-3.6-.2-4.6-.2-2.3.9-4.1,3.2-5.4h.1c.1-.1.3-.2.5-.2h.1c.4-.1.9-.2,1.3-.2,1.8,0,4,.8,5.1,2.6v-.2c.2-.2.4-.5.7-.6h.2c1.4-1.2,3.1-1.7,4.6-1.7,2.4,0,4.4,1.5,5.2,4h0c0,.3,0,.5,0,.6h0c0,.6,0,1,.2,1.5.2,1,.4,2.2.1,3.7,0,.6,0,1.5-.3,3.7v.3c0,.4-.1.8-.1.9,0,.1,0,.3,0,.5,0,.2,0,.3,0,.5,0,0,0,.2,0,.3,0,1.4.1,1.9.2,2v.2c.2.2.2.5.2.7.5,1.2.7,3.1-.9,5.4h0c-.1.2-.2.4-.4.5h-.1c-.5.5-2.1,1.8-4.3,1.8"/>
            <path class="st2" d="M141.2,47.1c-1.4,0-2.7-.4-3.9-1.2l-.4-.2c-.1,0-.2-.2-.4-.3-.8.2-1.6.3-2.4.3s-.4,0-.6,0h-.4c-.3,0-.5-.1-.8-.2l-.9-.4c-.6-.2-1.2-.4-1.8-.7-1.3-.5-3.2-1.7-3.8-4.8l-.2-.3c-.2-.3-.4-.6-.4-1v-.6c-.3-1.6-.4-4.5-.5-7.6,0-1.8,0-3.6-.2-4.6-.1-1.9.4-4.5,3.8-6.3h.2c.1-.2.3-.3.5-.3h.3c.5-.2,1-.2,1.6-.2,1.7,0,3.7.6,5.1,2l.2-.2c1.6-1.1,3.5-1.8,5.2-1.8,2.9,0,5.3,1.8,6.2,4.8v.3c.1.2.2.3.2.5v.3c0,.4,0,.8.2,1.2.2,1.1.4,2.4.1,4,0,.6,0,1.6-.3,3.7,0,.4,0,.9-.1,1.1,0,.2,0,.3,0,.5,0,.1,0,.3,0,.3h0c0,.2,0,.2,0,.3h0c0,1.4.1,1.7.1,1.8v.4c.2.2.3.5.3.7.5,1.3.7,3.5-1.1,6.1l-.2.2c-.1.1-.2.3-.4.4l-.2.2c-.6.5-2.4,1.9-5,1.9M140.8,41.2c.1,0,.3,0,.4,0,.4,0,.7-.2,1-.5.2-.3.2-.5.2-.5-.3-.4-.4-.9-.4-1.4v-.2c-.2-.8-.3-1.8-.3-3,0-.4,0-.7,0-1,0-.1,0-.3,0-.4,0-.2,0-.5.1-1.6,0-.9.3-2.7.3-3.2,0-.2,0-.4,0-.6.2-.7,0-1.4-.1-2.3,0-.5-.2-1.1-.2-1.8-.1-.4-.3-.4-.5-.4-.4,0-.9.2-1.4.5-.2.5-.1.8.2,1.8,0,.2,0,.5,0,.7,0,.3,0,1.1,0,1.9,0,3.9-.2,5.8-.8,6.9-.5,1-1.6,1.3-2.3,1.5-.1,0-.2,0-.3,0-.1,0-.4.1-.5.2h-.1c-.4,0-1,.2-1.6.2s-.8,0-1.2-.2c-.5-.2-.9-.7-1.1-1.2-.7-2.4-.2-9.1,0-11l-.4-.9c-.1-.1-.6-.3-1-.3-.5.3-.5.4-.4.6,0,1.1.1,2.9.2,4.9,0,2.3.1,5,.2,6.4h0c.3.4.9,1.1.7,1.9,0,.3,0,.5.1.6.3,0,.7.2.9.5,0,0,.2.1.3.1.2,0,.5,0,.7.2l.6.3c1.1,0,2.2-.4,3.1-1.1.3-.2.7-.4,1.1-.4s.6,0,.9.2c.6.3,1,.9,1,1.5,0,.1.1.3.2.4,0,.1,0,.3.2.6"/>
            <path class="st2" d="M150.9,48.4c-1.6,0-3-.8-4.2-2.2l-.2-.3c-.3-.3-.4-.7-.4-1.1v-.3c-.2-2.8-.4-5.3-.8-7.7l-.2-1c-.3-1.6-.5-3.2-.7-4.9-.7-1.5-.6-3.2.2-4.9h0c.2-1.6.9-2.6,1.4-3.2,1-1,2.4-1.6,3.9-1.6,2.2,0,4.5,1.1,5.9,3,.1.2.2.3.4.5,0-.2,0-.4.1-.5.6-3,3.1-3.9,4.5-4.5h.3c.2-.2.5-.2.7-.2s.2,0,.4,0h.3c5.9,1.2,5.5,6,5.3,7.5,0,.2,0,.6,0,.7h0c0,.2,0,.4,0,.5v9.4c0,.4,0,.7,0,1,.1,1.5.4,3.8-2.4,6l-.2.2c-.2.2-.5.3-.8.4h-.2c-.3.1-.6.2-.8.2-.7.2-1.3.3-1.9.3-1.9,0-3-1.2-3.3-1.5-.4-.4-.8-.8-1.2-1.3,0,.9-.3,2.1-1.4,3.2-1.1,1-2.6,2.3-4.7,2.3"/>
            <path class="st2" d="M150.9,49.4c-1.3,0-3.2-.5-5-2.6l-.4-.5c-.3-.3-.4-.7-.4-1.1v-.7c-.2-2.7-.4-5.3-.8-7.6l-.2-1c-.2-1.5-.5-3.2-.7-4.8-.5-1.3-.8-3.2.3-5.5.3-1.7,1.1-2.9,1.7-3.5,1.2-1.2,2.8-1.9,4.6-1.9s4.2.9,5.9,2.4c1.1-2.5,3.5-3.4,4.7-3.9l.6-.2c.2,0,.4-.1.7-.1s.2,0,.4,0h.6c4.6,1,6.6,3.9,6.1,8.7,0,.2,0,.4,0,.5h0c0,.2,0,.3,0,.5v9.5c0,.3,0,.6,0,.9.1,1.5.4,4.3-2.8,6.9l-.4.3c-.2.2-.5.3-.8.4h-.5c-.3.2-.6.2-.8.3-.7.2-1.4.3-2.2.3-1.5,0-2.8-.6-3.9-1.7-.3.6-.7,1.2-1.4,1.9-1.1,1-2.9,2.6-5.4,2.6M150.7,43.4c.1,0,.2.1.2.1.2,0,.9-.6,1.2-.9,0,0,0,0,0-.1,0-.3-.2-.7-.2-1.2v-1c0-.7-.2-1.6-.4-2.5-.2-1.2-.5-2.4-.5-3.6v-.5c0-.8.6-1.6,1.4-1.8.2,0,.4,0,.6,0,.4,0,.7.1,1,.3.6.3,1,.9,1.3,1.6,1.2,1.1,2.7,2.8,4.1,4.5.9,1,1.6,2,2.2,2.5,0,0,0,0,0,0,.2,0,.4,0,.6-.1.1,0,.3,0,.5-.1.4-.3.4-.5.3-1.4,0-.4-.1-.9-.1-1.5v-9c-.1-.7,0-1.4,0-2,.1-1.5.2-1.8-.9-2.1-.8.3-.9.5-1,.8,0,0,0,0,0,.1-.2.8,0,1.7.2,2.8.2.9.4,1.9.4,2.9l.5,2.9c.1.9-.4,1.8-1.2,2.1-.2,0-.4.1-.6.1-.7,0-1.3-.3-1.6-.9-.4-.7-1.4-1.8-2.3-2.8-1.1-1.3-2.1-2.5-2.8-3.5-.6-.5-1.1-1.1-1.5-1.7-.6-.7-1.5-1.1-2.1-1.1s-.4,0-.4.1c0,0-.2.3-.1.8,0,.5-.2,1-.6,1.4h0c-.1.4,0,.5,0,.6.2.3.3.6.3.9.1,1.7.4,3.3.7,5.1l.2,1.1c.3,2.3.6,4.8.8,7.5"/>
            <path class="st2" d="M178.8,50.9c-.2,0-.5,0-.7-.2l-.4-.2c-2-.8-4.1-1.7-5.8-2.9-.2-.2-.4-.3-.6-.4-1.4-.9-3.2-2.2-4.1-4.1,0,0-.1-.2-.1-.3-.2-.6-.5-1.2-.7-1.8-.6-1.2-1.2-2.7-1.3-4.2-.1-1.3,0-2.4,0-3.5,0-.5,0-.8.1-1.3.2-2.7.8-4.9,1.3-6.7.9-2.7,2.9-6.9,5.9-9.8,1.4-1.3,3.1-2.2,3.8-2.6h.2c.2-.2.5-.3.8-.3h.2c.2,0,.4,0,.7,0,.7,0,1.4,0,2.1,0s1.3,0,1.8.1h.3c1.7,0,2.9.9,3.6,1.3,3.3,2.3,4.4,5.4,2.9,7.8,0,0,0,0,0,0-.1.2-1.5,2-3.8,2.9h0c-.7.2-1.4.4-2.1.4s-1.6-.1-2.3-.4h-.3c-.2-.2-.4-.4-.6-.5-.1,0-.2.1-.3.1-.4.5-.8,1.1-1.2,1.7.8-.2,1.8-.4,2.7-.4s.4,0,.7,0c1.1-.1,2.1-.3,3.2-.3h.2c1.4-.5,2.4-.7,3.4-.7s1.8.2,2.6.6c0,0,.2.1.3.2,1.2.9,1.9,2.1,2.4,3.8v.2c.1.3.1.6,0,.8v.2c-.3,1.2-.6,2.5-1.5,3.6-1.1,1.3-2.4,1.7-3.4,2,0,.8,0,1.6-.1,2.6,0,.4,0,.8,0,1.2.2,2.5.3,4.3-1.2,6.4-.7,1.2-1.4,2.2-2.6,3-1.4,1-3.2,1.5-5.4,1.5s-.7,0-.7,0M176.6,37c0,.5.2.7.2.8h.4c.5.2.9.5,1.1.9h0c0-.3,0-.7,0-1.1-.7,0-1.3-.3-1.9-.6h0"/>
            <path class="st2" d="M178.6,52c-.2,0-.5,0-.7-.2l-.5-.2c-2-.8-4.2-1.8-6-3.1-.2-.1-.4-.2-.5-.4h0c-1.4-1-3.4-2.4-4.4-4.5h0c0-.2,0-.3,0-.3h0c-.2-.6-.4-1.2-.7-1.8-.6-1.3-1.2-2.8-1.4-4.5-.1-1.4,0-2.6,0-3.7,0-.4,0-.8.1-1.2.2-2.9.8-5.1,1.4-6.9.9-3,3.1-7.2,6.2-10.2,1.4-1.4,3.3-2.4,4.1-2.7l.4-.2c.2-.1.5-.2.8-.2h.4c.2,0,.4,0,.6,0,.6,0,1.4-.1,2.2-.1s1.3,0,1.8.1h.2c2.1,0,3.5,1,4.2,1.5,3.8,2.6,5,6.3,3.2,9.2,0,0,0,.1-.1.2-.1.2-.4.6-.9,1.1,1,0,1.9.3,2.7.8h.1c0,.1.1.1.2.2h.1c1.3,1,2.2,2.5,2.7,4.4v.4c.2.3.2.6.1.8v.5c-.3,1.2-.7,2.8-1.8,4.1,0,0,0,0,0,0-1,1.1-2.1,1.7-3.1,2,0,.6,0,1.2-.1,1.9,0,.4,0,.7,0,1,.2,2.5.3,4.7-1.4,7-.8,1.3-1.6,2.3-2.9,3.3-1.6,1.1-3.5,1.7-6,1.7s-.9,0-.9,0M171.7,41.2c.4.7,1.6,1.5,2.4,2.1.2.2.5.3.7.5,1.2.9,3,1.6,4.7,2.3,1.1,0,2-.2,2.5-.6.4-.3.8-.8,1.3-1.7,0,0,0-.1.1-.2.4-.6.5-.9.3-3.2,0-.5,0-1-.1-1.7,0-.2,0-.4,0-.6.2-.6.1-1.2,0-2,0-.6-.1-1.3,0-2.1,0-.8.7-1.6,1.5-1.8.1,0,.3,0,.4-.2.3-.1.7-.3,1.1-.4h.3c.8-.2,1.1-.3,1.3-.5.1-.1.2-.5.4-1,0-.3-.2-.5-.3-.6h-.1c-.7,0-1.9.5-2.3.6-.2,0-.5.1-.7.1h-.2c-.2,0-.3,0-.5,0-.9,0-2,.1-3,.3,0,0-.2,0-.3,0-.2,0-.4,0-.5,0-.6,0-1.4.2-1.7.3,0,0,0,0,0,0,0,.2-.1.5-.2.8,0,.2,0,.3-.1.5,0,.1,0,.2,0,.3,0,0,.2.1.4.2h0c.1,0,.4,0,.6,0,.4,0,.8-.2,1.3-.2s.5,0,.7,0c.9.2,1.5.9,1.6,1.8,0,2.8,0,5.8-.4,8.1-.1.9-.9,1.6-1.8,1.7-.1,0-.3,0-.4,0-1.3,0-4.2-.2-5.8-2-1.7-.8-2.9-2.5-3.1-4.8,0-.2,0-.5,0-.8-.2-2-.4-3.7.2-5,0,0,0,0,0-.1,0-.2.1-1.1.1-1.7,0-.9,0-1.6.3-2.3.6-2.8,2.4-5.2,3.7-6.8.4-.4.8-.7,1.4-.9.2-.1.5-.3,1.1-.5.2,0,.4-.2.5-.2.2-.1.3-.2.5-.2.2,0,.5-.1.7-.1,1.3,0,2.1.8,2.6,1.5h0c.2,0,.3,0,.5,0,.5-.2.9-.6,1.2-.8-.2-.3-.7-.9-1.5-1.5-.3-.2-.6-.4-.8-.4-.1,0-.3,0-.4,0-.2,0-.4,0-.6,0,0,0-.3,0-1,0s-1.2,0-1.7,0c-.1,0-.2,0-.4,0-.8.4-1.7,1-2.3,1.6-2.2,2.1-3.9,5.4-4.6,7.7-.6,2.1-1,3.8-1.1,5.6,0,.5,0,1-.1,1.4,0,.9-.2,1.7,0,2.5,0,.7.5,1.8,1,2.8.3.7.6,1.3.8,2"/>
            <path class="st2" d="M197.6,54.8c-1.4,0-2.6-.4-3.8-1.1-3.4-1.6-3.9-4.1-3.9-5.4v-.2c0-.2,0-.4,0-.5h0c0-.4.1-.7.2-.9.3-1.1.6-2.2,1.7-3.6h.1c.1-.3.3-.4.5-.5h.1c.7-.5,1.5-.8,2.4-.8s1.1,0,1.6.2c-.1-.2-.2-.5-.2-.8v-.3c-.1-1.4-1.1-3-2.4-4.7l-.5-.7c-.8-1.1-1.6-2.3-2.2-3.7h0c0-.2-.1-.4-.1-.5h0c-.2-1.1-.4-1.7-.6-2.3-.7-2.1-.9-3.4,0-6.8,1-4,3.5-7.7,5.8-10.7h.1c.1-.3.3-.5.5-.6h.2c.2-.2.5-.4.8-.6,1.6-1,3.6-2.3,5.8-2.3s4.4.9,5.9,4.9v.2c.2.2.2.5.2.8v.2c-.2,4.5-2.9,5.4-4.4,5.9-.5.2-.8.3-1.1.5-.5.7-1.2,1-1.8,1.3-.5.6-.9,1.9-.9,2.3h0c0,.3,0,.5,0,.7v.2c-.1,1.9,1,3.6,2.4,5.8v.2c1.9,2.7,4.1,6.1,4.1,10.8s0,1.3-.1,2.6v.9c0,.2,0,.3-.1.4h0c0,.4-.1.7-.2.9-.4,1.7-.8,2.7-3,4.9-2,2.1-4.7,3.4-7.1,3.4"/>
            <path class="st2" d="M197.6,55.8c-1.5,0-3-.4-4.2-1.2-4-1.9-4.4-5-4.4-6.3v-.3c0-.2,0-.4,0-.5v-.3c.2-.3.2-.5.3-.7.3-1.1.7-2.4,1.9-3.9l.2-.3c.1-.2.3-.3.5-.4l.3-.2c.9-.5,1.9-.8,2.9-.8h.3c-.2-1.1-1.1-2.5-2.1-3.9l-.4-.6c-.8-1.1-1.7-2.4-2.3-3.9v-.2c-.1-.1-.2-.2-.2-.4v-.2c-.2-.9-.4-1.5-.6-2.1-.7-2.2-.9-3.7,0-7.4,1.1-4.2,3.6-7.9,6-11.1l.2-.3c.1-.2.3-.3.5-.5l.3-.2c.2-.1.5-.3.7-.5,1.7-1.1,3.8-2.5,6.4-2.5s5,.7,6.9,5.5v.4c.2.2.3.5.3.8v.4c-.3,5.2-3.6,6.3-5,6.8-.4.1-.6.2-.7.3-.6.7-1.3,1.1-1.8,1.3-.2.4-.5,1-.6,1.4h0c0,.3,0,.5,0,.7v.3c-.1,1.5.9,3.1,2.2,5.1v.2c1.9,2.8,4.2,6.4,4.2,11.4s0,1.4-.1,2.7v.9c0,.2,0,.3-.1.4v.2c-.2.3-.2.5-.3.7-.5,1.9-1,3.1-3.3,5.4-2.2,2.3-5.1,3.7-7.9,3.7M194.8,48.4c.1.4.8.7,1.2.9.1,0,.2.1.4.2.4.3.8.4,1.2.4,1.1,0,2.6-.8,3.6-1.9,1.5-1.5,1.6-1.8,1.8-2.7,0-.2.1-.5.2-.8v-.5c.1-1.2.1-1.8.1-2.3,0-3.3-1.5-5.7-3.2-8.2v-.2c-1.8-2.5-3.5-5.1-3.3-8.5-.4-2.4,1.2-5.5,2.4-6.6.4-.4.8-.6,1.2-.8,0,0,.1,0,.2-.1h0c1.1-1.2,2.2-1.6,3.1-1.9.9-.3,1-.4,1.1-1.2-.3-.6-.7-1.4-1.2-1.4-.8,0-2.1.9-3.1,1.5-.2.1-.4.2-.5.3-1.9,2.6-4,5.6-4.8,8.7-.6,2.5-.5,2.9,0,4.2.2.6.4,1.4.7,2.5.4.9,1,1.8,1.7,2.7l.5.7c1.2,1.7,2.8,4,3.2,6.7.8,1.4.5,3.1.5,3.3-.3,1.7-1.9,3.4-3.4,3.8-.2,0-.5.1-.8.1-.6,0-1.1-.2-1.5-.4-.1,0-.4-.2-.6-.2-.2.3-.2.7-.4,1.2,0,.2,0,.3-.1.5"/>
            <path class="st2" d="M228.4,57.9c-2.3,0-4.5-1.5-5.5-3.7h0c0-.2-.1-.4-.1-.5h0c-.5-2.3-1.1-3.7-1.9-5.8-.2,1.3-.8,2.6-1.6,4v.2c-.2.2-.4.3-.5.5h-.1c-1.1.9-2.4,1.4-3.8,1.4s-3.1-.6-4.3-1.6l-.2-.2c-.2-.2-.4-.5-.5-.8l-.2-.5c-.6-1.5-1-2.7-1-4.8s0-.9.1-1.2c0,0,0-.1,0-.2,0,0,0-.1,0-.2-.1-.4-.2-.9-.3-1.5,0-1,.1-2,.3-2.7,0-.4.2-.8.2-1,0,0,0-.2,0-.3-.1-.3-.2-.8-.3-1.4-.2-1.7-.2-3.3-.2-5,0-1,0-2.1-.1-3.1,0,0,0-.1,0-.2-.2-.7-.7-1.9-.3-3.8-.1-.8-.2-1.6-.4-2.3-.2-1-.4-2.1-.5-3.5,0-.7,0-1.3,0-1.8s0-1.3,0-1.8c-.2-1.7-.4-2.9-.4-5s0-1.7-.3-2.3v-.2c-.2-.2-.3-.5-.3-.8v-.2c-.2-3.9,1.5-5.9,5.7-6.7,0,0,0,0,.1,0,.3,0,.5,0,.7,0,3.6,0,5.6,2.9,6,8.6,0,.2,0,.4,0,.6,0,.6.1,1.1.1,1.7s0,.7,0,1c0,.2,0,.5,0,.7s0,.2,0,.3h0c0,.4.1.9.1,1.3s0,.9,0,1.2c0,.1,0,.2,0,.3s0,.1.2.7v.2c.2.2.2.5.2.7v.2c0,1,0,1.7,0,2.4,1-1.4,1.9-2.8,2.5-3.5h0c.1-.2.2-.4.3-.5h.1c1.1-1,2.3-1.4,3.5-1.4s2.9.4,4.6,2.3c1.3,1.5,1.8,3.6,1.3,5.5h0c0,.3-.1.4-.2.6h0c-.5,1-.7,1.3-1,1.9l-.5.8c-.5.8-1.3,1.7-2.2,2.7-.4.4-.9.9-1.2,1.4,0,0,0,.1,0,.2.2.8.4,1.5.8,2l.2.2c.2.3.3.6.4.9v.3c0,0,.3.5.5.8.4.6.9,1.3,1.1,2.1.2.5.3,1,.3,1.4,0,.2,0,.3,0,.3.1.6.6,1.4,1,2.1.7,1.2,1.6,2.8,2,4.8.5.9.6,1.4.9,2.3,0,.3.1.6.3,1h0c0,.2,0,.3,0,.4,0,0,.1.4.1.4.3.8.4,1.2.4,1.9,0,2.7-1.1,4.4-3.5,5.7-.7.4-1.4.5-2.2.5"/>
            <path class="st2" d="M228.4,59c-2.6,0-5.2-1.7-6.4-4.3v-.2c-.2-.1-.2-.3-.2-.4v-.2c-.3-1.1-.6-2-.9-2.9-.2.5-.5,1-.9,1.6l-.2.3c-.1.2-.3.3-.4.5l-.3.2c-1.2.9-2.8,1.5-4.4,1.5s-3.6-.7-5-1.8l-.4-.3c-.2-.2-.4-.5-.5-.8l-.3-.7c-.6-1.5-1.1-2.8-1.1-5.2s0-.9.1-1.3c-.1-.4-.2-.9-.3-1.6-.1-1.2.1-2.2.3-3,0-.2.1-.5.1-.7,0,0,0,0,0-.1-.1-.4-.3-.9-.3-1.6-.2-1.7-.2-3.4-.2-5.1h0c0-1,0-2-.1-2.9h0c-.3-.7-.8-2.2-.4-4.2,0-.7-.2-1.4-.3-2-.2-1.1-.4-2.2-.5-3.7,0-.7,0-1.4,0-1.9s0-1.2,0-1.6c-.2-1.7-.4-3-.4-5.1s0-1.5-.2-1.9l-.2-.4c-.1-.2-.2-.5-.2-.8v-.4c-.3-5.8,3.6-7.2,6.5-7.8,0,0,.2,0,.3,0h.1c.2,0,.5,0,.7,0,2.9,0,6.5,1.6,7.1,9.5,0,.2,0,.4,0,.5,0,.6.1,1.2.1,1.9s0,.7,0,1.1c0,.3,0,.5,0,.6s0,.2,0,.3c0,.4.1.9.1,1.4s0,1,0,1.3c0,0,0,.1,0,.1,0,.1,0,.2.2.4v.4c.2.1.2.2.2.4.3-.4.8-1.2.8-1.2.1-.1.2-.3.4-.4l.2-.2c1.3-1,2.7-1.6,4.2-1.6s3.4.5,5.3,2.7c1.5,1.7,2.1,4.2,1.5,6.5v.2c0,.1-.2.3-.2.4v.2c-.6,1-.8,1.3-1.2,1.9-.1.2-.3.4-.4.7-.5.9-1.4,1.8-2.4,2.8-.3.3-.6.6-.9.9.1.5.3,1,.5,1.3l.3.4c.2.3.3.6.4.9v.3c.1.2.3.4.4.6.4.6.9,1.4,1.3,2.4.2.6.3,1.1.4,1.5,0,.1,0,.2,0,.3.1.5.5,1.1.9,1.8.8,1.3,1.7,2.9,2.1,4.9.5,1,.7,1.6.9,2.4,0,.3.1.6.3,1v.3c.1,0,.1.1.1.2,0,0,0,.2,0,.2.3.8.5,1.4.5,2.2,0,3-1.3,5.1-4.1,6.6-.8.5-1.8.7-2.7.7M227.4,52.3c.3.5.8.8,1.1.8.8-.4.9-.6.9-1.2,0-.1-.1-.3-.2-.5-.2-.5-.3-.8-.3-1.2-.1-.4-.2-.7-.3-1-.2-.7-.2-.8-.6-1.6-.1-.2-.2-.5-.2-.7-.1-1.3-.8-2.3-1.4-3.5-.6-1.1-1.3-2.2-1.6-3.5,0-.2,0-.4-.1-.6,0-.2,0-.5-.1-.6,0-.2-.3-.6-.6-1-.4-.6-.9-1.3-1.1-2.2-.8-1.1-1.1-2.3-1.4-3.3-.1-.5-.3-1-.4-1.4-.2-.6-.1-1.2.2-1.7.6-1,1.6-2,2.6-3,.6-.7,1.4-1.5,1.6-1.9l.5-.8c.3-.4.4-.7.8-1.3,0-.3,0-.7-.3-.9-.4-.5-.8-.6-.9-.6s-.2,0-.3.1c-1,1.4-3.3,4.7-4.1,6l-.2.3c-.7,1.1-1.5,2.3-2.4,3.2-.4.4-.9.6-1.4.6s-.5,0-.8-.2c-.7-.3-1.2-1-1.1-1.8,0,0,0-.2,0-.3-.4-1-.5-1.9,0-3.6-.1-.3-.2-.6-.3-.7-.2-.3-.3-.6-.4-.9-.2-1.8-.3-2.7-.3-4.4-.4-1.2-.4-1.8-.4-2.7,0-.2,0-.5,0-.9s0-.4,0-.6c0-.3,0-.7,0-1.1s0-.6,0-.9c0-.3,0-.5,0-.8s0-.7,0-1.1c0-.3,0-.6-.1-.9-.2-3.2-.9-4.1-1.2-4.1-1.6.3-1.8.3-1.7,1.4.6,1.4.6,2.8.6,4.1s.1,2.8.3,4.2c.1.9.1,1.7.1,2.5s0,1,0,1.4c.1,1.2.3,2.1.4,3.1.2.9.3,1.9.4,3.1,0,.3,0,.5,0,.8-.2.6-.1.8,0,1.3.1.4.3.9.3,1.5,0,1.1,0,2.2.1,3.3,0,1.6,0,3.2.2,4.7,0,0,0,.3.1.5.1.3.2.8.3,1.3,0,.9-.1,1.7-.3,2.4-.1.5-.2,1-.2,1.3,0,.2,0,.3.1.6,0,.3.2.7.2,1.1,0,.5,0,.9,0,1.3,0,.1,0,.3,0,.4,0,1.1.2,1.7.6,2.8.3.1.6.2.8.2s.4,0,.6-.1c.4-.7.7-1.3.7-2-.4-2.4-.7-9.8-.5-10.4.2-1.1,1-1.9,1.6-2.4l.2-.2c.4-.4.9-.6,1.4-.6s.3,0,.4,0c.6.1,1.2.6,1.4,1.2.1.3.3.7.5,1.1.2.4.4.8.5,1.2l.7,1.8.7,1.9c.3.8.6,1.5,1,2.3.3.6.6,1.3.9,1.9l.4,1c.9,2.2,1.7,4,2.3,6.7"/>
            <path class="st8" d="M251.9,53.1c0,0-.1,0-.2,0-2.7-.6-2.9-3-3-4.6,0-.3,0-.5,0-.8-.6-1.3-.6-2-.5-2.8,0-.3,0-.6,0-1-.1-2-.4-4.2-.6-6.5-.4-3.6-.8-7.4-.8-10.8-.3-.8-.6-2-.4-3.2-.2-1.9-.2-4.3,1.8-6.9.2-.2.5-.4.8-.4s.2,0,.2,0l1,.2c1.9.4,2.2.5,3.1,1.6.1.2.3.4.5.6.1.1.2.3.2.4.4,1.7,1.4,4,2.3,6.1.5,1.1,1,2.1,1.3,3,.2.4.4.7.6.9.6.9,1,1.5,1.4,2.8.4.4.9,1.2,1.4,2,0,0,0-.2,0-.3,0,0,0-.1,0-.2,0-.3,0-1.4,0-2.1,0-1.2,0-2.3,0-3.1-.1-.8,0-1.6,0-2.6-.7-3.6-1.4-7.3,1.8-10.6.2-.2.4-.3.6-.3.2,0,.4,0,.6,0,1.6,0,2.7.6,3.6,2.1,0,.1.1.3.2.5.2,2.2.2,4.2.2,6.1s0,3.8.2,5.8c0,.1,0,.3,0,.4-.5,1.4-.4,3-.4,4.7,0,1.2,0,2.5-.1,3.8.2,1.3.2,2.8,0,4.1.2.9.4,2.2.5,3.4,0,.6.1,1.2.2,1.6,0,.2,0,.4,0,.6l-.4.8c0,.3-.2.5-.3.5,0,0,0,0,0,0,0,.5-.5,1.5-2.3,1.5s-1.8-.2-3-.7c-.1,0-.3-.1-.4-.2-1.7-1.7-2.5-3-3.4-4.5-.3-.5-.5-.9-.9-1.5-.3-.5-.9-1.4-1.5-2.3-.5-.7-1-1.5-1.5-2.3.3,1.8.5,3.4.4,4.3,0,.6,0,1.1.2,1.6.1.8.3,1.8.1,2.9,0,.8,0,2.5-.9,3.5-.3.4-.7.6-1.1.7-.1.2-.3.4-.6.5l-.9.3c-.1,0-.2,0-.4,0"/>
            <path class="st4" d="M264.3,15.8c1.2,0,2,.5,2.8,1.6.4,4.3,0,7.7.4,11.8-.9,2.7-.1,5.9-.5,8.7.2,1.2.2,2.8,0,4.2.4,1.2.5,3.8.7,5.1l-.4,1h0s-.5.5-.3.5c0,.5-.5.7-1.3.7s-1.6-.2-2.7-.6c-2.1-2-2.6-3.4-4.1-5.8-1.2-1.9-4.8-7.3-5.9-9.5.3,2.2,1.6,7.8,1.4,9.7,0,1.6.5,2.8.3,4.6.1,1-.1,3.2-1.2,3.2,0,0,0-.1,0-.1-.2,0-.5.5-.6.7l-.9.3c-2.4-.5-2.1-2.8-2.3-4.6-.9-1.9-.3-2-.4-3.5-.3-5.4-1.4-11.9-1.4-17.5-.4-.9-.6-2-.4-3-.2-1.9-.2-4,1.6-6.3,3.3.8,2.6.4,3.9,2.1.6,2.8,2.7,6.7,3.7,9.3,1,1.6,1.5,2.1,2,3.9.8.5,2.9,4.7,3.4,6,0-1.4-.3-3.7,0-4.6.4-.6-.1-4.3.2-5.6-.1-.9-.1-1.8,0-2.6-.7-3.6-1.4-6.9,1.5-9.8.2,0,.4,0,.5,0M264.3,13.8c-.2,0-.5,0-.7,0-.5,0-.9.2-1.2.6-3.6,3.6-2.9,7.7-2.1,11.3-.1.9-.1,1.8,0,2.5-.1.6-.1,1.4-.1,2.2-.3-.7-.7-1.3-1.1-1.9-.2-.2-.3-.5-.5-.8-.4-.9-.8-1.9-1.3-3-.9-2-1.9-4.2-2.2-5.9,0-.3-.2-.6-.4-.9-.2-.2-.3-.4-.4-.6-1-1.4-1.6-1.6-3.6-2-.3,0-.6-.1-1-.2-.1,0-.3,0-.5,0-.6,0-1.2.3-1.6.8-2.2,2.8-2.2,5.5-2,7.5-.2,1.3,0,2.5.4,3.4,0,3.4.4,7.1.8,10.7.2,2.3.5,4.4.6,6.5,0,.3,0,.5,0,.8-.1.9-.1,1.7.5,3.2,0,.2,0,.4,0,.6.1,1.7.4,4.8,3.8,5.5.1,0,.3,0,.4,0,.2,0,.5,0,.7-.1l.9-.3c.3-.1.6-.3.8-.6.5-.2.9-.5,1.3-.9,1.1-1.3,1.1-3.4,1.1-4.1.1-1.3,0-2.2-.1-3.1,0-.5-.1-.9-.1-1.4s0-.2,0-.3c.3.4.5.8.7,1.1.3.5.6,1,.9,1.4.9,1.6,1.7,3,3.6,4.7.2.2.5.3.7.4,1.3.5,2.5.7,3.4.7,1.9,0,2.9-1,3.2-2.1.2-.2.3-.4.3-.7l.4-.8c.1-.3.2-.7.1-1.1,0-.4-.1-.9-.2-1.5-.1-1.2-.2-2.4-.5-3.3.1-1.2.1-2.7,0-4,.2-1.3.1-2.5.1-3.8,0-1.6,0-3.1.3-4.3,0-.3.1-.6,0-.9-.2-2-.2-3.8-.2-5.6s0-3.9-.2-6.2c0-.3-.1-.6-.3-.9-1.1-1.7-2.5-2.5-4.5-2.5"/>
            <path class="st7" d="M286.2,52.9c-1.9,0-3.4-1.2-3.8-3.1,0,0,0,0,0-.1,0-.8,0-1.6,0-2.5-.7.5-1.9,1.3-3.5,1.3s-.8,0-1.3-.2c-.2,0-.4,0-.6,0-1,0-2.1-.6-3-1.1-.5-.3-1-.5-1.3-.6-.2,0-.3-.1-.5-.3-2-2-2.4-5.6-2.4-8.3s.4-2.7.8-3.8c.1-.4.3-.9.4-1.3,0,0,0,0,0-.1,1.8-4.6,6.2-8,10.3-8s.4,0,.5,0c0-1.2,0-2.8,0-3.4-.3-1.5-.3-3-.3-4.4,0-1.5,0-2.9-.3-4.2,0,0,0-.2,0-.3v-1.1c0-.2,0-.4,0-.6,0-.6,0-1.3.1-2.1,0-.1,0-.2.1-.3.9-1.6,2.3-2.5,3.8-2.7.1,0,.3,0,.4,0,2,0,3.6,1.5,3.8,3.6.1.9,0,1.9-.5,2.9-.2,3.3,0,5.6.6,7.6,0,.1,0,.3,0,.4-.3,2.4-.2,6.3-.2,9.1,0,.9,0,1.6,0,2.2.4,3.1.4,6.3.4,9.4,0,1.8,0,3.6,0,5.2,0,.3,0,.5,0,.8,0,.8,0,1.4,0,2.3-.2,1-.6,1.6-1.1,2.2-.1.2-.3.4-.4.6-.1.2-.3.3-.5.4-.6.2-1.3.4-1.8.4M278.2,36c-.5,1.4-.7,2.1-.5,3,0,0,0,0,0,.1.1,1.2,1,1.4,1.3,1.4h0c.4,0,.8-.2,1.3-.3.3,0,.5-.2.8-.3,0,0,.3-.3.5-.4.2-.2.4-.4.6-.5,0-1,0-2.2,0-3.4,0-.6,0-1.1,0-1.7,0-.3,0-.5,0-.8-.1,0-.3,0-.4,0s-.3,0-.4,0c-.9.2-1.8,1-2.9,2.3l-.2.5h0Z"/>
            <path class="st4" d="M285.8,6.9c1.4,0,2.6,1,2.8,2.7.1.7,0,1.6-.4,2.6-.2,3.3,0,5.9.7,8.2-.3,3.1-.1,8.9-.1,11.5.6,4.9.2,10,.4,14.6,0,1.2.1,1.9,0,2.8s-.5,1.3-1.3,2.4c-.5.2-1,.3-1.5.3-1.6,0-2.5-1-2.8-2.3-.1-1.6-.1-3.1.1-4.7-.1,0-1.3,1.1-1.4,1.1-.7.6-1.7,1.4-3.3,1.4s-.8,0-1.3-.2c-.2,0-.4.1-.6.1-1.3,0-3-1.4-4.1-1.7-1.8-1.7-2.1-5.2-2.1-7.6s.7-3.2,1.1-4.9c1.6-4,5.4-7.4,9.4-7.4s1.1,0,1.6.2c0-.4-.1-4.2,0-4.7-.6-2.9.1-6-.6-8.8v-1.1c0-.9-.1-1.6.1-2.6.8-1.4,1.9-2.1,3-2.2.1,0,.2,0,.3,0M281.7,32.2c-.1,0-.2,0-.3,0-1.5.2-2.7,1.4-3.9,2.9-.6,1.9-1,2.8-.7,4.3.1,1.7,1.4,2.3,2.3,2.3h.1c.8,0,1.6-.5,2.2-.6.6-.2,1.2-1.1,1.8-1.3.1-1.8,0-4.1,0-6-.2-.2.1-1.2-.2-1.6,0,0-.1,0-.2,0-.3,0-.8.1-1.1.1M285.8,4.8c-.2,0-.3,0-.5,0-1.8.2-3.5,1.3-4.6,3.2-.1.2-.2.4-.2.6-.2,1-.2,1.7-.1,2.3,0,.2,0,.4,0,.6v1.1c0,.2,0,.4,0,.5.3,1.1.3,2.5.3,3.9,0,1.5,0,2.9.2,4.5,0,.5,0,1.4,0,2.3-4.5.2-8.9,3.7-10.8,8.7,0,0,0,.2,0,.2-.1.4-.2.8-.4,1.3-.4,1.1-.8,2.4-.8,4.1,0,2.9.5,6.8,2.7,9,.3.3.6.4,1,.5.2,0,.7.3,1,.5,1,.6,2.2,1.2,3.5,1.2s.4,0,.6,0c.4,0,.9.1,1.3.1,1,0,1.8-.2,2.5-.5,0,.3,0,.5,0,.8,0,0,0,.2,0,.3.5,2.3,2.4,3.9,4.8,3.9s1.4-.1,2.2-.4.7-.4,1-.7c.2-.2.3-.4.4-.6.5-.7,1.1-1.4,1.3-2.7.1-1,.1-1.7,0-2.5,0-.2,0-.5,0-.8,0-1.7,0-3.4,0-5.2,0-3.1,0-6.3-.4-9.5,0-.6,0-1.3,0-2.2,0-2.8,0-6.7.2-9,0-.3,0-.6,0-.8-.6-1.9-.8-4-.6-7.1.4-1.2.6-2.3.5-3.3-.3-2.6-2.3-4.5-4.8-4.5M279.3,36c.5-.6,1.2-1.3,1.8-1.7,0,.4,0,.8,0,1.3,0,1,0,2,0,2.9-.1,0-.2.2-.3.3,0,0-.2.2-.2.2-.2,0-.4.2-.7.2-.3,0-.7.3-.8.3-.3,0-.3-.2-.4-.5,0,0,0-.2,0-.2-.1-.7,0-1.1.4-2.5,0-.1,0-.2.1-.4"/>
            <path class="st6" d="M303.8,47.5c-3.9-.2-6.7-2.6-9.2-5.2l-.3-.3c-.5-.4-1-.9-1.3-1.5-.1-.3-.3-.5-.4-.8v-.2c-.2-.3-.3-.7-.5-1-.5-1.2-1-2.4-1.1-3.8,0-.1,0-.3-.1-.4,0-.2-.2-.4-.2-.5,0-.1,0-.2,0-.4.4-4.9,1.2-10,5.3-13.2,1.6-1.2,3.5-1.9,5.3-1.9s3.3.6,4.6,1.6c.3.3.5.5.8.7.6.5,1.1.9,1.5,1.5.2.4.5.7.9,1.1.6.7,1.4,1.6,1.6,2.7,0,.2.1.5.2.7,0,0,0,0,0,.1.1.2.3.6.3.9.1.6.9,4.2-.3,6-.4.6-.9,1-1.6,1.1l-.9.4c-.1,0-.3,0-.4,0s-.4,0-.6,0c-1.8,0-4.4.3-7.7.8.1.2.2.4.3.6.2.2.4.3.5.5.6.5,1.1,1.1,1.7,1.5.6,0,1,.2,1.4.5.3,0,.6,0,1,.2l.9.2c.1,0,.2,0,.3.1.2.1.4.2.6.3.9.5,2.5,1.2,2,3.7h0c0,.4-.1.8-.3,1-.5,1-1.3,1.2-1.9,1.5-.2,0-.4.1-.5.2l-1.3.7c-.1,0-.3.1-.5.1h0M300.6,26.5c-.5.3-1,1.2-1.4,2.2.4,0,.7,0,1.1-.1,1.2-.1,2.6-.2,3.6-.4-.1-.3-.3-.5-.4-.6-.1,0-.2-.2-.3-.4,0,0-.4-.5-2.6-.7"/>
            <path class="st4" d="M301.1,19.5c1.4,0,2.8.4,3.9,1.4.6.6,1.6,1.2,2.1,1.9.8,1.2,2.1,2.1,2.4,3.5.1.2.1.5.1.7.1.3.3.6.4,1,0,0,1.4,5.5-1.1,5.9l-1,.4h-.6c-2.8,0-6.7.6-9.3,1.1.3.7.8,1.3,1,2,.9.8,1.7,1.8,2.7,2.4.6,0,1,0,1.4.4.3,0,.7,0,1,.2l1,.2c1.1.7,2.5.8,2.1,3,0,.2-.1.6-.2.8-.4.8-1.2.8-2,1.2l-1.3.7c-3.5-.2-6.1-2.5-8.5-4.9-.5-.5-1.1-1-1.5-1.6-.1-.2-.2-.5-.4-.8-.6-1.5-1.3-2.9-1.5-4.5,0-.4-.3-.8-.4-1.1.4-4.6,1-9.5,4.9-12.4,1.4-1,3-1.7,4.7-1.7M297.9,30c1.6-.3,5.5-.4,7.2-1,.2-.5-.5-1.9-.9-2.2-.5-.9-2.7-1.2-3.7-1.3-1.5.5-2.3,3-2.6,4.5M301.1,17.4h0c-2,0-4.1.7-5.9,2.1-4.5,3.4-5.3,8.7-5.7,13.9,0,.2,0,.5,0,.7,0,.3.2.5.3.7,0,0,0,.1,0,.2.2,1.5.7,2.8,1.2,4,.1.3.2.6.4.9v.2c.2.2.3.6.5.9.4.7,1,1.3,1.5,1.7.1,0,.2.2.3.3,2.5,2.5,5.6,5.3,9.9,5.5h0c.3,0,.7,0,1-.2l1.3-.7c0,0,.2,0,.4-.2.6-.2,1.7-.6,2.4-1.9,0,0,0,0,0,0,.2-.4.3-.8.4-1.2h0c.7-3.4-1.6-4.5-2.5-5-.2,0-.4-.2-.5-.3-.2-.1-.4-.2-.6-.3l-.8-.2c-.3-.1-.7-.2-1-.2-.5-.3-1-.4-1.4-.5-.3-.2-.6-.6-1-.9,2.5-.4,4.4-.5,5.8-.5h.6c.3,0,.5,0,.8-.2l.9-.4c.9-.2,1.6-.8,2.1-1.5,1.4-2.1.7-5.6.4-6.8,0-.5-.3-.8-.4-1.1,0-.2-.1-.5-.2-.7-.3-1.4-1.2-2.3-1.8-3.1-.3-.3-.6-.7-.8-1-.5-.7-1.1-1.2-1.7-1.7-.2-.2-.5-.4-.6-.5,0,0,0,0-.1-.1-1.5-1.2-3.3-1.9-5.2-1.9"/>
            <path class="st9" d="M325.5,51.3c-.7,0-1.5-.2-2.5-.7-.1,0-.2-.1-.3-.2l-.2-.2h-.1c-.7-.6-1.1-1.2-1.3-1.8l-.3-1.1c0-.2-.1-.3-.2-.5,0-.2-.1-.3-.1-.4,0,0,0,0,0-.1-.5-1.5-1.1-3.1-1.9-4.8,0,1.3,0,2.9,0,3.3v.7c.2.5.3,1,.3,1.2,0,.3.1.6-.7,2.8,0,.2-.2.4-.4.5-.1,0-.9.6-1.6.6s-.2,0-.3,0l-2.2-.7c-.3,0-.6-.4-.7-.7l-.3-1.2c-.7-1.4-.6-2.8-.6-3.5v-.7c0-.2,0-.4,0-.6,0-.2,0-.5,0-.8,0-.8,0-1.9,0-2.8s0-2.1.1-3c0,0,0,0,0-.1l.2-.7s0-1,0-1.1c0-1,0-1.8.2-2.5,0-.3.2-.9.2-1.2,0-.4,0-.8,0-1.1,0-.1,0-.3-.1-.4,0,0,0-.1,0-.2,0-.2,0-.4,0-.6l.3-1s0,0,0-.1c.4-.8,1.4-2.8,3.6-2.8h2.2c.9,0,2.1,0,3,.2,2.3.3,4.4,2,5.5,4.3.4,1.1.6,2,.6,2.8,0,2.2-1.1,3.3-2.1,4.4l-.3.3-.4.5c0,0-.1.2-.2.2,0,0-.1,0-.1,0,0,0,0,.1,0,.2h0s.3.4.3.4c0,.1.1.2.2.3v.6c.1,0,2.4,5.2,2.4,5.2.2.2.3.6.5.9,0,0,0,.1,0,.2,0,.1.1.2.1.3l.4.5c0,0,.1.2.2.3.2.9.5,1.9-.2,2.8-.6,1.8-2,2-2.8,2M319,32c0,.2,0,.5,0,.8v.4c.1,0,.2,0,.3,0l.2-.2,1-.9v-.7c0-.2-.8-.3-1.4-.4,0,.3,0,.5,0,.7,0,.1,0,.2,0,.4"/>
            <path class="st4" d="M318.5,25.7c.9,0,2,0,2.8.1,2.1.3,3.9,1.9,4.7,3.7.4,1.1.5,1.8.5,2.4,0,1.7-.7,2.6-1.8,3.7l-.3.4-.4.6c-.2.2-.5.4-.8.5.1.2.2.6.3.7,0,.2,0,.2,0,.2l.4.5.2.8h0s2.4,5.5,2.4,5.5c0,0,0,0,0,0,0,0,.2.4.4.7h0c0,.2.2.5.2.5h0l.5.7c.2.8.4,1.5-.1,2.1-.4,1.1-1,1.5-1.8,1.5s-1.3-.2-2-.6l-.3-.3-.2-.2c-.4-.3-.8-.7-.9-1.2l-.4-1.2c-.1-.3-.2-.8-.4-1.1-.8-2.3-1.7-4.6-3-6.7,0,0,0,0-.1,0,0,0-.6-.7-.6-.8,0,.3,0,.6,0,.9h0c0,.3-.1.7,0,.9,0,.8-.1,4.3,0,4.8v.6c.1.5.2,1.1.3,1.3,0,.3-.6,2.3-.6,2.3,0,0-.5.4-1,.4l-2.2-.7-.3-1.3c-.6-1.1-.6-2.3-.5-3.1v-.8c0-.4,0-.8,0-1.3,0-.8,0-2,0-2.8s0-2,.1-2.8l.2-.8v-1.3s0,0,0,0c0-.9,0-1.6.1-2.3.1-.5.2-1,.2-1.4-.1-.4,0-1.1,0-1.1-.1-.2-.2-.7-.2-.8l.3-1c.4-.9,1.2-2.2,2.6-2.2h2.2,0ZM317.9,34.6c.3-.2,1.6-.4,1.9-.5l.4-.3,1.3-1.2v-1.1c.1-1.6-2.9-1.4-3.5-1.7,0,0,.2,1.5.1,1.7,0,0,0,.2,0,.3,0,.5,0,2.1-.1,2.7M318.5,23.7h-2.2c-2.8,0-4.1,2.5-4.5,3.3,0,0,0,.2-.1.3l-.3,1c-.1.4-.1.9,0,1.3h0c0,.2,0,.3,0,.4,0,.3,0,.6,0,1,0,.2,0,.5-.1.9,0,0,0,0,0,.1-.1.7-.2,1.6-.2,2.7h0c0,0,0,.9,0,.9v.6c-.1,0-.2.2-.2.2-.1,1-.1,2-.1,3.1s0,2,0,2.9c0,.3,0,.5,0,.8,0,.2,0,.3,0,.5v.7c0,.8-.1,2.4.7,3.9l.3,1c.2.7.7,1.2,1.4,1.4l2.2.7c.2,0,.4,0,.6,0,1.1,0,2-.6,2.2-.8.3-.2.6-.6.7-1,.4-1.1.6-1.8.7-2.3,0,0,0,0,0,0l.3,1.1c.3.9.8,1.6,1.6,2.3h.1c0,0,.2.3.2.3.1.2.3.3.5.4,1.1.5,2,.8,2.9.8,1.7,0,3-.9,3.7-2.6.8-1.3.5-2.6.3-3.4h0c0-.3-.2-.6-.3-.8l-.3-.4c0,0,0-.2-.1-.2,0,0,0-.1,0-.2-.1-.3-.3-.7-.5-1l-2.1-5.1v-.5c-.2-.2-.2-.4-.4-.5l.3-.4.2-.3c1-1.1,2.3-2.6,2.3-5.1s-.2-1.9-.6-3.1c0,0,0-.1,0-.1-1.2-2.6-3.6-4.5-6.2-4.9-1-.2-2.2-.2-3.1-.2"/>
            <path class="st3" d="M229.9,87.3c-.8,0-1.7-.1-2.8-.4-5.1-1.4-8.2-2.6-8.2-9.7,0-3.6,1.9-6.4,3.5-8.2.2-.2.4-.4.7-.4,1.1-.3,2.1-.7,2.9-1,1.5-.5,2.8-1,4.1-1s.6,0,.9,0c1.6.3,3,1.1,4.8,2.8.9.8,1.8,1.9,2.6,3.9,0,.1,0,.3.1.4.4,3.4-.4,8.5-4,11.5-1.4,1.4-2.8,2-4.6,2M233.3,60.2c-.3,0-.6,0-.9,0-1.4-.2-4.9-1.2-5.3-7.4,0-.1,0-.3,0-.4.2-1,.4-1.6.5-2.1.2-.8.3-1,.1-2.8,0-.5.1-1,.5-1.3l.4-.4c.1-.7.3-1.5.4-2.2.6-2.9,1.2-5.7,1.2-8.5,0-.2,0-.3,0-.5.9-2.6,1.3-4.9,1.7-7.2.6-3,1.2-6.1,2.6-9.6,0-.5.1-1,.2-1.5.2-1.9.5-3.8,1.2-5.8.5-3.5,3.1-5.8,6.6-5.8s.7,0,1,0c1.2.2,2.4.6,3.4,1.2.2.1.3.2.4.4,2.4,3.4,2.3,8.4,1.1,11.9l-.3.7c-.6,1.6-.6,1.7-.2,3.6,0,.4,0,.7-.1,1-.7,1.2-1,2.3-1.1,3.3,0,.3,0,.7,0,1.2,0,.1,0,.3,0,.4-2.2,6.1-3,11.6-3.9,17.4-.4,2.9-.9,5.9-1.5,9.1,0,.2-.1.4-.3.6-1.6,2.2-4.9,4.5-8,4.5"/>
            <path class="st4" d="M242.7,6.2c.3,0,.5,0,.8,0,.9.2,1.9.5,2.8,1,2.1,3,1.9,7.6.9,10.5-.8,2.4-1.1,2.5-.5,5.1-1.4,2.6-1.1,2.3-1.3,5.1-3.4,9.3-3.5,17.2-5.4,26.7-1.3,1.8-4.2,3.8-6.8,3.8s-.5,0-.7,0c-2-.2-3.7-1.9-4-6,.6-2.9,1-2.3.6-5.3l.8-.8c.7-3.8,1.7-7.6,1.8-11.5,2-6.1,1.8-10.8,4.4-16.8.4-2.5.5-4.9,1.4-7.4.4-3.1,2.6-4.6,5.1-4.6M230.1,68.1c.2,0,.4,0,.7,0,1.2.2,2.4.9,3.9,2.4.7.7,1.5,1.6,2.2,3.3.4,3.3-.5,7.7-3.5,10.2-1,1.1-2,1.6-3.5,1.6s-1.5-.1-2.4-.4c-4.9-1.3-7.1-2.2-7.1-8.3,0-2.8,1.4-5.3,3.1-7.1,3.1-.9,4.9-1.9,6.6-1.9M242.7,3.2h0c-4.2,0-7.4,2.8-8.1,7-.7,2.1-1,4.1-1.2,6,0,.4-.1.9-.2,1.3-1.5,3.6-2.1,6.7-2.7,9.7-.4,2.3-.9,4.5-1.7,7-.1.3-.1.6-.1.9,0,2.7-.6,5.4-1.2,8.3-.1.6-.2,1.1-.4,1.7h-.1c-.7.8-1,1.7-.9,2.7.2,1.4.1,1.5,0,2.1-.1.5-.4,1.2-.6,2.2,0,.3,0,.5,0,.8.5,7.2,4.7,8.5,6.6,8.8.4,0,.8,0,1.1,0,3.7,0,7.4-2.6,9.2-5.1.2-.3.4-.8.5-1.2.6-3.2,1.1-6.3,1.5-9.2.8-5.8,1.6-11.2,3.8-17.1.1-.3.2-.6.2-.9,0-.5,0-.9,0-1.2,0-.8.3-1.6.9-2.7.4-.6.4-1.4.3-2.1-.2-1-.2-1.9.1-2.8,0-.2.2-.5.3-.7,1.3-3.9,1.4-9.5-1.3-13.3-.2-.3-.5-.6-.9-.8-1.2-.7-2.5-1.2-3.9-1.5,0,0,0,0-.1,0-.4,0-.8,0-1.2,0M230.1,65h0c-1.6,0-3,.5-4.6,1.1-.8.3-1.7.6-2.8.9-.5.2-1,.5-1.4.9-2.6,2.8-3.9,6-3.9,9.2,0,8.1,3.9,9.7,9.4,11.2,1.2.3,2.2.5,3.2.5,2.8,0,4.5-1.4,5.6-2.4,4-3.4,4.9-8.8,4.5-12.8,0-.3-.1-.5-.2-.8-.9-2.2-2-3.5-2.9-4.4-2-1.9-3.7-2.9-5.5-3.2,0,0,0,0,0,0-.4,0-.8,0-1.2,0"/>
            <path class="st6" d="M19.6,46c-.4,0-.8,0-1.2,0-.2,0-.4,0-.6,0-.8,0-1.8-.2-2.6-.8-.9-.7-1.2-2.3-1.1-3.5.1-.9.4-1.7.9-2.1,0-2.4-.8-7-1.3-8.2v-.3c-.1,0,0-.3,0-.3.2-1.1-.9-5.2-1.6-7.9-.3-1-.5-2-.7-2.7-.1,0-.3,0-.5,0-.7,0-1.3-.3-2.2-1.1h0c0,0,0-.2,0-.2-1-1.4-.4-2.7,0-3.9l.3-.7.2-.2c1.3-1.2,3.1-2.2,5.3-2.9,1.9-.7,3.9-.7,5.6-.7s1.5.2,2.2.5c.4.1.8.2,1.1.3h.3c0,0,2.7,2.4,2.7,2.4,1.7,1.5,1.7,5,1.4,6.5,0,1.3-.6,2.9-1.2,4.1.7.3,1.5.7,2.2,1.4,1.3,1.3,2.5,4,2.5,6.6,0,1.1,0,5-.6,6.8-.4,1.2-.7,1.7-1.2,2.3-.1.2-.3.5-.5.8-1,1.6-2.3,2.6-3.9,3.1-.9.4-2,.5-3.1.7h-.4c-.6.1-1.2.2-1.8.2M22,37.5v.2c0,0,0,.3,0,.6.5-.2,1.1-.5,1.4-.6.8-1.2,1.1-3.7.8-6.1,0-.3-.4-.7-.9-1.1-.3,0-1.1-.2-1.9-.2h-.2c.1.6.3,1.9.2,2.7l.7,4.4h0ZM18.5,17.8c.3,1.2.8,3.4,1.1,4.8.2,0,.5,0,.8,0h.3c.3-.9.6-2.3.6-2.8,0-.6-.5-1.5-1.1-1.7h0s0,0,0,0c-.6-.2-1-.3-1.2-.3s-.2,0-.5,0"/>
            <path class="st4" d="M20,11.4c.9,0,2.1.5,3.1.7l2.5,2.2c1.2,1.1,1.4,4,1.1,5.7,0,1.4-.7,3.3-1.6,4.7.6.3,1.9.5,3,1.6,1.1,1.1,2.3,3.6,2.2,5.9.1,1,0,4.9-.5,6.4-.5,1.4-.8,1.7-1.6,2.9-.8,1.2-1.8,2.2-3.4,2.7-.8.4-2,.5-3.2.6-.6,0-1.1.1-1.7.1s-.7,0-1,0c-.8-.2-2.1-.2-2.8-.7-1-.7-1-3.8.2-4.3,0-2.3-.8-7.7-1.4-9.1.3-2-2.1-9.5-2.6-11.9-.6,0-.9.2-1.3.2s-.8-.2-1.5-.8c-.7-1.1-.2-2,.3-3.4,1.4-1.2,3.1-2.1,5-2.8,1.8-.6,3.6-.6,5.3-.6M18.9,23.8c.3-.2,1-.2,1.5-.2s.8,0,1,0h0c.2-.5.9-3,.9-3.9,0-.9-.7-2.4-1.9-2.6-.8-.3-1.2-.4-1.5-.4s-.8.2-1.6.4c0,.6,1.3,5.8,1.6,6.7M21.1,39.6c.8,0,2.5-.8,2.9-1.1,1-1.4,1.5-4.2,1.1-6.9-.1-.8-.7-1.4-1.5-1.9-.5-.2-1.5-.3-2.4-.3s-1.1,0-1.4.1h0s0,.5,0,.8c.1.3.4,2,.2,2.8l.7,4.4c-.1.4,0,1.7,0,2.1h.1M20,9.4c-1.8,0-3.9,0-6,.8-2.3.8-4.2,1.9-5.6,3.1l-.4.3-.2.4c0,.1-.1.3-.2.4-.5,1.3-1.2,3,0,4.8v.2c.1,0,.3.2.3.2.7.6,1.5,1.2,2.5,1.3.1.6.3,1.2.5,1.9.6,2.3,1.7,6.5,1.6,7.5v.6c0,0,.1.5.1.5.4.9,1.1,5,1.2,7.4-.5.6-.8,1.4-.9,2.4-.2,1.5.1,3.5,1.5,4.5.9.7,2.2.8,3,1,.2,0,.4,0,.5,0,.5,0,.9.1,1.4.1s1.3,0,1.9-.1h.4c1.2-.2,2.4-.3,3.4-.8,1.8-.6,3.2-1.8,4.4-3.5.2-.3.4-.5.5-.7.5-.7.9-1.3,1.3-2.6.7-1.9.7-5.8.6-7.1,0-2.9-1.3-5.9-2.8-7.3-.5-.5-1.1-.9-1.6-1.2.5-1.1.8-2.4.9-3.5.3-2,.1-5.6-1.7-7.3l-2.5-2.2-.4-.4h-.5c-.3-.2-.6-.3-1-.4-.8-.2-1.6-.5-2.5-.5M20.2,20.7c-.1-.5-.3-1.1-.4-1.6h.1s0,0,0,0c.1.1.3.5.4.8,0,.2,0,.5-.1.8M22.3,33.1c0-.5,0-1.1,0-1.6.2,0,.4,0,.6,0,.2.1.3.2.3.3.2,1.8,0,3.5-.3,4.5l-.5-3.3h0Z"/>
            <path class="st7" d="M43.9,44.6c-3.9-.2-6.7-2.6-9.2-5.2l-.3-.3c-.5-.4-1-.9-1.3-1.5-.2-.3-.3-.5-.3-.8v-.2c-.2-.3-.3-.7-.5-1-.5-1.2-1-2.4-1.1-3.8,0-.1,0-.3-.2-.4,0-.2-.2-.4-.2-.5v-.2s0-.2,0-.2c.4-4.9,1.2-10,5.3-13.2,1.6-1.2,3.5-1.9,5.3-1.9s3.3.6,4.6,1.7c.3.3.5.5.8.7.6.5,1.1.9,1.5,1.5.2.4.5.7.9,1.1.6.7,1.4,1.6,1.6,2.7,0,.2.2.5.2.7,0,0,0,0,0,.1.1.2.3.6.3.9.1.6.9,4.2-.3,6-.4.6-.9,1-1.6,1.1l-1.2.5h-.2c-.2,0-.3,0-.5,0-1.8,0-4.4.3-7.7.8.1.2.2.4.3.6.2.2.3.3.5.5.6.5,1.1,1.1,1.7,1.5.6,0,1,.2,1.4.5.3,0,.6,0,1,.2l1,.3h.1c.2.2.4.3.6.4.9.5,2.5,1.2,2,3.7h0c0,.4-.1.8-.3,1-.5,1-1.3,1.2-1.9,1.5-.2,0-.4.1-.5.2l-1.5.8h-.3,0ZM40.7,23.7c-.5.3-1,1.2-1.4,2.2.3,0,.7,0,1.1-.1,1.2-.1,2.6-.2,3.6-.4-.1-.3-.3-.5-.4-.6h-.2c0-.1,0-.3,0-.3,0,0-.4-.5-2.6-.7"/>
            <path class="st4" d="M41.2,16.6c1.4,0,2.8.4,3.9,1.4.6.6,1.6,1.2,2.1,1.9.8,1.2,2.1,2.1,2.4,3.5,0,.2.2.5.2.7.2.3.3.6.4,1,0,0,1.4,5.5-1.1,5.9l-1,.4h-.6c-2.8,0-6.7.6-9.3,1.1.3.7.8,1.3,1,2,.9.8,1.7,1.8,2.7,2.4.6,0,1,0,1.4.4.3,0,.7,0,1,.2l1,.2c1.1.7,2.6.8,2.1,3,0,.2,0,.6-.2.8-.4.8-1.2.8-2,1.2l-1.3.7c-3.5-.2-6.1-2.5-8.5-4.9-.5-.5-1.1-1-1.5-1.6-.2-.2-.2-.5-.3-.8-.6-1.5-1.3-2.9-1.5-4.5,0-.4-.3-.8-.4-1.1.4-4.6,1-9.5,4.9-12.4,1.4-1,3-1.7,4.7-1.7M38,27.1c1.6-.3,5.5-.4,7.2-1,.2-.5-.5-1.9-.9-2.2-.5-.9-2.7-1.2-3.7-1.3-1.5.5-2.3,3-2.6,4.5M41.2,14.6h0c-2,0-4.2.7-5.9,2.1-4.5,3.4-5.3,8.7-5.7,13.9v.4s0,.4,0,.4c0,.3.2.5.3.7,0,0,0,.1,0,.2.2,1.5.7,2.8,1.2,4,.1.3.2.6.4.9v.2c.2.2.3.6.5.9.4.7,1,1.3,1.5,1.7.1,0,.2.2.3.3,2.5,2.5,5.6,5.3,9.9,5.5h.6s.5-.2.5-.2l1.3-.7c0,0,.2,0,.4-.2.7-.2,1.7-.6,2.4-1.9h0s0,0,0,0c.2-.4.3-.8.3-1.2h0c.7-3.4-1.6-4.5-2.5-5-.2,0-.4-.2-.5-.3l-.3-.2h-.3c0,0-.8-.3-.8-.3-.3-.1-.7-.2-1-.2-.5-.3-1-.4-1.4-.5-.3-.2-.7-.6-1-.9,2.5-.4,4.4-.5,5.8-.5h1l.4-.2.9-.4c.9-.2,1.6-.8,2.1-1.5,1.4-2.1.7-5.6.4-6.8,0-.5-.3-.8-.4-1.1,0-.2,0-.5-.2-.7-.3-1.4-1.2-2.3-1.8-3.1-.3-.3-.6-.7-.8-1-.5-.7-1.1-1.2-1.7-1.7-.2-.2-.5-.4-.6-.5h0c0,0,0-.1,0-.1-1.5-1.2-3.3-1.9-5.2-1.9"/>
            <path class="st3" d="M59.4,46.3c-3.1-.5-3.5-2.5-3.8-4.3-.3-1.1-.6-2.6-.9-4.2-.6-3.2-1.3-7.1-2.6-8.7-.8-1.1-.7-2.2-.6-4.1v-.8s0-.1,0-.1c.4-1.5,1.7-2.9,3.5-2.9s1.5.2,2.2.7h.1c0,0,0,.2,0,.2,2,2.6,2.9,5.7,3.6,8.6.6-1.3,1.3-2.6,2.4-3.5h.2c0-.1.2-.2.2-.2.8-.2,1.6-.4,2.3-.4,3.7,0,5.1,3.2,6.1,5.5.2.3.3.7.4,1,.6-1.8.9-4.2,1.1-5.6,0-.5.1-.9.2-1.1-.3-1.6.6-2.6,1.3-3.3l.4-.4h0c.7-.5,1.5-1,2.6-1s1.4.1,2.4.4h.2c0,0,.2.2.2.2,1.2,1,2,3.2,1.1,5.4h0c0,.1,0,.2,0,.2-1.1,1.6-1.5,3.5-2,5.4-.3,1.4-.6,2.8-1.2,4.1-.5,3-2.2,5.3-4.9,6.8l-.3.2h-.4c-3.2-.8-5.5-3.8-6.8-6.2-.3.6-.6,1.2-1,1.8-.6,1.8-1.8,5.5-5.9,6.1h-.2s-.2,0-.2,0h0Z"/>
            <path class="st4" d="M55.1,22.2c.5,0,1.1.2,1.7.6,2.7,3.4,3.2,7.6,4.1,11.6.7-2,1.5-4.9,3.2-6.2.8-.2,1.4-.3,2.1-.3,4.4,0,4.7,5.4,6.6,7.7,1.7-2.4,2-8,2.3-8.9-.4-1.4.5-2.1,1.3-3,.7-.5,1.3-.7,2-.7s1.2.1,2.1.4c.9.7,1.5,2.5.8,4.2-2,3-1.9,6.6-3.3,9.8-.3,2-1.4,4.5-4.4,6.1-3.4-.7-5.9-4.9-7.1-7.6-.5,1.3-1.1,2.7-1.8,3.9-.6,1.9-1.6,5-5.1,5.5-2.4-.4-2.7-1.6-3-3.4-1-3.7-1.6-10.8-3.7-13.4-.6-.8-.5-1.8-.3-4,.3-1.1,1.3-2.2,2.6-2.2M55.1,20.1c-2,0-3.9,1.5-4.5,3.6v.2c0,0,0,.2,0,.2v.6c-.2,2-.3,3.4.7,4.8,1.2,1.5,1.9,5.3,2.5,8.3.3,1.6.6,3.1.9,4.3.3,1.8.9,4.4,4.7,5h.3c0,0,.3,0,.3,0,4.6-.8,6-4.6,6.6-6.7,0,0,0-.1,0-.2,1.5,2.2,3.6,4.4,6.5,5.1l.7.2.7-.4c2.9-1.6,4.8-4.2,5.4-7.3.6-1.4.9-2.8,1.2-4.2.4-1.9.8-3.6,1.8-5.1v-.2c.1,0,.2-.2.2-.2,1-2.6,0-5.3-1.4-6.5l-.3-.3h-.4c-1.1-.5-2-.6-2.7-.6-1.4,0-2.4.6-3.2,1.1h-.2c0,.1-.2.3-.2.3,0,.1-.2.2-.3.3-.7.8-1.9,2-1.6,4,0,.2,0,.6-.1,1,0,.7-.2,1.6-.4,2.6-1.1-2.2-2.8-4.5-6.2-4.5s-1.7.1-2.6.4h-.4c0,.1-.3.4-.3.4-.5.4-1,.9-1.4,1.5-.6-2.2-1.5-4.5-3.1-6.5l-.2-.3-.3-.2c-.9-.6-1.8-.9-2.8-.9"/>
            <path class="st8" d="M94.6,45.5c-2.5,0-5-1-8.3-3.2l-.3-.2v-.3c-.4-.5-.6-1-.7-1.4-.5-1.1-1-2-1.2-4,0-.1-.1-.3-.2-.4,0-.2-.2-.4-.3-.7v-.2c0,0,0-.2,0-.2.4-4.4,1.2-9.4,5.1-12.3,1.6-1.1,3.3-1.8,5-1.8s.3,0,.4,0c2.3,0,4.3,1.3,5.6,3.5.3.2.5.4.7.5.5.4,1,.8.8,1.6,0,0,0,.1,0,.4,0,.4.1.8,0,1.3,0,.1,0,.3.1.4l.6,1.1v.2c0,.4,0,.5,0,.7,0,0,0,.3.3,1.2v.3c.1,0,0,.3,0,.3,0,.3-.2.6-.2.8-.1.6-.2,1.1-.9,1.7h0c0,0,0,.1,0,.1-.2,0-1.1.6-1.6.7-.2,0-.4.2-.7.3-.1,0-.4.1-.5.2l-.2.2h-.4c-.2,0-.4,0-.6,0-1.8,0-3.4.3-5.2.6.3.5.5.8.7,1.2.6.3,1,.5,1.2.5h0c.2-.1.4-.3.6-.4.4-.3.8-.7,1.8-.9h.1s.2,0,.2,0h.1v-.2c.1,0,2.3.3,2.3.3h.1c2.1,1.3,2.3,2.8,2.3,3.5v.4c-.4.9-.7,1.5-1.7,2,0,.2-.2.3-.3.4l-.8.7h-.2c-1.4.5-2.6.8-3.8.8M90.9,30.7c.5,0,.9,0,1.3,0,.6,0,1.2,0,1.5-.2h.1c0,0,1.2-.2,1.2-.2,0-.2,0-.3-.2-.4l-.3-.2v-.3c-.3-.6-.6-.9-1.4-1h0c-1.1.5-1.9.9-2.3,2.2v.2h0Z"/>
            <path class="st4" d="M93.7,22c.1,0,.2,0,.3,0,1.9,0,3.7,1.1,4.9,3.1,2,1.6,1,.6,1.3,2.1,0,.4,0,.8,0,1.2,0,.2.2.5.2.6l.6,1.1c.2.8-.2.2.4,2.1-.3,1.3-.2,1.5-.8,2.1-.3.2-1.3.6-1.5.7-.2.2-1.2.3-1.4.6-.2,0-.4,0-.6,0-2.4,0-4.4.5-6.9,1,.3.6,1.4,2,1.6,2.6,1,.5,1.5.8,2,.8s.3,0,.4,0c1-.5,1.1-1.1,2.2-1.3h0c.2,0,.2.2.5.2l.2-.2,1.3.2s2,.9,1.9,2.6c-.3.9-.4,1.3-1.4,1.7h0s-.1.4-.1.4h0l-.7.6c-1.2.4-2.3.6-3.5.6-2.2,0-4.5-.8-7.8-3-.9-2.1-1.5-2.6-1.7-5.2,0-.4-.3-.8-.5-1.2.4-4.2,1.1-8.9,4.7-11.5,1.4-1,2.9-1.6,4.4-1.6M89.8,31.9c1.7-.5,3.2,0,4.3-.5l2-.3c0-.1,0-.3,0-.5,0-.3,0-1.1-.7-1.6-.4-1.2-1.1-1.7-2.4-1.8-1.3.6-2.7,1-3.2,3.1v1.6M93.7,20h0c-1.9,0-3.8.7-5.6,2-4.3,3.1-5.1,8.4-5.5,13v.4s0,.4,0,.4c0,.3.2.6.3.8,0,0,0,.2,0,.2.2,2.1.7,3.1,1.2,4.2.2.4.4.8.6,1.3l.2.6.5.3c3.5,2.3,6.2,3.3,8.9,3.3s2.6-.2,4.1-.8h.4c0-.1.3-.4.3-.4l.6-.5c.1-.1.3-.3.4-.4,1.1-.7,1.4-1.4,1.8-2.4h0c0,0,.1-.4.1-.4v-.3c0-1-.3-2.8-2.7-4.2.1,0,.2,0,.3-.1.7-.3,1.7-.8,1.7-.8h.2c0-.1.2-.3.2-.3.9-.8,1.1-1.6,1.2-2.3,0-.2,0-.5.2-.8l.2-.6-.2-.6c-.2-.5-.3-.8-.3-.9,0-.2,0-.5,0-.9v-.4c0,0-.2-.3-.2-.3l-.5-.8s0,0,0-.1c0-.5,0-.9,0-1.4h0c.3-1.5-.6-2.2-1.2-2.6-.1-.1-.3-.2-.5-.4-1.5-2.4-3.8-3.8-6.3-3.8-.1,0-.3,0-.4,0M92.7,29.6c.2-.1.4-.2.6-.3,0,0,0,0,0,0,0,0,0,0,0,.1h-.2c0,.1-.3.2-.6.2"/>
            <path class="st6" d="M115.6,66.2c-.3,0-.5,0-.8,0-.2,0-.4,0-.7,0s-.4,0-.6,0c-.2,0-.4,0-.6,0-.3,0-.8,0-1.3-.2-3.4-.8-5.5-4-7-6.4-1.5-2.5-1.8-6.2-.9-9.5.7-2.3,1.9-4.2,3.6-5.3-.2-1-.4-2.2-.3-3.5.1-1,.5-2,.7-2.8,0-.1,0-.2.1-.3-2.6-1.9-4.2-4.8-4.5-7.8,0-.5-.1-1.3,0-1.9,0-.6.4-1.3.7-2l.2-.4c.4-.8,3.7-7.9,8.8-8.5,0,0,.2,0,.3,0,.5,0,1.2.1,2,.2.5,0,1,.1,1.4.2.5-2.1,2.1-4.6,2.9-5.4.7-.7,1.7-1.1,3.1-1.1s.7,0,1.1,0c1.7.2,2.6,1.2,2.6,2.7,0,1.2-.3,3-1.3,3.7-.3.2-.6.3-.9.5-.7.4-1.8.8-2.2,1.4,1.3,1,2.8,2.2,3.2,3.7,1.2,1.6,1,3.6.9,5.3,0,.6-.1,1.1-.1,1.6v.4l-.2.3c-.4.6-.7,1.2-1.1,2-.4,1-.8,1.9-1.7,2.8-1.5,2.7-6.1,3.7-8.9,3.8-.2.5-.6,1.2-.7,1.9,0,.6,0,1.2.3,1.9,1.8.4,5,1.4,6.3,2.2.8.5,1.3,1.1,1.9,1.6,2.9,3.2,2.6,7.8,2.4,11.4v1.1c0,0-.2.2-.2.2-2.2,3.7-4.8,5.8-7.8,6.3-.3,0-.6,0-.9,0M113.4,57.4c.6,0,1,.1,1.4.1.9,0,1.5-.3,2-.9.3-.4.2-1.4,0-2.1,0,0,0-.1,0-.2-.3-.3-.6-.7-.9-1.1-.7-.8-2.3-2.8-2.9-2.8v-1,1c-.4,0-.7.3-1.1.6,0,0-.1,0-.2.1-.3.9-.9,2.9-.9,3.3,0,.6.9,2.2,1.5,2.8,0,0,.2,0,.3,0,.3,0,.6,0,.8.1M113.8,25.7c-1,.9-2.9,2.6-2.4,3.7.9,1.8,1.4,2.5,1.6,2.7.4,0,.7,0,1.1,0s.5,0,.8,0c.4-.1,1.6-.6,1.8-.8l1-.9c.7-.6.8-.9.3-2.4-.2-.8-1.3-1.6-2.2-1.7-.4,0-.8-.2-1.3-.3-.2,0-.6-.2-.8-.2h0s0,0,0,0Z"/>
            <path class="st4" d="M122.9,12.4c.3,0,.6,0,1,0,1.3.2,1.7.9,1.7,1.7,0,1.1-.2,2.4-.9,2.8-1,.6-3.5,1.4-3.8,3.1,1.2.9,3.3,2.4,3.5,3.8,1.5,1.8.7,4.4.7,6.5-1.2,1.5-1.4,3.4-2.8,4.8-1.2,2.5-6.1,3.4-8.8,3.4-.2.4-.9,1.6-1,2.8-.2,1.3.3,2.5.5,2.9,1.5.2,5.2,1.3,6.5,2.1.6.4,1.2.9,1.7,1.4,2.8,3.1,2.3,7.8,2,11.5-1.5,2.5-3.8,5.3-7,5.8-.3,0-.5,0-.8,0-.5,0-.9,0-1.4,0s-.8,0-1.1,0-.7,0-1.1-.1c-3.1-.7-5-3.7-6.4-6-2.3-3.8-1.5-11.5,3-13.8-.2-.9-.5-2.4-.4-3.9.2-1.4.8-2.8,1-3.6-2.7-1.8-4.4-4.5-4.7-7.5,0-.5,0-1.1,0-1.6,0-.7.5-1.5.8-2.1,1.3-2.9,4.3-7.5,8-8,0,0,.1,0,.2,0,.9,0,2.9.5,3.9.5s.3,0,.4,0c0-1.7,1.8-4.8,2.7-5.7.5-.5,1.2-.8,2.3-.8M112.8,33.2c.4,0,.9,0,1.3,0s.5,0,.8,0h0c.3,0,2.2-.8,2.4-1l1.1-1c1.1-1,1.1-1.8.6-3.4-.3-1.2-1.7-2.4-3.1-2.5-.6,0-1.8-.6-2.4-.6h0c-1.3,1.2-4,3.3-2.9,5.3.4.8,1.5,3.1,2.3,3.3M114.8,58.5c1.1,0,2.1-.3,2.8-1.3.7-.9.3-2.5.2-3.4-1-1-3.2-4.5-4.8-4.5h0c-.9,0-1.5.7-2.1,1-.2.6-1.1,3.5-1.1,4.1,0,1,1.3,3,2.1,3.7.2,0,1.1,0,1.3.2.6,0,1.1.2,1.6.2M122.9,10.3h0c-1.7,0-2.9.5-3.8,1.4-.8.9-2.2,3-2.9,5-.2,0-.4,0-.6,0-.8-.1-1.6-.2-2.2-.2s-.3,0-.4,0c-5.6.7-9,7.7-9.6,9.1,0,.1,0,.2-.2.4-.3.6-.7,1.4-.8,2.2-.1.8,0,1.6,0,2.1.3,3.1,1.9,6,4.3,8.1-.3.8-.6,1.7-.7,2.7-.1,1.2,0,2.3.2,3.2-1.6,1.2-2.8,3.1-3.5,5.5-1,3.6-.7,7.6,1,10.3h0s0,0,0,0c1.6,2.5,3.8,6,7.7,6.9.6.2,1.2.2,1.6.2s.4,0,.6,0c.2,0,.3,0,.5,0s.4,0,.6,0c.3,0,.6,0,.8,0s.7,0,1.1,0c3.3-.5,6.1-2.8,8.4-6.8l.2-.4v-.5c0-.3,0-.6,0-.9.3-3.9.6-8.7-2.6-12.2h0s0,0,0,0c-.5-.5-1.2-1.2-2-1.7-1.3-.8-4.1-1.7-6.1-2.2,0-.4,0-.7,0-.9,0-.3.2-.7.3-1,2.4-.2,7.3-1.1,9.1-4.2.9-1,1.3-2,1.8-3,.3-.7.6-1.3.9-1.7l.4-.6v-.7c0-.4,0-1,0-1.5.2-1.8.4-4-1-5.9-.4-1.2-1.5-2.3-2.5-3.2.4-.2.8-.4,1-.5.3-.1.6-.3.9-.5h0s0,0,0,0c1.4-1,1.8-3,1.8-4.6,0-2-1.3-3.4-3.4-3.7h-.1c-.4,0-.8,0-1.2,0M112.3,28.9c0-.5,1.1-1.5,1.8-2.1,0,0,.2,0,.2,0,.5.2,1,.3,1.5.4.6,0,1.2.6,1.3.9h0s0,0,0,0c.2.8.2,1,.2,1.1,0,0,0,.1-.3.3l-.9.9c-.3.2-.9.5-1.3.6-.2,0-.4,0-.6,0s-.4,0-.6,0c-.2-.3-.6-1-1.2-2.1h0s0,0,0,0ZM112.5,51.8c.2-.1.3-.2.4-.3.6.4,1.7,1.8,2.2,2.4.3.3.5.6.7.9,0,.4.1,1,0,1.3-.2.3-.5.4-1.2.4s-.7,0-1.2-.1c-.2,0-.5,0-.8-.1-.4-.5-.9-1.4-1-1.8,0-.5.5-1.9.7-2.7"/>
            <path class="st9" d="M141.2,44.2c-.8,0-1.6-.2-2.3-.7h-.2c0-.1-.1-.3-.1-.3-.3-.4-.5-.9-.7-1.3-1.2.6-2.4.9-3.7.9s-.3,0-.5,0h-.2l-1-.5c-.6,0-1.1-.3-1.5-.6-1.9-.5-2.2-2.4-2.3-3.4l-.6-.7v-.3c-.2-1.4-.3-4.4-.4-7.3,0-1.9,0-3.7-.2-4.7-.2-2.2,1.6-3.2,2.2-3.5h.1c0,0,.1,0,.1,0,.3,0,.6-.1.9-.1,1.4,0,3.1.7,3.7,2.1l.7,1.7v.3c-.3,2-.6,7.4-.4,9.6.3,0,.6,0,.8,0,.2,0,.4-.1.6-.2.1,0,.4-.1.5-.2.3-.9.4-4,.4-5.4,0-.8,0-1.5,0-2-.4-1.4-.6-2.5.3-4.2v-.2c.1,0,.3-.1.3-.1,1.1-.8,2.4-1.2,3.4-1.2,1.6,0,2.8,1,3.3,2.7h0v.3c0,.6.1,1.1.2,1.7.2,1,.4,2,.1,3.2,0,.5,0,1.4-.3,3.6,0,.6-.1,1.1-.1,1.3s0,.3,0,.5c0,.3,0,.5,0,.7h0c0,.6,0,1.9.3,2.7v.2c0,0,0,.4,0,.4.4.8.8,2.1-.5,3.9h0c0,.1-.1.2-.1.2-.7.5-1.7,1.3-3.1,1.3"/>
            <path class="st4" d="M130.9,22.5c1.1,0,2.4.6,2.8,1.5l.6,1.4c-.2,2-.7,8.9-.1,10.8,0,0,.2,0,.4,0,.5,0,1.2-.1,1.4-.2.5-.2,1.5-.3,1.8-.8.7-1.2.5-6.8.6-8.1-.4-1.4-.6-2.2.2-3.6.8-.6,1.9-1,2.8-1s1.9.5,2.4,1.9c0,1.7.7,3,.3,4.8.1.5-.4,4.6-.4,5s0,.9,0,1.4c0,.9,0,2.1.3,3v.5c.6.8.5,1.9-.4,3-.5.4-1.4,1-2.5,1s-1.1-.2-1.8-.6c-.4-.6-.6-1.2-.7-1.6,0,0-.2-.3-.2-.7-1.2.9-2.6,1.4-4.3,1.4h-.4l-1-.5c-.5,0-1-.2-1.4-.6-1.5-.2-1.7-1.6-1.8-2.8,0,0,0,0,0,0h0c0,0-.1-.2-.7-.9-.3-2.3-.3-9.3-.5-11.9-.1-1.3.7-2,1.7-2.6.2,0,.4,0,.6,0M130.9,20.4c-.4,0-.8,0-1.1.1h-.3c0,0-.2.2-.2.2-.7.4-3,1.6-2.8,4.5,0,1,.1,2.8.2,4.7,0,2.9.1,5.9.3,7.4v.6c0,0,.5.5.5.5l.2.2c.2,1.2.7,3.3,2.9,3.9.5.3,1.1.5,1.6.7l.7.3.4.2h.4c.2,0,.3,0,.5,0,1.1,0,2.2-.2,3.2-.6.1.2.2.4.4.6l.2.3.3.2c.9.6,1.9.9,2.9.9,1.7,0,2.9-.9,3.8-1.5l.2-.2.2-.2c1.4-2,1.2-3.7.7-4.7v-.3s-.1-.4-.1-.4c-.1-.3-.2-.9-.2-2.3v-.2c0-.2,0-.3,0-.6,0-.2,0-.3,0-.5,0-.2,0-.7.1-1.2.2-2.1.3-3.1.3-3.7.2-1.4,0-2.5-.1-3.5,0-.5-.2-1-.2-1.5v-.5c-.7-2.1-2.3-3.4-4.4-3.4s-2.8.5-4,1.4l-.4.3-.2.4c-.4.7-.6,1.3-.7,1.9l-.5-1.3c-.8-1.8-2.9-2.7-4.6-2.7M135.9,33.9c0-1.9,0-5,.3-7.2,0,.2.1.4.2.6,0,.4,0,1,0,1.9,0,1.1,0,3.5-.2,4.6,0,0-.1,0-.1,0"/>
            <path class="st3" d="M150.9,46.5c-1,0-1.9-.5-2.8-1.6l-.2-.3v-.3c-.2-2.8-.4-5.5-.8-7.9l-.2-1c-.3-1.7-.6-3.4-.7-5.1-.4-.8-.7-1.9,0-3.5h0c0-.1.1-.3.1-.3,0-1.2.5-2,1-2.5.6-.6,1.5-1,2.5-1,1.6,0,3.4.9,4.4,2.3.4.6.8,1.1,1.2,1.4h.2c0,.1.1.3.1.3.4.8,1.5,2.1,2.6,3.3l.2.2c0-.7-.2-1.3-.3-2-.3-1.3-.5-2.6-.1-4.1.4-2,2-2.6,3.3-3.1h.3c0-.1.3,0,.3,0,4.2.8,3.9,3.8,3.8,5.4,0,.5-.1,1,0,1.3h0v9.5c0,.4,0,.8,0,1.2.1,1.3.3,2.7-1.7,4.3l-.2.2h-.2c-.3.1-.6.2-.9.2-.6.2-1.1.3-1.5.3-.9,0-1.5-.5-1.9-1-.6-.7-1.5-1.7-2.4-2.7-.9-1.1-2-2.3-2.9-3.3,0,.1,0,.3,0,.4.2,1,.4,2.1.4,3v1c0,.2,0,.4.1.6.2.7.4,1.8-.7,2.8-1.1,1-2.1,1.8-3.4,1.8"/>
            <path class="st4" d="M161.9,22.4c4.5.9,2.5,4.2,2.9,6v9.2c0,2.1.8,3.1-1.2,4.7-1.1.2-1.7.4-2.1.4s-.8-.2-1.2-.6c-1.7-1.7-4.7-5.8-6.5-7.2-.7-1.4-.7-1-.8-1.2v.5c0,1.9.8,4.3.8,6.1v.9c0,1.1.7,1.8-.3,2.7-.9.8-1.8,1.5-2.7,1.5s-1.3-.3-2-1.2c-.1-2.6-.4-5.3-.8-8-.3-2.1-.7-4.2-.9-6.3-.6-.9-.4-1.8,0-2.7l.3-.3c0-2,1.1-2.9,2.5-2.9s2.7.7,3.6,1.9c.4.6.9,1.2,1.4,1.6.9,1.7,4.2,5,5.2,6.6l-.5-3c0-2.3-1-4.2-.5-6.3.3-1.5,1.4-1.9,2.7-2.4M161.8,20.2l-.6.2c-1.4.5-3.4,1.3-4,3.9-.2,1-.2,1.9-.1,2.7-.1-.2-.2-.3-.3-.5l-.2-.4-.4-.3c-.3-.2-.6-.7-1-1.1-1.3-1.6-3.3-2.7-5.3-2.7s-2.4.5-3.3,1.3c-.5.5-1.1,1.4-1.2,2.8v.2c-1,1.8-.8,3.2-.3,4.2.1,1.7.4,3.4.7,5l.2,1c.4,2.3.6,5,.8,7.8v.7s.5.5.5.5c1.1,1.3,2.3,1.9,3.6,1.9s3.1-1.2,4-2.1c1.6-1.5,1.2-3.1,1.1-3.8,0-.2,0-.3,0-.5v-1.1c.2.2.4.5.6.7.9,1.1,1.7,2.1,2.4,2.8.5.5,1.3,1.2,2.7,1.2s1.1-.1,1.7-.3c.2,0,.5-.1.9-.2h.5c0,0,.4-.4.4-.4,2.4-1.9,2.2-3.8,2.1-5.2,0-.4,0-.7,0-1.1v-9.8c0-.1,0-.6,0-.9.2-1.6.6-5.5-4.6-6.5h-.6c0-.1,0,0,0,0Z"/>
            <path class="st9" d="M178.9,49h-.4c-1.9-.9-3.9-1.8-5.4-2.9-.2-.2-.4-.3-.7-.5-1.2-.8-2.8-1.9-3.4-3.3h0c0,0,0-.1,0-.1-.2-.6-.5-1.2-.8-1.9-.5-1.2-1.1-2.4-1.2-3.6-.1-1.1,0-2.1,0-3.1,0-.4,0-.9.1-1.3.2-2.5.7-4.6,1.2-6.2.8-2.5,2.7-6.4,5.4-9,1.2-1.1,2.9-2,3.4-2.2h.2c0-.1.2-.1.2-.1.2,0,.4,0,.7,0,.6,0,1.3,0,1.9,0s1.2,0,1.6.2c.1,0,.3,0,.4,0,1,0,1.8.5,2.5,1,1.9,1.3,3.6,3.4,2.4,5.2,0,.1-1.1,1.5-2.9,2.2-.5.2-1,.2-1.5.2s-1.1-.1-1.6-.3h-.3c0-.1-.2-.4-.2-.4-.2-.4-.4-.7-.6-.8-.1,0-.4.2-.6.3-.2,0-.4.2-.5.2-.3.3-.6.4-.9.4-1.1,1.4-2.5,3.3-3,5.5h0c0,.4-.1,1.1-.1,1.7,0,1.1-.1,2.2-.4,2.9-.3.6,0,2.5,0,3.5,0,.3,0,.6,0,.8,0,.8.4,2.1,1.7,2.5h.4c0,0,.2.4.2.4.5.8,1.9,1.2,3.2,1.2.2-1.7.3-3.8.2-5.8,0,0,0,0,0,0-.3,0-.7.1-1.1.1s-.2,0-.4,0c-.9-.1-1.8-.6-2.3-1.2-.5-.7-.8-1.6-.6-2.5h0c0-.1.1-.7.1-.7.3-1.3.5-2.4,2-2.9.5-.2,1.7-.5,2.7-.5s.4,0,.6,0c1.1-.1,2.2-.3,3.2-.3s.3,0,.5,0c1.3-.5,2.3-.7,3.1-.7s1.2.1,1.6.4h0s0,0,0,0c.8.6,1.3,1.4,1.6,2.7v.2c0,0,0,.2,0,.2-.2.9-.4,2-1.1,2.8-.9,1-2,1.2-2.9,1.4h-.3c-.2,0-.4.2-.7.3,0,0,0,0,0,0,0,.3,0,.6,0,.9,0,.9.2,1.8,0,2.9,0,.5,0,1,.1,1.5.2,2.4.3,3.7-.9,5.2-.6,1.1-1.2,1.8-2.1,2.5-1.1.8-2.5,1.1-4.2,1.1s-.6,0-.6,0"/>
            <path class="st4" d="M180.2,15.6c.6,0,1.2,0,1.6.2.2,0,.3,0,.5,0,.7,0,1.3.4,1.9.8,1.3.9,2.9,2.6,2.2,3.9,0,0-.9,1.2-2.4,1.8-.3.1-.7.2-1.1.2s-.8,0-1.2-.2c-.4-.6-.8-1.3-1.4-1.3s-.2,0-.2,0c-.1.1-1.5.6-1.6.7-.2.4-.6,0-.9.4-1.2,1.5-2.8,3.6-3.3,6-.3.9-.1,3.4-.5,4.3-.5,1.2,0,3.7,0,4.8.1,1.4.8,2.9,2.4,3.3.9,1.5,3.4,1.7,4.7,1.7h.3c.3-2.5.4-5.5.3-7.9-.1,0-.2,0-.4,0-.6,0-1.3.2-1.9.2s-.2,0-.2,0c-1.2-.2-2.3-1.1-2.1-2.7.4-1.7.4-2.4,1.5-2.8.5-.2,1.6-.5,2.4-.5s.4,0,.6,0c1.1-.2,2.2-.3,3.3-.3s.4,0,.7,0c1.1-.5,2.1-.8,3-.8s.8,0,1.1.3c.5.4.9,1,1.2,2.2-.2,1-.4,1.8-.9,2.3-.7.8-1.7.9-2.6,1.1-.5,0-1.1.4-1.5.5-.1,1.6.4,2.9,0,4.5.2,3.5.5,4.7-.6,6.2-.6,1.1-1.1,1.7-1.9,2.3-.9.7-2.2.9-3.6.9h-.4c-1.9-.8-3.9-1.6-5.4-2.7-1.2-.9-3.1-2-3.8-3.4-.6-1.8-1.7-3.6-1.9-5.3-.1-1.4.1-2.7.2-4.2.1-2.2.6-4.1,1.2-6,.8-2.6,2.7-6.2,5.2-8.5.9-.8,2.2-1.6,3.1-2.1.6,0,1.7-.1,2.6-.1M180.2,13.6c-.7,0-1.4,0-2,0-.3,0-.5,0-.7,0h-.4s-.4.2-.4.2c-.5.3-2.3,1.2-3.6,2.4-2.9,2.8-4.8,6.7-5.7,9.4-.5,1.7-1.1,3.8-1.3,6.5,0,.5,0,.9-.1,1.3-.1,1-.2,2.1,0,3.3.2,1.4.7,2.7,1.3,3.9.3.6.6,1.2.7,1.8h0c0,.1,0,.2,0,.2.8,1.7,2.4,2.8,3.8,3.7.2.2.4.3.6.5,1.7,1.2,3.8,2.1,5.6,2.9h.2c0,0,.4.2.4.2h.4c.1,0,.3,0,.4,0,2,0,3.6-.4,4.8-1.3,1.1-.8,1.7-1.6,2.4-2.8,1.3-1.8,1.2-3.4,1-5.8,0-.4,0-.8,0-1.3.3-1.2.1-2.3,0-3.1,0,0,0,0,0,0h.1c1-.2,2.4-.5,3.5-1.8h0s0,0,0,0c.8-1,1.1-2.2,1.3-3.2v-.5c0,0,0-.4,0-.4-.4-1.5-1-2.6-2-3.3h-.1c0,0-.1-.1-.1-.1-.6-.3-1.4-.5-2.1-.5s-1.9.2-3.3.7h-.3c-1,0-2.1.1-3.2.3-.2,0-.4,0-.7,0-1.1,0-2.4.4-3.1.6-.6.2-1.1.5-1.5.9.5-1.7,1.6-3.3,2.5-4.4.3-.1.6-.3.9-.5,0,0,.1,0,.2-.1,0,0,0,0,0,0l.4.6.6.2c.6.2,1.3.4,2,.4s1.2,0,1.7-.3h0s0,0,0,0c2-.7,3.2-2.3,3.3-2.5h0c0,0,0-.1,0-.1,1.2-2,.2-4.6-2.7-6.6-.6-.4-1.6-1.2-3.1-1.2s-.2,0-.3,0c-.5-.1-1-.1-1.7-.1M179.2,40.1c-.8-.2-1.3-.4-1.4-.6l-.4-.7-.8-.2c-.7-.2-.9-1.1-.9-1.6,0-.2,0-.5,0-.8,0-.3-.1-1-.2-1.6,0,.1.2.3.3.4.7.9,1.8,1.5,3,1.6.1,0,.3,0,.5,0h.2c0,1.2,0,2.3-.1,3.4"/>
            <path class="st5" d="M197.6,52.9c-1,0-2-.3-2.8-.9-2.4-1.1-2.9-2.6-2.9-3.8v-.2h0c0-.4.2-.7.2-.9.3-1,.5-1.8,1.3-2.8h.1c0-.1.1-.2.1-.2.4-.2.9-.4,1.4-.4.8,0,1.5.3,2.1.6.1,0,.2,0,.3.1.4-.1,1.2-.9,1.3-1.5,0-.2,0-1.1-.3-1.6l-.2-.2v-.3c-.1-1.9-1.3-3.7-2.7-5.7l-.5-.7c-.8-1.1-1.5-2.2-2.1-3.4h0c0-.1,0-.2,0-.2-.2-1.1-.4-1.8-.6-2.4-.6-1.7-.8-2.6,0-5.8.9-3.7,3.3-7.1,5.5-10h.1c0-.1.2-.2.2-.2.3-.2.5-.3.8-.5,1.4-.9,3.1-2,4.7-2s3.2,1.2,4.1,3.7v.2c0,0,0,.2,0,.2-.2,3.2-1.8,3.8-3.1,4.2-.7.2-1.3.5-1.9,1-.3.4-.7.6-1.2.8-.1,0-.3.1-.4.2-.8.9-1.8,3.1-1.6,4.2v.2s0,.2,0,.2c-.2,2.5,1.2,4.6,2.7,6.9v.2c1.8,2.6,3.8,5.6,3.8,9.8s0,1.2-.1,2.5v.9c0,0,0,.1,0,.1-.1.3-.2.6-.2.8-.3,1.3-.6,2-2.5,4-1.7,1.8-3.8,2.8-5.8,2.8"/>
            <path class="st4" d="M203.6,11.1c1.2,0,2.3.8,3.2,3-.2,4-2.7,2.5-4.7,4.7-.1.3-1.2.6-1.5.9-.9.9-2.2,3.6-1.8,5.2-.2,2.9,1.3,5.1,2.9,7.6,1.7,2.7,3.6,5.5,3.6,9.4s0,1.4-.1,3.2c-.5,1.8-.2,2.1-2.5,4.4-1.3,1.3-3.2,2.5-5,2.5s-1.6-.2-2.3-.7c-1.6-.7-2.4-1.7-2.4-2.8.4-1.5.5-2.2,1.4-3.3.3-.2.5-.2.8-.2,1,0,2,.8,2.4.8s.1,0,.1,0c.8-.2,2-1.3,2.2-2.3,0-.3.1-1.6-.4-2.4-.1-2.3-1.5-4.3-2.9-6.2-.9-1.3-1.8-2.5-2.4-3.8-.8-3.8-1.7-3.4-.6-7.7.9-3.5,3.1-6.8,5.3-9.6,1.6-1,3.4-2.4,5-2.4M203.6,9h0c-2,0-3.7,1.2-5.3,2.2-.3.2-.5.3-.8.5l-.3.2-.2.3c-2.2,3-4.7,6.5-5.7,10.4-.8,3.4-.6,4.5,0,6.3.2.6.4,1.3.6,2.3v.2s.1.2.1.2c.6,1.3,1.4,2.4,2.2,3.5.1.2.3.4.4.6,1.3,1.9,2.4,3.5,2.5,5.2v.6s.4.5.4.5c0,.1,0,.5,0,.8,0,.1-.2.3-.4.5-.6-.3-1.4-.6-2.3-.6s-1.3.2-1.9.5l-.3.2-.2.3c-1,1.2-1.2,2.2-1.5,3.2,0,.2-.1.5-.2.8v.3c0,0,0,.3,0,.3,0,1.2.4,3.3,3.4,4.6,1,.7,2.1,1,3.3,1,2.2,0,4.6-1.2,6.5-3.1,2-2,2.4-2.9,2.8-4.5,0-.2.1-.5.2-.8v-.2c0,0,0-.2,0-.2v-.7c.1-1.3.2-1.9.2-2.6,0-4.5-2-7.6-3.8-10.3h-.1c-1.5-2.4-2.7-4.3-2.6-6.5v-.3s0-.3,0-.3c-.1-.6.6-2.5,1.2-3.1,0,0,.1,0,.2,0,.5-.2,1.1-.5,1.5-1.1.4-.4.8-.5,1.4-.7,1.3-.5,3.6-1.2,3.7-5.1v-.4s-.1-.4-.1-.4c-1.4-3.6-3.5-4.3-5.1-4.3"/>
            <path class="st7" d="M228.4,56c-1.5,0-3.1-1.1-3.8-2.6h0c0,0,0-.2,0-.2-.5-2.5-1.2-4.1-2.2-6.4l-.4-1c-.3-.6-.6-1.2-.8-1.8-.4-.8-.8-1.6-1.1-2.5l-.7-1.9-.7-1.8c0-.2-.2-.4-.3-.7,0,1.3.4,8.6.6,9.4v.2c0,0,0,.2,0,.2-.1,1.4-.5,2.5-1.4,3.9v.2c-.1,0-.2.1-.2.1-.7.6-1.7.9-2.6.9s-2.2-.4-3.1-1.1l-.2-.2-.2-.5c-.5-1.4-.9-2.3-.9-4.1s0-.6,0-.9c0-.2,0-.4,0-.5,0-.2,0-.4-.1-.6,0-.3-.2-.7-.2-1.1,0-.8,0-1.5.2-2.2.1-.6.2-1.1.2-1.6,0-.2,0-.4-.2-.7,0-.3-.2-.7-.2-1-.1-1.6-.2-3.3-.2-4.9,0-1.1,0-2.1-.1-3.2,0-.2,0-.4-.2-.6-.2-.6-.6-1.5-.1-3-.1-1-.3-1.9-.4-2.7-.2-1-.4-2.1-.5-3.4,0-.6,0-1.1,0-1.7s0-1.4-.1-2.1c-.2-1.6-.4-2.8-.4-4.7s0-2.2-.5-3.2v-.2c-.1,0-.1-.2-.1-.2-.1-2.9.9-4.1,4.2-4.8.2,0,.4,0,.5,0,3.6,0,4,4.9,4.1,6.8,0,.2,0,.5,0,.8,0,.4.1.9.1,1.4s0,.6,0,.9c0,.3,0,.5,0,.8s0,.4,0,.7c0,.3,0,.6,0,1s0,.8,0,1.1c0,.6,0,.8.3,1.8v.2c0,0,0,.2,0,.2,0,1.7,0,2.4.2,4.1.4.7,1,2.2.8,2.8l-.2.5c0,.2,0,.3,0,.4.2-.4.5-.7.7-1.1l.2-.3c1-1.5,3.5-5.1,4.4-6.4h0c0-.1.1-.2.1-.2.7-.6,1.5-.9,2.3-.9s2.1.6,3.1,1.7c.9,1,1.2,2.5.9,3.8h0c0,.1,0,.2,0,.2-.5.9-.7,1.2-1,1.7l-.5.8c-.4.6-1.1,1.4-2,2.4-.7.7-1.4,1.5-2,2.2.1.4.2.8.3,1.1.3,1,.5,1.9,1.1,2.7l.2.2v.3c.1.5.5,1,.8,1.5.4.5.7,1.1.9,1.7.1.4.2.8.2,1.1,0,.2,0,.3,0,.5.2.9.7,1.8,1.2,2.7.7,1.2,1.5,2.6,1.8,4.4.5,1,.6,1.3.9,2.2,0,.3.1.6.3,1h0v.2c0,.2.1.4.2.7.2.7.3,1,.3,1.2,0,2-.7,3-2.5,4-.4.2-.9.3-1.3.3"/>
            <path class="st4" d="M212.2,3.9c2.2,0,2.9,2.7,3.1,5.9,0,.7.2,1.4.2,2.1s0,1.2,0,1.7.1,1.1.1,1.7c0,1.6-.3,1.5.3,3.2,0,1.8,0,2.6.2,4.4.3.4.9,2.1.8,2.1,0,0,0,0,0-.1-.8,2.8.1,2.5.1,3.9.9-.9,1.6-2.1,2.4-3.2.9-1.4,3.4-5.1,4.4-6.3.6-.4,1.1-.7,1.7-.7s1.6.4,2.3,1.3c.6.7.9,1.9.6,2.9-.6,1.2-.7,1.3-1.4,2.4-.7,1.1-3.2,3.4-4.2,5,.6,1.5.7,3.2,1.8,4.6.2,1.2,1.4,2.3,1.8,3.4.1.4.2,1,.3,1.4.5,2.4,2.7,4.2,3.1,7.2.8,1.4.6,1.4,1.1,3.2,0,.2.5,1.6.5,1.8,0,1.5-.4,2.3-2,3.1-.3.1-.6.2-.9.2-1.1,0-2.3-.8-2.9-2-.6-3-1.5-4.7-2.6-7.5-.6-1.5-1.4-2.8-1.9-4.3l-.7-1.9-.7-1.8c-.3-.7-.7-1.5-1-2.3-.4.4-1.1,1-1.2,1.6-.1.5.3,9.4.6,10-.1,1.3-.5,2.3-1.3,3.4-.6.4-1.3.7-2,.7s-1.7-.3-2.4-.9c-.6-1.5-.9-2.3-.9-4s.2-1.1.1-1.5c0-.5-.3-1-.3-1.7-.1-1.2.5-2.5.4-3.7,0-.6-.3-1.2-.4-1.7-.2-2.6-.2-5.3-.3-8.1,0-1-.9-1.6-.3-3.4-.2-2.5-.7-3.9-.9-6.3-.1-1.3,0-2.6-.1-3.8-.2-1.7-.3-2.8-.3-4.5s0-2.5-.6-3.6c-.1-2.4.6-3.2,3.3-3.7.1,0,.2,0,.3,0M212.2,1.9c-.2,0-.3,0-.5,0h-.2c-3.1.6-5.1,1.9-5,5.9v.4s.2.4.2.4c.4.8.4,1.7.4,2.7,0,2,.1,3.2.4,4.8,0,.6,0,1.2,0,1.9s0,1.1,0,1.8c.1,1.4.3,2.4.5,3.5.1.8.3,1.6.4,2.5-.4,1.7,0,2.7.2,3.4,0,.1.1.3.1.3,0,1.1,0,2.1.1,3.2,0,1.6,0,3.3.2,5,0,.5.2.9.3,1.2,0,.2.1.4.1.5,0,.3,0,.8-.2,1.3-.2.7-.3,1.5-.3,2.5,0,.5.2,1,.2,1.3,0,.1,0,.3,0,.4,0,0,0,.2,0,.3,0,.3-.1.6-.1,1,0,2,.4,3,1,4.5v.2c.1,0,.3.5.3.5l.4.3c1.1.9,2.4,1.4,3.7,1.4s2.3-.4,3.2-1.1l.3-.2.2-.3c1-1.5,1.5-2.9,1.6-4.4v-.5s0-.3,0-.3c0-.4-.2-1.6-.2-3,.2.4.4.8.6,1.2.3.6.6,1.2.8,1.8l.4,1c.9,2.2,1.6,3.8,2.1,6.2v.2c0,0,.2.2.2.2.9,1.9,2.8,3.2,4.7,3.2s1.3-.2,1.8-.5c2.1-1.1,3-2.6,3-4.9s-.1-.9-.4-1.6c0-.1-.1-.3-.2-.5h0c0,0,0-.3,0-.3-.1-.4-.2-.8-.3-1-.2-.8-.3-1.3-.9-2.2-.3-1.9-1.1-3.3-1.9-4.6-.5-.9-1-1.7-1.1-2.4,0-.1,0-.3,0-.4,0-.4-.1-.8-.3-1.2-.3-.8-.7-1.4-1.1-1.9-.3-.4-.6-.9-.6-1.1v-.5c0,0-.4-.4-.4-.4-.5-.6-.7-1.4-.9-2.3,0-.2-.1-.4-.2-.6.5-.5,1-1.2,1.6-1.7.9-1,1.7-1.8,2.1-2.5.2-.3.3-.5.5-.7.3-.5.5-.9,1-1.8v-.2c.1,0,.2-.2.2-.2.4-1.6,0-3.5-1.1-4.7-1.2-1.3-2.5-2-3.9-2s-2,.4-3,1.1l-.2.2-.2.2c-.7,1-2.4,3.4-3.6,5.1-.1-.3-.3-.6-.4-.8-.2-1.5-.2-2.2-.2-3.7v-.8c-.4-.8-.4-.9-.4-1.4,0-.3,0-.6,0-1.2s0-.8,0-1.1c0-.2,0-.4,0-.5,0-.2,0-.5,0-.7,0-.3,0-.6,0-1,0-.6,0-1.1-.1-1.6,0-.2,0-.5,0-.7-.1-1.9-.6-7.8-5.1-7.8"/>
          </g>
        </g>
      </g>
    </g>
  </g>
</svg>