<?xml version="1.0" encoding="UTF-8"?>
<svg id="Layer_2" xmlns="http://www.w3.org/2000/svg" version="1.1" xmlns:xlink="http://www.w3.org/1999/xlink" viewBox="0 0 336.7 90.7">
  <!-- Generator: Adobe Illustrator 29.7.1, SVG Export Plug-In . SVG Version: 2.1.1 Build 8)  -->
  <defs>
    <style>
      .st0 {
        fill: none;
      }

      .st1 {
        clip-path: url(#clippath-1);
      }

      .st2 {
        fill: #f914a5;
      }

      .st3 {
        fill: #231f20;
      }

      .st4 {
        fill: #11fffa;
      }

      .st5 {
        fill: #fef818;
      }

      .st6 {
        fill: #fe0d0d;
      }

      .st7 {
        fill: #01f61c;
      }

      .st8 {
        fill: #4b58ff;
      }

      .st9 {
        clip-path: url(#clippath);
      }
    </style>
    <clipPath id="clippath">
      <rect class="st0" width="336.7" height="90.7"/>
    </clipPath>
    <clipPath id="clippath-1">
      <rect class="st0" width="336.7" height="90.7"/>
    </clipPath>
  </defs>
  <g id="Replace_with_delete_layer_">
    <g id="neues_logo">
      <g class="st9">
        <g class="st1">
          <g>
            <path class="st7" d="M255.5,53.4c0,0-.1,0-.2,0-2.8-.6-3-3.1-3.1-4.8,0-.3,0-.5,0-.8-.7-1.4-.6-2.1-.5-2.9,0-.3,0-.6,0-1-.1-2.1-.4-4.4-.6-6.8-.4-3.8-.8-7.7-.8-11.3-.4-.9-.7-2.1-.4-3.4-.2-2-.2-4.5,1.9-7.2.2-.3.5-.4.8-.4s.2,0,.2,0l1,.2c2,.5,2.3.5,3.2,1.7.1.2.3.4.5.6.1.1.2.3.2.4.4,1.8,1.5,4.2,2.4,6.3.5,1.1,1,2.2,1.4,3.2.2.4.4.7.6,1,.6.9,1,1.6,1.5,3,.5.5,1,1.2,1.5,2.1,0-.1,0-.2,0-.3,0,0,0-.2,0-.2,0-.3,0-1.5,0-2.2,0-1.2,0-2.4,0-3.2-.1-.8-.1-1.7,0-2.7-.8-3.8-1.5-7.6,1.9-11,.2-.2.4-.3.6-.3.2,0,.5,0,.7,0,1.6,0,2.8.7,3.8,2.2,0,.1.1.3.2.5.2,2.3.2,4.4.2,6.3s0,3.9.2,6c0,.1,0,.3,0,.4-.5,1.5-.4,3.1-.4,4.9,0,1.3,0,2.6-.1,3.9.2,1.4.2,3,0,4.3.2.9.4,2.3.5,3.5,0,.7.1,1.2.2,1.7,0,.2,0,.4,0,.6l-.4.9c0,.3-.2.5-.3.6,0,0,0,0,0,0-.1.5-.5,1.6-2.4,1.6s-1.9-.2-3.2-.7c-.1,0-.3-.1-.4-.2-1.8-1.7-2.6-3.1-3.5-4.7-.3-.5-.6-1-.9-1.5-.4-.6-.9-1.4-1.5-2.4-.5-.8-1-1.6-1.5-2.4.3,1.9.5,3.5.4,4.5,0,.6,0,1.1.2,1.7.1.9.3,1.8.1,3.1,0,.8,0,2.6-.9,3.7-.3.4-.7.6-1.2.7-.1.2-.3.4-.6.5l-1,.4c-.1,0-.2,0-.4,0"/>
            <path class="st3" d="M268.4,14.5c1.3,0,2.1.5,2.9,1.7.5,4.5,0,8.1.5,12.4-.9,2.8-.1,6.2-.6,9.1.2,1.3.3,3,0,4.4.4,1.3.5,4,.7,5.3l-.5,1.1h0s-.5.6-.3.6c0,.5-.5.8-1.3.8s-1.6-.2-2.8-.6c-2.2-2.1-2.8-3.6-4.2-6-1.2-2-5-7.6-6.1-9.9.4,2.2,1.7,8.1,1.4,10.1,0,1.7.6,2.9.3,4.8.1,1-.1,3.3-1.3,3.3,0,0,0-.1,0-.1-.2,0-.5.5-.6.7l-1,.4c-2.5-.5-2.1-2.9-2.4-4.8-1-2-.4-2.1-.5-3.7-.4-5.6-1.4-12.4-1.4-18.2-.4-.9-.7-2-.4-3.1-.3-2-.2-4.2,1.6-6.6,3.5.8,2.7.5,4.1,2.2.6,2.9,2.8,7,3.9,9.7,1,1.7,1.6,2.2,2.1,4.1.9.5,3,4.9,3.5,6.3,0-1.4-.3-3.8,0-4.8.4-.6-.1-4.5.3-5.9-.1-.9-.1-1.9,0-2.8-.8-3.7-1.5-7.2,1.6-10.2.2,0,.4,0,.6,0M268.4,12.4c-.2,0-.5,0-.8,0-.5,0-1,.3-1.3.6-3.8,3.8-3,8-2.2,11.8-.1,1-.1,1.8,0,2.6-.1.7-.1,1.4-.1,2.3-.3-.8-.7-1.3-1.1-1.9-.2-.3-.4-.5-.5-.9-.4-1-.8-2-1.3-3.1-.9-2.1-2-4.4-2.3-6.1,0-.3-.2-.6-.4-.9-.2-.2-.3-.4-.5-.6-1.1-1.4-1.6-1.6-3.8-2.1-.3,0-.6-.1-1-.2-.2,0-.3,0-.5,0-.6,0-1.3.3-1.7.8-2.3,2.9-2.3,5.8-2.1,7.8-.2,1.4,0,2.6.4,3.6,0,3.6.4,7.4.8,11.2.2,2.4.5,4.6.6,6.7,0,.3,0,.5,0,.8-.1.9-.1,1.8.6,3.3,0,.2,0,.4,0,.6.1,1.7.4,5,4,5.7.1,0,.3,0,.4,0,.2,0,.5,0,.7-.1l1-.4c.3-.1.6-.3.9-.6.5-.2,1-.5,1.3-.9,1.2-1.4,1.2-3.5,1.2-4.3.1-1.3,0-2.3-.1-3.3,0-.5-.1-1-.2-1.5,0,0,0-.2,0-.3.3.4.5.8.7,1.1.3.5.6,1,.9,1.5,1,1.7,1.8,3.1,3.7,4.9.2.2.5.4.8.5,1.4.5,2.6.8,3.5.8,2,0,3-1.1,3.4-2.2.2-.2.3-.5.4-.7l.4-.8c.2-.4.2-.8.1-1.2,0-.4-.1-1-.2-1.6-.1-1.2-.2-2.5-.5-3.5.1-1.3.1-2.8,0-4.2.2-1.3.1-2.7.1-3.9,0-1.7,0-3.2.3-4.5,0-.3.1-.6,0-.9-.2-2-.2-3.9-.2-5.9s0-4.1-.2-6.4c0-.3-.1-.7-.3-.9-1.2-1.8-2.6-2.6-4.6-2.6"/>
            <path class="st6" d="M291.3,53.2c-2,0-3.6-1.3-4-3.2,0,0,0,0,0-.1,0-.8-.1-1.7,0-2.6-.7.6-2,1.3-3.6,1.3s-.9,0-1.3-.2c-.2,0-.4,0-.6,0-1.1,0-2.2-.6-3.1-1.1-.5-.3-1-.6-1.4-.7-.2,0-.4-.1-.5-.3-2.1-2-2.5-5.8-2.5-8.7s.4-2.8.8-4c.1-.5.3-.9.4-1.4,0,0,0,0,0-.1,1.9-4.8,6.4-8.4,10.8-8.4s.4,0,.6,0c0-1.2,0-2.9,0-3.5-.3-1.5-.3-3.1-.3-4.6,0-1.6,0-3-.3-4.4,0,0,0-.2,0-.3v-1.1c0-.2,0-.5,0-.7,0-.7,0-1.3.1-2.2,0-.1,0-.2.1-.3.9-1.6,2.4-2.6,4-2.8.1,0,.3,0,.4,0,2.1,0,3.7,1.5,4,3.7.1.9,0,1.9-.5,3.1-.2,3.5,0,5.9.7,8,0,.1,0,.3,0,.4-.3,2.5-.2,6.5-.2,9.5,0,.9,0,1.7,0,2.3.4,3.2.4,6.6.4,9.8,0,1.9,0,3.7,0,5.5,0,.3,0,.6,0,.8,0,.8,0,1.5,0,2.4-.2,1.1-.6,1.6-1.1,2.3-.1.2-.3.4-.5.6-.1.2-.3.3-.5.4-.7.2-1.3.4-1.9.4M283,35.6c-.5,1.4-.7,2.2-.5,3.2,0,0,0,0,0,.1.1,1.3,1.1,1.4,1.4,1.4h0c.4,0,.9-.2,1.3-.3.3-.1.5-.2.8-.3,0,0,.4-.3.5-.4.2-.2.4-.4.6-.6,0-1.1,0-2.3,0-3.6,0-.6,0-1.2,0-1.7,0-.3-.1-.6,0-.8-.2,0-.3,0-.4,0s-.3,0-.4,0c-.9.2-1.9,1-3,2.4l-.2.6h0Z"/>
            <path class="st3" d="M290.8,5.2c1.5,0,2.7,1,2.9,2.8.1.8,0,1.7-.5,2.7-.2,3.5,0,6.1.7,8.5-.4,3.3-.1,9.3-.1,12,.7,5.1.2,10.4.4,15.2,0,1.3.1,2,0,3-.1,1-.6,1.3-1.4,2.5-.6.2-1.1.3-1.5.3-1.6,0-2.7-1.1-2.9-2.4-.1-1.6-.1-3.2.1-4.9-.1,0-1.4,1.1-1.4,1.1-.7.6-1.8,1.5-3.4,1.5s-.9,0-1.4-.2c-.2,0-.4.1-.6.1-1.3,0-3.1-1.5-4.2-1.8-1.9-1.8-2.2-5.4-2.2-7.9s.7-3.3,1.2-5.1c1.6-4.2,5.6-7.7,9.8-7.7s1.1,0,1.7.2c0-.5-.1-4.4,0-4.9-.7-3,.1-6.2-.6-9.1v-1.1c0-1-.1-1.6.1-2.7.8-1.4,2-2.2,3.1-2.2.1,0,.2,0,.3,0M286.6,31.6c-.1,0-.2,0-.3,0-1.5.3-2.8,1.5-4,3-.6,2-1.1,3-.8,4.5.1,1.7,1.4,2.4,2.4,2.4h.1c.8,0,1.6-.5,2.3-.7.7-.2,1.2-1.2,1.9-1.4.1-1.8,0-4.3,0-6.2-.3-.2.1-1.3-.2-1.6,0,0-.1,0-.2,0-.3,0-.8.1-1.2.1M290.8,3.1h0c-.2,0-.3,0-.5,0-1.9.2-3.7,1.4-4.8,3.3-.1.2-.2.4-.2.6-.2,1-.2,1.8-.2,2.4,0,.2,0,.4,0,.6v1.1c0,.2,0,.4,0,.6.3,1.2.3,2.6.3,4.1,0,1.5,0,3.1.3,4.7,0,.5,0,1.5,0,2.4-4.7.2-9.3,3.9-11.3,9,0,0,0,.2,0,.2-.1.5-.3.9-.4,1.3-.4,1.2-.8,2.5-.8,4.3,0,3,.5,7.1,2.9,9.4.3.3.6.5,1,.5.2,0,.7.3,1.1.5,1.1.6,2.3,1.3,3.6,1.3s.4,0,.6,0c.4,0,.9.1,1.3.1,1,0,1.8-.2,2.6-.5,0,.3,0,.5,0,.8,0,0,0,.2,0,.3.5,2.4,2.5,4.1,5,4.1s1.5-.2,2.3-.4c.4-.2.7-.4,1-.8.2-.2.3-.4.4-.6.6-.8,1.1-1.5,1.3-2.8.1-1,.1-1.7,0-2.6,0-.2,0-.5,0-.8,0-1.7,0-3.5,0-5.4,0-3.2,0-6.6-.4-9.9,0-.6,0-1.4,0-2.2,0-3-.1-7,.2-9.4,0-.3,0-.6,0-.9-.6-1.9-.8-4.2-.6-7.4.5-1.2.6-2.4.5-3.4-.3-2.7-2.4-4.7-5-4.7M284.1,35.6c.5-.7,1.2-1.4,1.9-1.8,0,.4,0,.9,0,1.3,0,1,0,2.1,0,3-.1.1-.2.2-.3.3,0,0-.2.2-.3.2-.2,0-.5.2-.7.2-.3.1-.7.3-.9.3-.3,0-.3-.2-.4-.5,0,0,0-.2,0-.2-.1-.7,0-1.2.5-2.6,0-.1,0-.2.1-.4"/>
            <path class="st5" d="M309.6,47.6c-4.1-.2-7-2.8-9.6-5.4l-.3-.3c-.5-.5-1-1-1.4-1.6-.2-.3-.3-.6-.4-.8v-.2c-.2-.3-.3-.7-.5-1-.5-1.2-1-2.5-1.2-3.9,0-.1,0-.3-.2-.5,0-.2-.2-.4-.2-.6,0-.1,0-.2,0-.4.4-5.1,1.2-10.5,5.5-13.7,1.6-1.3,3.6-2,5.5-2s3.4.6,4.8,1.7c.3.3.5.5.8.7.6.5,1.2,1,1.6,1.5.2.4.6.8.9,1.1.7.8,1.4,1.6,1.7,2.8,0,.2.1.5.2.8,0,0,0,0,0,.1.1.3.3.6.4,1,.1.6,1,4.4-.3,6.3-.4.6-1,1-1.6,1.2l-1,.4c-.1,0-.3,0-.4,0s-.4,0-.6,0c-1.9,0-4.6.3-8.1.9.1.2.2.4.3.6.2.2.4.3.5.5.6.6,1.1,1.1,1.7,1.5.6,0,1,.2,1.5.5.3,0,.7,0,1,.2l.9.2c.1,0,.2,0,.3.1.2.1.4.2.6.3,1,.5,2.6,1.3,2.1,3.9v.2c0,.3-.1.6-.3.9-.5,1-1.3,1.3-1.9,1.5-.2,0-.4.1-.6.2l-1.3.7c-.1,0-.3.1-.5.1h0M306.3,25.7c-.6.3-1.1,1.3-1.4,2.3.4,0,.8,0,1.2-.1,1.2-.1,2.7-.3,3.7-.5-.1-.3-.3-.5-.4-.6-.1-.1-.2-.2-.3-.4,0,0-.5-.5-2.7-.7"/>
            <path class="st3" d="M306.9,18.4c1.4,0,2.9.5,4.1,1.5.6.6,1.7,1.3,2.1,2,.8,1.3,2.1,2.2,2.5,3.7.1.3.1.5.1.7.1.4.4.7.4,1,0,0,1.4,5.7-1.2,6.2l-1.1.5c-.2,0-.4,0-.6,0-3,0-7,.7-9.7,1.1.3.7.8,1.4,1.1,2,.9.9,1.8,1.8,2.8,2.5.6,0,1,0,1.5.5.3,0,.7,0,1,.2l1,.3c1.1.7,2.7.8,2.2,3.1,0,.3-.1.6-.2.8-.5.9-1.3.9-2,1.3l-1.3.7c-3.7-.2-6.4-2.6-8.9-5.1-.5-.5-1.2-1.1-1.5-1.7-.1-.3-.3-.6-.4-.8-.6-1.6-1.3-3-1.5-4.7,0-.5-.3-.8-.4-1.2.4-4.8,1.1-9.9,5.1-13,1.4-1.1,3.1-1.7,4.9-1.7M303.4,29.3c1.7-.3,5.8-.5,7.5-1,.3-.6-.5-2-1-2.3-.5-1-2.8-1.2-3.8-1.3-1.5.6-2.4,3.1-2.7,4.7M306.9,16.2h0c-2.1,0-4.3.8-6.2,2.2-4.6,3.5-5.5,9.1-6,14.5,0,.3,0,.5,0,.8,0,.3.2.5.3.7,0,0,0,.1,0,.2.2,1.6.7,2.9,1.3,4.2.1.3.3.7.4,1v.2c.2.3.3.6.5,1,.4.7,1,1.3,1.5,1.8.1.1.2.2.3.3,2.7,2.7,5.9,5.5,10.3,5.7h0c.4,0,.7,0,1-.3l1.3-.7c0,0,.2-.1.4-.2.7-.2,1.8-.7,2.5-2,0,0,0,0,0,0,.2-.4.3-.9.4-1.2h0c.7-3.6-1.6-4.7-2.6-5.2-.2,0-.4-.2-.5-.3-.2-.1-.4-.2-.6-.3l-.9-.2c-.4-.1-.7-.2-1-.3-.5-.3-1-.4-1.4-.5-.3-.3-.7-.6-1-.9,2.5-.4,4.6-.6,6.1-.6h.6c.3,0,.6,0,.8-.2l.9-.4c.9-.2,1.7-.8,2.2-1.6,1.4-2.2.7-5.9.4-7.1,0-.5-.3-.9-.4-1.2,0-.2-.1-.5-.2-.8-.3-1.4-1.2-2.4-1.9-3.2-.3-.4-.6-.7-.8-1-.5-.8-1.2-1.3-1.8-1.8-.2-.2-.5-.4-.6-.5,0,0-.1,0-.1-.1-1.5-1.3-3.4-2-5.5-2"/>
            <path class="st8" d="M332.3,51.6c-.8,0-1.6-.2-2.5-.7-.1,0-.2-.1-.3-.2l-.2-.2h-.1c-.7-.7-1.1-1.3-1.4-1.9l-.4-1.2c0-.2-.1-.4-.2-.5,0-.2-.1-.3-.2-.5,0,0,0,0,0-.1-.5-1.5-1.2-3.3-2-5,0,1.3,0,3,0,3.4v.8c.2.6.3,1.1.3,1.2,0,.3.1.7-.7,3,0,.2-.2.4-.4.5-.1,0-.9.6-1.7.6s-.2,0-.3,0l-2.3-.7c-.4-.1-.6-.4-.7-.7l-.3-1.2c-.8-1.4-.7-3-.6-3.7v-.8c0-.2,0-.4,0-.6,0-.2,0-.5,0-.8,0-.8,0-2,0-3s0-2.2.1-3.1c0,0,0,0,0-.1l.2-.7s0-1.1,0-1.1c0-1,0-1.8.2-2.6,0-.3.2-.9.2-1.2,0-.4,0-.8,0-1.1,0-.1,0-.3-.1-.5,0,0,0-.1,0-.2,0-.2,0-.5,0-.7l.4-1.1s0-.1,0-.1c.4-.9,1.5-2.9,3.7-2.9h2.3c1,0,2.1,0,3.1.2,2.4.3,4.6,2.1,5.7,4.4.4,1.1.6,2.1.6,2.9,0,2.2-1.1,3.4-2.2,4.6l-.3.3-.4.6c0,0-.1.2-.2.3,0,0-.1,0-.1,0,0,0,0,.1,0,.2h0s.3.4.3.4c0,.1.1.2.2.4v.6c.1,0,2.5,5.5,2.5,5.5.2.2.4.6.5,1,0,0,0,.1,0,.2,0,.1.1.2.1.3l.4.5c0,.1.1.2.2.4.2.9.5,2-.2,2.9-.7,1.8-2.1,2.1-2.9,2.1M325.5,31.5c0,.2,0,.5,0,.9v.4c.1,0,.2,0,.3,0l.2-.2,1-.9v-.8c0-.2-.9-.3-1.4-.4,0,.3,0,.5,0,.7,0,.1,0,.2,0,.4"/>
            <path class="st3" d="M325,24.9c.9,0,2,0,2.9.1,2.1.3,4,2,4.9,3.8.4,1.1.5,1.9.5,2.5,0,1.7-.8,2.7-1.9,3.9l-.4.4-.4.6c-.2.2-.5.4-.8.6.1.3.3.6.4.8,0,.3,0,.2,0,.3l.4.6.2.8h0s2.5,5.7,2.5,5.7c0,0,0-.1,0-.1,0,0,.2.4.4.7h0c.1.2.2.5.2.5h0l.5.7c.2.8.4,1.5-.1,2.2-.4,1.1-1,1.6-1.9,1.6s-1.3-.2-2.1-.6l-.3-.3-.2-.2c-.5-.4-.8-.8-1-1.3l-.4-1.2c-.1-.4-.3-.8-.4-1.1-.8-2.4-1.7-4.8-3.2-7,0,0,0,0-.1,0,0,0-.6-.8-.7-.8,0,.4,0,.7,0,1h0c0,.3-.1.7,0,1,0,.9-.1,4.5,0,5v.7c.1.6.2,1.1.3,1.3,0,.3-.7,2.4-.7,2.4,0,0-.6.4-1.1.4l-2.3-.7-.4-1.3c-.7-1.1-.6-2.4-.6-3.2v-.8c0-.5,0-.9,0-1.4,0-.9,0-2,0-3s0-2.1.1-3l.2-.9v-1.4s0,0,0,0c0-.9,0-1.6.1-2.4.1-.5.2-1.1.2-1.5-.1-.5,0-1.1,0-1.1-.1-.3-.2-.7-.3-.9l.4-1.1c.5-.9,1.2-2.3,2.8-2.3h2.3ZM324.4,34.1c.4-.2,1.6-.4,2-.5l.4-.3,1.3-1.2v-1.2c.1-1.6-3.1-1.5-3.7-1.7,0,0,.3,1.5.1,1.8,0,0,0,.2,0,.3,0,.5,0,2.2-.1,2.9M325,22.7h-2.3c-2.9,0-4.2,2.6-4.7,3.5,0,0,0,.2-.1.3l-.4,1.1c-.1.4-.1.9,0,1.4h0c0,.2,0,.3,0,.4,0,.3,0,.7,0,1,0,.2,0,.5-.2.9,0,0,0,0,0,.1-.1.8-.2,1.6-.2,2.8h0c0,0,0,1,0,1v.6c-.2,0-.2.2-.2.2-.1,1-.1,2.1-.1,3.2s0,2.1,0,3c0,.3,0,.5,0,.8,0,.2,0,.3,0,.5v.8c0,.8-.1,2.5.7,4.1l.3,1.1c.2.7.7,1.3,1.4,1.5l2.3.7c.2,0,.4,0,.6,0,1.1,0,2.1-.6,2.3-.8.4-.2.6-.6.8-1,.4-1.2.6-1.9.7-2.4,0,0,0,0,0,0l.3,1.1c.3.9.8,1.7,1.7,2.4h.1c0,0,.2.3.2.3.2.2.4.3.5.4,1.1.6,2.1.8,3,.8,1.8,0,3.1-1,3.8-2.7.9-1.3.5-2.7.3-3.6h0c0-.3-.2-.6-.3-.8l-.3-.4c0,0,0-.2-.1-.2,0,0,0-.1,0-.2-.1-.3-.3-.7-.5-1l-2.2-5.3v-.5c-.2-.2-.3-.4-.4-.6l.3-.4.2-.3c1.1-1.2,2.4-2.7,2.4-5.3s-.2-2-.6-3.2c0,0,0-.1,0-.2-1.2-2.7-3.8-4.6-6.5-5.1-1-.2-2.3-.2-3.3-.2"/>
            <path class="st2" d="M232.6,89.1c-.9,0-1.8-.2-2.9-.4-5.3-1.4-8.5-2.7-8.6-10.2,0-3.7,2-6.7,3.6-8.5.2-.2.4-.4.7-.4,1.2-.3,2.2-.7,3-1,1.5-.6,2.9-1.1,4.3-1.1s.7,0,1,0c1.6.3,3.1,1.2,5,3,.9.8,1.9,2,2.7,4,0,.1,0,.3.1.4.4,3.6-.4,8.8-4.2,12-1.4,1.5-2.9,2.1-4.8,2.1M236.1,60.9c-.3,0-.7,0-1,0-1.5-.2-5.1-1.3-5.5-7.7,0-.1,0-.3,0-.4.2-1,.4-1.7.6-2.2.2-.8.3-1.1.1-2.9,0-.5.1-1,.5-1.3l.5-.5c.1-.8.3-1.5.5-2.3.6-3,1.2-5.9,1.3-8.9,0-.2,0-.3,0-.5.9-2.7,1.4-5.1,1.8-7.5.6-3.1,1.2-6.3,2.8-10,0-.5.1-1.1.2-1.6.3-2,.5-4,1.2-6.1.5-3.6,3.3-6.1,6.9-6.1s.7,0,1.1,0c1.2.2,2.5.7,3.5,1.3.2.1.3.3.5.4,2.5,3.5,2.4,8.8,1.1,12.4l-.3.8c-.6,1.7-.6,1.8-.2,3.8,0,.4,0,.8-.1,1.1-.7,1.3-1.1,2.4-1.1,3.5,0,.3,0,.7,0,1.2,0,.1,0,.3,0,.5-2.3,6.3-3.1,12.1-4,18.2-.4,3-.9,6.2-1.6,9.5,0,.2-.1.4-.3.6-1.6,2.3-5.1,4.7-8.4,4.7"/>
            <path class="st3" d="M245.9,4.6c.3,0,.6,0,.9,0,1,.2,2,.5,2.9,1.1,2.2,3.2,1.9,8,.9,11-.9,2.5-1.1,2.7-.5,5.4-1.4,2.7-1.2,2.4-1.3,5.4-3.5,9.7-3.7,17.9-5.6,27.9-1.3,1.9-4.4,4-7.1,4s-.5,0-.7,0c-2.1-.2-3.9-2-4.1-6.2.6-3,1.1-2.4.7-5.5l.8-.8c.8-4,1.8-7.9,1.9-12,2.1-6.4,1.9-11.2,4.6-17.5.4-2.6.6-5.2,1.5-7.8.4-3.2,2.7-4.8,5.3-4.8M232.8,69.1c.2,0,.5,0,.7,0,1.3.2,2.5,1,4.1,2.5.7.7,1.6,1.7,2.3,3.5.4,3.5-.5,8-3.7,10.7-1.1,1.1-2.1,1.7-3.7,1.7s-1.5-.1-2.5-.4c-5.1-1.4-7.4-2.3-7.4-8.6,0-3,1.5-5.5,3.2-7.4,3.2-.9,5.1-2,6.9-2M245.9,1.4h0c-4.4,0-7.8,2.9-8.4,7.3-.7,2.2-1,4.3-1.3,6.2,0,.5-.1.9-.2,1.4-1.6,3.7-2.2,7-2.8,10.1-.5,2.4-.9,4.7-1.8,7.3-.1.3-.2.6-.2,1,0,2.8-.6,5.6-1.2,8.6-.1.6-.2,1.2-.4,1.8h-.1c-.7.8-1.1,1.8-.9,2.8.2,1.5.1,1.6,0,2.2-.1.5-.4,1.2-.6,2.3,0,.3,0,.6,0,.8.5,7.5,4.9,8.9,6.9,9.2.4,0,.8,0,1.2,0,3.8,0,7.8-2.7,9.6-5.3.3-.4.4-.8.5-1.2.7-3.4,1.1-6.5,1.6-9.6.9-6,1.7-11.7,3.9-17.8.1-.3.2-.6.2-.9,0-.5,0-.9,0-1.3,0-.8.3-1.7.9-2.8.4-.7.5-1.5.3-2.2-.2-1-.2-2,.1-2.9,0-.2.2-.5.3-.8,1.4-4.1,1.5-9.9-1.4-13.9-.2-.3-.6-.7-.9-.9-1.2-.8-2.6-1.3-4-1.5,0,0,0,0-.1,0-.4,0-.9,0-1.3,0M232.8,65.9h0c-1.7,0-3.1.5-4.8,1.2-.9.3-1.8.7-2.9,1-.6.2-1.1.5-1.5.9-2.7,2.9-4.1,6.2-4.1,9.6,0,8.4,4.1,10.2,9.8,11.7,1.2.3,2.3.5,3.3.5,2.9,0,4.7-1.4,5.9-2.6,4.1-3.6,5.1-9.2,4.7-13.3,0-.3-.1-.6-.2-.8-.9-2.3-2.1-3.6-3.1-4.6-2.1-2-3.8-3-5.8-3.4,0,0,0,0,0,0-.4,0-.8,0-1.2,0"/>
            <path class="st5" d="M13.2,46c-.4,0-.8,0-1.2,0-.2,0-.4,0-.7,0-.9,0-1.9-.2-2.7-.8-1-.7-1.3-2.4-1.1-3.7.1-1,.4-1.7,1-2.2,0-2.5-.9-7.3-1.3-8.5v-.3c-.1,0,0-.3,0-.3.2-1.2-.9-5.4-1.7-8.2-.3-1.1-.6-2.1-.7-2.9-.2,0-.3,0-.5,0-.7,0-1.4-.3-2.2-1.1h-.1c0,0,0-.2,0-.2-1-1.5-.5-2.8,0-4.1l.3-.7.2-.2c1.4-1.2,3.2-2.3,5.5-3.1,2-.7,4.1-.7,5.9-.7s1.5.2,2.3.5c.4.1.8.2,1.2.3h.3c0,0,2.8,2.5,2.8,2.5,1.7,1.6,1.8,5.2,1.5,6.8,0,1.4-.6,3-1.2,4.3.7.3,1.5.7,2.3,1.4,1.3,1.3,2.7,4.2,2.6,6.9,0,1.2,0,5.2-.6,7-.4,1.2-.8,1.7-1.3,2.4-.2.2-.3.5-.5.8-1,1.6-2.4,2.7-4,3.2-.9.4-2,.5-3.3.7h-.4c-.7.1-1.3.2-1.9.2M15.7,37.2v.2c0,0,0,.3,0,.6.5-.2,1.1-.5,1.5-.6.8-1.3,1.2-3.8.9-6.3,0-.4-.4-.8-.9-1.1-.3,0-1.1-.2-2-.2h-.2c.1.6.3,1.9.2,2.8l.7,4.6h0ZM12,16.6c.3,1.3.8,3.6,1.2,5,.2,0,.5,0,.8,0h.4c.3-1,.7-2.4.6-2.9,0-.6-.6-1.6-1.1-1.7h0s0,0,0,0c-.6-.2-1-.3-1.2-.3s-.3,0-.5.1"/>
            <path class="st3" d="M13.6,10c.9,0,2.2.6,3.2.8l2.6,2.3c1.2,1.1,1.4,4.2,1.1,5.9,0,1.4-.8,3.4-1.7,4.9.6.3,2,.6,3.1,1.6s2.4,3.8,2.2,6.1c.1,1.1,0,5.1-.6,6.7-.5,1.5-.9,1.7-1.7,3s-1.9,2.3-3.5,2.8c-.8.4-2,.5-3.4.7-.6,0-1.2.1-1.8.1s-.7,0-1,0c-.8-.2-2.2-.2-2.9-.7-1-.7-1-4,.3-4.5,0-2.4-.8-8-1.4-9.5.3-2.1-2.2-9.9-2.7-12.5-.6,0-1,.2-1.3.2s-.8-.2-1.5-.9c-.8-1.1-.2-2.1.4-3.5,1.4-1.3,3.3-2.2,5.2-2.9,1.9-.7,3.7-.7,5.5-.7M12.4,22.9c.3-.2,1-.2,1.6-.2s.9,0,1,0h0c.2-.6,1-3.1.9-4,0-.9-.8-2.5-1.9-2.7-.8-.3-1.2-.4-1.6-.4s-.9.2-1.7.4c0,.7,1.4,6.1,1.6,7M14.8,39.3c.8,0,2.7-.8,3.1-1.1,1.1-1.4,1.5-4.4,1.2-7.2-.1-.8-.8-1.5-1.5-2-.5-.2-1.6-.3-2.5-.3s-1.1,0-1.4.1h0c0,0,0,.5,0,.9.1.3.4,2.1.3,2.9l.7,4.6c-.1.4,0,1.7,0,2.2h.1M13.6,7.9c-1.9,0-4.1,0-6.3.8-2.4.8-4.4,1.9-5.9,3.3l-.4.3-.2.5c0,.2-.1.3-.2.5-.5,1.3-1.3,3.1,0,5l.2.2.2.2c.7.6,1.6,1.3,2.7,1.4.2.6.3,1.3.5,2,.6,2.4,1.8,6.8,1.7,7.8v.6c0,0,.1.5.1.5.4,1,1.1,5.2,1.3,7.7-.5.6-.8,1.5-.9,2.5-.2,1.5.1,3.7,1.6,4.7,1,.7,2.2.9,3.2,1,.2,0,.4,0,.6,0,.5,0,.9.1,1.4.1s1.3,0,2-.1h.4c1.3-.2,2.5-.3,3.5-.8,1.9-.6,3.4-1.8,4.5-3.7.2-.3.4-.6.5-.8.5-.7.9-1.3,1.4-2.7.7-1.9.8-6.1.7-7.4,0-3-1.4-6.1-2.9-7.6-.5-.5-1.1-.9-1.6-1.2.5-1.2.9-2.5.9-3.6.3-2.1.1-5.9-1.8-7.7l-2.6-2.3-.4-.4h-.6c-.3-.2-.7-.3-1-.4-.8-.3-1.7-.5-2.6-.5M13.8,19.6c-.1-.6-.3-1.2-.4-1.7h.1s0,0,0,0c.1.2.4.6.4.8,0,.2,0,.5-.1.9M16,32.6c0-.5,0-1.1,0-1.7.2,0,.5,0,.6,0,.2.1.3.3.3.3.2,1.9,0,3.6-.3,4.7l-.5-3.4h0Z"/>
            <path class="st6" d="M38.5,44.6c-4.1-.2-7-2.8-9.6-5.4l-.3-.3c-.5-.5-1-1-1.4-1.6-.2-.3-.3-.6-.4-.8v-.2c-.2-.3-.3-.7-.5-1-.5-1.2-1-2.5-1.2-3.9,0-.1,0-.3-.2-.5,0-.2-.2-.4-.2-.6v-.2s0-.2,0-.2c.4-5.1,1.2-10.5,5.5-13.7,1.6-1.3,3.6-1.9,5.5-1.9s3.4.6,4.8,1.7c.3.3.5.5.8.7.6.5,1.2,1,1.6,1.5.2.4.6.8.9,1.1.7.8,1.4,1.6,1.7,2.8,0,.2.2.5.2.8,0,0,0,0,0,.1.1.3.3.6.3,1,.2.6,1,4.4-.3,6.3-.4.6-1,1-1.6,1.2l-1.2.5h-.2c-.2,0-.4,0-.6,0-1.9,0-4.6.3-8.1.9.1.2.2.4.3.6.2.2.4.3.5.5.6.6,1.1,1.1,1.7,1.5.6,0,1,.2,1.5.5.3,0,.7,0,1,.2l1.1.3h.2c.2.2.4.3.6.4,1,.5,2.6,1.3,2.1,3.9v.2c0,.3-.1.6-.3.9-.5,1-1.3,1.3-1.9,1.5-.2,0-.4.1-.6.2l-1.6.8h-.3ZM35.2,22.8c-.6.3-1.1,1.3-1.4,2.3.4,0,.8,0,1.2-.1,1.2-.1,2.7-.3,3.7-.5-.1-.3-.3-.5-.4-.6h-.2c0-.1,0-.4,0-.4,0,0-.5-.5-2.7-.7"/>
            <path class="st3" d="M35.8,15.4c1.4,0,2.9.4,4.1,1.5.6.6,1.7,1.3,2.2,2,.8,1.3,2.2,2.2,2.5,3.7,0,.3.2.5.2.7.2.4.4.7.4,1,0,0,1.4,5.7-1.2,6.2l-1.1.5c-.2,0-.4,0-.6,0-3,0-7,.7-9.7,1.1.3.7.8,1.4,1.1,2,.9.9,1.8,1.8,2.8,2.5.6,0,1,0,1.5.5.3,0,.7,0,1,.2l1,.3c1.1.7,2.7.8,2.2,3.1,0,.3,0,.6-.2.8-.5.9-1.3.9-2,1.3l-1.3.7c-3.7-.2-6.4-2.6-8.9-5.1-.5-.5-1.2-1.1-1.5-1.7-.1-.3-.3-.6-.4-.8-.6-1.6-1.3-3-1.5-4.7,0-.5-.3-.8-.4-1.2.4-4.8,1.1-9.9,5.1-13,1.4-1.1,3.2-1.7,4.9-1.7M32.3,26.3c1.7-.3,5.8-.5,7.5-1,.3-.6-.5-2-1-2.3-.5-1-2.8-1.2-3.8-1.3-1.5.6-2.4,3.1-2.7,4.7M35.8,13.2h0c-2.1,0-4.3.8-6.2,2.2-4.6,3.5-5.5,9.1-6,14.5v.4s0,.4,0,.4c0,.3.2.5.3.7,0,0,0,.1,0,.2.2,1.6.8,2.9,1.3,4.2.1.3.3.7.4,1v.2c.2.3.3.6.5,1,.4.7,1,1.3,1.5,1.8.1.1.2.2.3.3,2.7,2.7,5.9,5.5,10.3,5.7h.6s.5-.3.5-.3l1.3-.7c0,0,.2-.1.4-.2.7-.2,1.8-.7,2.5-2h0s0,0,0,0c.2-.4.3-.9.4-1.2h0c.7-3.6-1.6-4.7-2.6-5.2-.2,0-.4-.2-.5-.3l-.3-.2h-.3c0,0-.8-.3-.8-.3-.3-.1-.7-.2-1-.3-.5-.3-1-.4-1.4-.5-.3-.3-.7-.6-1-.9,2.5-.4,4.6-.6,6.1-.6h1s.4-.2.4-.2l.9-.4c.9-.2,1.7-.8,2.2-1.6,1.4-2.2.7-5.9.4-7.1,0-.5-.3-.9-.4-1.2,0-.2,0-.5-.2-.8-.3-1.4-1.2-2.4-1.9-3.2-.3-.4-.6-.7-.8-1-.5-.8-1.2-1.3-1.8-1.8-.2-.2-.5-.4-.7-.6h0c0,0,0-.1,0-.1-1.5-1.3-3.4-2-5.5-2"/>
            <path class="st2" d="M54.7,46.3c-3.3-.5-3.7-2.6-4-4.4-.3-1.2-.6-2.8-.9-4.4-.6-3.3-1.4-7.4-2.7-9.1-.9-1.1-.8-2.3-.6-4.3v-.8s0-.1,0-.1c.5-1.5,1.8-3,3.7-3s1.6.3,2.3.8h.1c0,.1.1.2.1.2,2.1,2.8,3,5.9,3.7,9,.6-1.4,1.4-2.7,2.5-3.6h.2c0-.1.2-.2.2-.2.9-.2,1.7-.4,2.4-.4,3.9,0,5.3,3.4,6.3,5.8.2.4.3.7.5,1.1.7-1.9,1-4.4,1.2-5.9,0-.5.1-.9.2-1.2-.3-1.7.6-2.7,1.3-3.5l.4-.4h0c.7-.6,1.5-1,2.8-1s1.5.1,2.5.5h.2c0,0,.2.2.2.2,1.3,1,2.1,3.3,1.2,5.6h0c0,.1,0,.2,0,.2-1.1,1.7-1.6,3.6-2,5.6-.3,1.4-.7,2.9-1.3,4.3-.6,3.1-2.3,5.5-5.1,7l-.3.2h-.4c-3.3-.8-5.7-4-7.1-6.5-.3.7-.6,1.3-1,1.9-.6,1.9-1.8,5.7-6.1,6.4h-.2s-.2,0-.2,0h0Z"/>
            <path class="st3" d="M50.2,21.2c.5,0,1.1.2,1.7.6,2.8,3.6,3.3,7.9,4.3,12.1.8-2.1,1.6-5.1,3.4-6.5.8-.2,1.5-.3,2.1-.3,4.6,0,4.9,5.7,6.9,8,1.8-2.5,2.1-8.4,2.4-9.3-.4-1.4.5-2.1,1.3-3.1.7-.5,1.3-.8,2.1-.8s1.3.1,2.2.4c.9.8,1.6,2.6.9,4.4-2.1,3.2-2,6.9-3.4,10.2-.4,2.1-1.4,4.7-4.6,6.4-3.6-.8-6.2-5.1-7.4-7.9-.5,1.3-1.1,2.8-1.9,4-.6,2-1.6,5.2-5.3,5.8-2.5-.4-2.8-1.7-3.1-3.6-1.1-3.8-1.7-11.2-3.9-14-.7-.9-.5-1.9-.4-4.2.4-1.2,1.3-2.3,2.7-2.3M50.2,19.1c-2.1,0-4,1.5-4.7,3.8v.2c0,0,0,.2,0,.2v.6c-.2,2.1-.3,3.6.8,5,1.2,1.5,2,5.5,2.5,8.7.3,1.7.6,3.2,1,4.5.3,1.8.9,4.5,4.8,5.2h.3c0,0,.3,0,.3,0,4.8-.8,6.3-4.8,6.9-7,0,0,0-.1,0-.2,1.5,2.3,3.8,4.6,6.8,5.3l.8.2.7-.4c3.1-1.7,5-4.3,5.6-7.7.6-1.5.9-3,1.3-4.4.4-1.9.9-3.8,1.9-5.3v-.2c.1,0,.2-.2.2-.2,1.1-2.8,0-5.5-1.5-6.8l-.3-.3h-.4c-1.2-.5-2-.6-2.8-.6-1.5,0-2.6.6-3.4,1.2h-.2c0,.1-.2.3-.2.3,0,.1-.2.2-.3.3-.8.8-2,2.1-1.6,4.2,0,.3,0,.6-.1,1,0,.7-.2,1.7-.4,2.8-1.1-2.3-2.9-4.6-6.5-4.6s-1.8.1-2.7.4h-.4c0,.1-.3.4-.3.4-.5.4-1,1-1.4,1.5-.7-2.3-1.6-4.6-3.2-6.8l-.2-.3-.3-.2c-.9-.6-1.9-1-2.9-1"/>
            <path class="st7" d="M91.4,45.6c-2.6,0-5.2-1-8.7-3.3l-.3-.2v-.3c-.4-.6-.6-1-.8-1.4-.6-1.2-1-2.1-1.2-4.2,0-.1-.1-.3-.2-.4,0-.2-.2-.5-.3-.7v-.2c0,0,0-.2,0-.2.4-4.6,1.2-9.8,5.3-12.8,1.6-1.2,3.5-1.9,5.2-1.9s.3,0,.4,0c2.4,0,4.5,1.4,5.8,3.6.3.2.5.4.7.6.6.4,1,.8.8,1.7,0,0,0,.1,0,.5,0,.5.1.9,0,1.4,0,.1,0,.3.1.4l.7,1.1v.2c0,.4,0,.6,0,.8s0,.3.4,1.2v.3c.1,0,0,.3,0,.3,0,.4-.2.6-.2.9-.1.7-.2,1.2-.9,1.8h0c0,0,0,.1,0,.1-.2,0-1.1.6-1.7.8-.2.1-.4.2-.7.3-.2,0-.4.1-.5.2l-.3.3h-.5c-.2,0-.4,0-.6,0-1.9,0-3.5.3-5.4.7.3.5.6.9.7,1.2.6.3,1,.5,1.2.5h0c.2-.2.4-.3.6-.5.4-.3.9-.7,1.8-1h.1s.2,0,.2,0h.1l.2-.2,2.3.3.2.2c2.2,1.2,2.4,2.8,2.4,3.5v.4c-.4,1-.7,1.6-1.7,2.1,0,.2-.2.3-.3.4l-.8.8h-.2c-1.5.6-2.7.8-4,.8M87.5,30.1c.5,0,1,0,1.4,0,.7,0,1.2,0,1.6-.2h.2c0,0,1.3-.3,1.3-.3,0-.2,0-.3-.2-.4l-.3-.2v-.4c-.3-.7-.6-1-1.5-1.1h-.1c-1.2.5-1.9.9-2.4,2.3v.2h0Z"/>
            <path class="st3" d="M90.5,21c.1,0,.2,0,.4,0,2,0,3.8,1.1,5.1,3.3,2.1,1.7,1.1.6,1.3,2.1,0,.5,0,.8,0,1.3,0,.3.2.5.2.7l.7,1.1c.2.8-.2.3.5,2.1-.4,1.3-.2,1.6-.8,2.1-.4.2-1.3.7-1.6.7-.2.2-1.2.4-1.5.6-.2,0-.4,0-.7,0-2.5,0-4.6.5-7.2,1,.4.6,1.4,2.1,1.7,2.7,1,.6,1.5.8,2,.8s.3,0,.4,0c1.1-.6,1.1-1.1,2.3-1.4h0c.2,0,.2.2.5.2l.2-.3,1.3.2c0,0,2.1,1,2,2.7-.4,1-.5,1.3-1.5,1.8h0s-.1.4-.2.4h0l-.7.7c-1.3.4-2.4.7-3.6.7-2.3,0-4.7-.9-8.1-3.1-.9-2.2-1.5-2.7-1.8-5.4,0-.4-.4-.8-.5-1.3.4-4.4,1.1-9.3,4.9-12,1.4-1,3-1.6,4.6-1.6M86.5,31.4c1.7-.6,3.3,0,4.5-.6l2.1-.3c0-.1,0-.4,0-.6,0-.3,0-1.2-.7-1.6-.4-1.2-1.1-1.7-2.5-1.8-1.4.6-2.8,1-3.4,3.3v1.6M90.5,18.9h0c-2,0-4,.7-5.8,2.1-4.5,3.3-5.3,8.7-5.8,13.6v.4s0,.4,0,.4c0,.3.2.6.3.8,0,0,0,.2.1.2.2,2.2.7,3.2,1.3,4.4.2.4.4.8.6,1.4l.2.6.5.4c3.7,2.4,6.5,3.5,9.3,3.5s2.7-.2,4.3-.8l.4-.2.3-.3.6-.6c.2-.1.3-.3.4-.5,1.1-.7,1.5-1.5,1.8-2.5h0c0,0,.1-.4.1-.4v-.3c0-1-.3-2.9-2.8-4.4.1,0,.2,0,.3-.1.8-.3,1.8-.8,1.8-.8h.2c0-.1.2-.3.2-.3.9-.9,1.1-1.7,1.2-2.4,0-.2,0-.5.2-.8l.2-.6-.2-.6c-.2-.6-.3-.8-.3-.9,0-.2,0-.5,0-.9v-.4c0,0-.3-.3-.3-.3l-.5-.8s0,0,0-.1c0-.5,0-1,0-1.5h0c.3-1.5-.7-2.3-1.2-2.7-.1-.1-.3-.2-.6-.4-1.5-2.5-3.9-3.9-6.6-4-.2,0-.3,0-.4,0M89.5,29c.2-.1.4-.2.7-.3,0,0,0,0,0,0,0,0,0,0,0,.1h-.2c0,.1-.3.2-.6.2"/>
            <path class="st5" d="M113.3,67.1c-.3,0-.5,0-.8,0-.2,0-.4,0-.7,0s-.4,0-.6,0c-.2,0-.4,0-.6,0-.4,0-.8,0-1.4-.2-3.6-.8-5.8-4.2-7.3-6.7-1.6-2.6-1.9-6.5-.9-10,.7-2.5,2-4.4,3.8-5.5-.2-1-.4-2.3-.3-3.7.1-1.1.5-2.1.8-2.9,0-.1,0-.2.1-.3-2.7-2-4.4-5-4.7-8.2,0-.7-.1-1.4,0-2,0-.7.4-1.4.8-2l.2-.4c.4-.8,3.9-8.3,9.2-8.9,0,0,.2,0,.3,0,.5,0,1.3.1,2.1.2.5,0,1.1.2,1.5.2.5-2.1,2.2-4.8,3-5.7.7-.8,1.7-1.1,3.2-1.1s.7,0,1.2,0c1.7.3,2.7,1.3,2.7,2.8,0,1.3-.3,3.1-1.4,3.9-.3.2-.6.3-.9.5-.8.4-1.8.9-2.3,1.5,1.3,1,2.9,2.4,3.4,3.8,1.3,1.7,1.1,3.8.9,5.6,0,.6-.1,1.1-.1,1.7v.4l-.2.3c-.5.6-.8,1.3-1.1,2-.4,1-.9,2-1.7,2.9-1.5,2.8-6.4,3.8-9.3,4-.3.5-.6,1.3-.7,2,0,.6,0,1.2.3,1.9,1.9.4,5.2,1.4,6.6,2.2.8.5,1.4,1.1,1.9,1.7,3.1,3.3,2.8,8.1,2.5,11.9v1.2c0,0-.2.2-.2.2-2.3,3.9-5,6.1-8.1,6.6-.3,0-.6,0-.9,0M111,57.9c.6,0,1.1.1,1.5.1,1,0,1.6-.3,2.1-.9.3-.4.2-1.5,0-2.2,0,0,0-.2,0-.2-.3-.3-.6-.7-.9-1.1-.7-.9-2.4-2.9-3.1-2.9v-1.1,1.1c-.4,0-.7.3-1.2.6,0,0-.1,0-.2.1-.3.9-.9,3-.9,3.5,0,.6.9,2.2,1.6,2.9,0,0,.2,0,.3,0,.4,0,.6,0,.8.1M111.4,24.9c-1.1,1-3.1,2.8-2.5,3.8,1,1.9,1.5,2.6,1.7,2.8.4,0,.8,0,1.1,0s.6,0,.8,0c.4-.1,1.6-.7,1.9-.8l1.1-1c.7-.6.8-.9.4-2.5-.2-.9-1.3-1.7-2.3-1.8-.4,0-.8-.2-1.3-.3-.2,0-.6-.2-.9-.2h0Z"/>
            <path class="st3" d="M120.9,10.9c.3,0,.7,0,1.1,0,1.3.2,1.7.9,1.7,1.8,0,1.2-.3,2.5-.9,3-1.1.6-3.7,1.4-3.9,3.2,1.2.9,3.4,2.5,3.7,4,1.6,1.9.7,4.6.7,6.8-1.2,1.5-1.4,3.6-2.9,5-1.2,2.6-6.4,3.5-9.1,3.6-.2.4-.9,1.6-1.1,2.9-.2,1.3.4,2.6.6,3,1.6.2,5.4,1.4,6.8,2.2.7.4,1.2,1,1.7,1.5,3,3.2,2.4,8.1,2.1,12-1.5,2.6-3.9,5.5-7.3,6-.3,0-.5,0-.8,0-.5,0-1,0-1.5,0s-.8,0-1.2,0-.7,0-1.1-.1c-3.2-.7-5.2-3.8-6.7-6.2-2.4-4-1.5-12,3.1-14.3-.2-.9-.6-2.5-.4-4.1.2-1.4.9-2.9,1.1-3.8-2.8-1.8-4.6-4.7-4.9-7.8,0-.6,0-1.2,0-1.7,0-.7.6-1.5.9-2.2,1.3-3,4.5-7.8,8.4-8.3h.2c.9,0,3.1.5,4.1.5s.3,0,.4,0c0-1.8,1.9-5,2.8-5.9.5-.5,1.2-.8,2.4-.8M110.4,32.6c.4,0,.9-.1,1.4-.1s.6,0,.8,0h0c.3,0,2.2-.8,2.5-1.1l1.1-1c1.2-1.1,1.1-1.9.7-3.6-.3-1.3-1.8-2.5-3.2-2.6-.6,0-1.8-.6-2.5-.6h0c-1.3,1.2-4.2,3.5-3.1,5.5.4.8,1.6,3.2,2.4,3.4M112.5,59.1c1.2,0,2.2-.3,3-1.3.7-.9.3-2.6.2-3.5-1.1-1-3.3-4.7-5-4.7h0c-1,0-1.6.7-2.2,1.1-.3.6-1.2,3.6-1.1,4.2,0,1,1.3,3.2,2.2,3.8.2,0,1.1,0,1.4.2.6,0,1.2.2,1.7.2M120.9,8.8h0c-1.7,0-3,.5-4,1.5-.9.9-2.3,3.1-3,5.2-.2,0-.4,0-.6,0-.9-.1-1.7-.2-2.2-.2s-.3,0-.4,0c-5.8.7-9.4,8.1-10.1,9.6,0,.1-.1.2-.2.4-.3.7-.7,1.5-.8,2.4-.2.8,0,1.6,0,2.2.3,3.3,1.9,6.3,4.5,8.4-.3.8-.6,1.8-.7,2.8-.1,1.2,0,2.4.2,3.3-1.7,1.3-2.9,3.3-3.6,5.7-1.1,3.7-.7,8,1,10.8h0s0,0,0,0c1.7,2.6,4,6.2,8,7.2.7.2,1.2.2,1.6.2s.4,0,.6,0c.2,0,.3,0,.5,0s.4,0,.6,0c.3,0,.6,0,.9,0s.8,0,1.1,0c3.4-.5,6.4-2.9,8.8-7.1l.3-.4v-.5c0-.3,0-.6,0-.9.3-4,.6-9-2.7-12.7h0s0,0,0,0c-.6-.6-1.2-1.2-2.1-1.8-1.3-.8-4.2-1.8-6.3-2.2,0-.4,0-.7,0-.9,0-.3.2-.7.3-1.1,2.5-.2,7.6-1.1,9.5-4.4.9-1,1.4-2.1,1.8-3.1.3-.7.6-1.3,1-1.8l.5-.6v-.8c0-.5,0-1,.1-1.6.2-1.9.4-4.2-1-6.2-.4-1.3-1.5-2.4-2.6-3.4.4-.2.8-.4,1.1-.5.3-.2.7-.3.9-.5h0s0,0,0,0c1.4-1,1.9-3.1,1.8-4.8,0-2.1-1.3-3.5-3.6-3.9h-.1c-.5,0-.9,0-1.3,0M109.9,28.2c0-.5,1.2-1.6,1.8-2.2,0,0,.2,0,.3,0,.5.2,1,.3,1.5.4.6,0,1.3.6,1.3.9h0s0,0,0,0c.2.8.2,1.1.2,1.2,0,0,0,.1-.3.3l-1,.9c-.3.2-1,.5-1.4.6-.2,0-.4,0-.7,0s-.4,0-.6,0c-.2-.4-.6-1-1.2-2.2h0s0,0,0,0ZM110.1,52c.2-.1.3-.2.4-.3.6.4,1.8,1.8,2.3,2.5.3.3.5.7.8.9,0,.4.1,1.1,0,1.3-.3.3-.5.5-1.2.5s-.7,0-1.2-.1c-.3,0-.5,0-.8-.1-.4-.5-.9-1.5-1.1-1.9,0-.5.5-1.9.8-2.8"/>
            <path class="st8" d="M140,44.1c-.8,0-1.6-.2-2.4-.8h-.2c0-.1-.1-.3-.1-.3-.3-.5-.6-.9-.7-1.4-1.2.6-2.5.9-3.9.9s-.3,0-.5,0h-.2l-1.1-.5c-.6,0-1.1-.3-1.6-.7-2-.5-2.3-2.5-2.4-3.5l-.6-.7v-.3c-.3-1.5-.3-4.6-.4-7.6,0-2,0-3.9-.2-4.9-.2-2.3,1.7-3.3,2.3-3.7h.1c0,0,.1-.1.1-.1.3,0,.6-.1.9-.1,1.4,0,3.3.8,3.9,2.1l.7,1.8v.3c-.3,2.1-.6,7.7-.4,10.1.3,0,.6,0,.8,0,.2,0,.4-.2.7-.2.2,0,.4-.1.6-.2.4-.9.4-4.2.4-5.7,0-.9,0-1.6,0-2.1-.4-1.4-.6-2.6.4-4.4v-.2c.1,0,.3-.1.3-.1,1.1-.8,2.4-1.3,3.6-1.3,1.7,0,3,1,3.5,2.8h0v.3c0,.6.1,1.1.2,1.7.2,1,.4,2.1.1,3.4,0,.5,0,1.5-.3,3.8,0,.7-.1,1.2-.1,1.3,0,.2,0,.4,0,.5,0,.3,0,.5,0,.8h0c0,.6,0,2,.3,2.8v.2c0,0,0,.4,0,.4.5.8.8,2.2-.5,4.1h0c0,.1-.1.2-.1.2-.7.6-1.8,1.3-3.2,1.3"/>
            <path class="st3" d="M129.3,21.5c1.1,0,2.5.6,2.9,1.5l.6,1.5c-.3,2.1-.8,9.2-.1,11.2.1,0,.2,0,.4,0,.5,0,1.2-.1,1.5-.2.6-.3,1.6-.3,1.9-.8.7-1.3.5-7.1.7-8.4-.4-1.5-.6-2.3.2-3.8.8-.6,1.9-1.1,3-1.1s2,.5,2.5,2c0,1.8.7,3.2.3,5,.1.6-.4,4.8-.4,5.2s0,1,0,1.4c0,1,0,2.2.4,3.1v.6c.6.9.5,2-.4,3.2-.6.4-1.4,1.1-2.6,1.1s-1.2-.2-1.8-.6c-.5-.7-.7-1.2-.8-1.7,0,0-.2-.3-.2-.7-1.2.9-2.7,1.5-4.5,1.5s-.3,0-.4,0l-1-.5c-.5,0-1-.3-1.4-.6-1.5-.3-1.7-1.7-1.9-2.9,0,0,0,0,0,0h0c0,0,0-.2-.7-.9-.4-2.4-.3-9.7-.5-12.5,0-1.4.8-2.1,1.8-2.7.2,0,.4,0,.6,0M129.3,19.4c-.4,0-.8,0-1.2.1h-.3c0,0-.2.2-.2.2-.8.4-3.1,1.7-2.9,4.7,0,1,.1,2.9.2,4.9,0,3,.1,6.2.4,7.7v.6c0,0,.5.5.5.5l.2.3c.2,1.2.7,3.4,3,4.1.5.3,1.1.6,1.7.7l.7.4.4.2h.4c.2,0,.4,0,.5,0,1.2,0,2.3-.2,3.4-.6.1.2.2.4.4.6l.2.3.4.2c.9.6,2,.9,3,.9,1.8,0,3.1-.9,3.9-1.6l.2-.2.2-.2c1.5-2.1,1.2-3.8.8-4.9v-.4s-.1-.4-.1-.4c-.1-.3-.2-1-.2-2.4v-.2c0-.2,0-.4,0-.6,0-.2,0-.4,0-.5,0-.2,0-.8.1-1.2.2-2.2.3-3.2.3-3.8.3-1.4,0-2.6-.1-3.6,0-.5-.2-1.1-.2-1.6v-.6c-.8-2.2-2.4-3.5-4.6-3.5s-2.9.5-4.2,1.5l-.4.3-.2.4c-.4.7-.6,1.4-.7,2l-.6-1.3c-.8-1.9-3-2.8-4.9-2.8M134.5,33.4c0-2,0-5.2.3-7.5,0,.2.1.4.2.7,0,.5,0,1.1,0,1.9,0,1.2,0,3.7-.2,4.8,0,0-.1,0-.1,0"/>
            <path class="st2" d="M150.1,46.5c-1,0-2-.5-2.9-1.6l-.2-.3v-.3c-.2-2.9-.5-5.7-.8-8.2l-.2-1.1c-.3-1.7-.6-3.5-.7-5.4-.4-.8-.7-2,0-3.6h0c0-.1.1-.3.1-.3,0-1.3.6-2.1,1-2.6.6-.7,1.6-1,2.6-1,1.7,0,3.5.9,4.6,2.4.4.6.8,1.1,1.3,1.4h.2c0,.1.1.3.1.3.5.8,1.6,2.2,2.7,3.5,0,0,.1.1.2.2,0-.7-.2-1.4-.3-2.1-.3-1.4-.5-2.7-.1-4.2.4-2.1,2.1-2.7,3.5-3.2h.3c0-.1.3,0,.3,0,4.4.9,4.1,4,3.9,5.6,0,.5-.1,1,0,1.4h0v9.9c0,.5,0,.9,0,1.3.1,1.4.3,2.8-1.8,4.5l-.2.2h-.2c-.4.1-.6.2-.9.3-.6.2-1.1.3-1.6.3-.9,0-1.6-.5-2-1-.7-.7-1.5-1.7-2.5-2.8-1-1.2-2.1-2.5-3-3.4,0,.1,0,.3,0,.4.2,1.1.4,2.2.4,3.2v1c0,.2,0,.4.1.7.2.7.4,1.8-.8,2.9-1.2,1-2.2,1.9-3.5,1.9"/>
            <path class="st3" d="M161.7,21.4c4.7.9,2.6,4.4,3.1,6.2v9.6c0,2.2.8,3.2-1.3,4.9-1.1.2-1.7.5-2.2.5s-.8-.2-1.2-.7c-1.7-1.8-4.9-6-6.8-7.5-.7-1.5-.7-1.1-.8-1.2v.5c0,2,.8,4.5.9,6.4v1c0,1.1.7,1.8-.3,2.8-1,.9-1.9,1.6-2.8,1.6s-1.3-.3-2.1-1.2c-.1-2.7-.4-5.5-.8-8.3-.4-2.2-.8-4.4-.9-6.6-.6-.9-.5-1.9,0-2.8l.3-.3c0-2.1,1.1-3,2.6-3s2.8.7,3.8,2c.5.6.9,1.2,1.5,1.6,1,1.8,4.4,5.2,5.4,6.9l-.5-3.2c0-2.4-1.1-4.4-.5-6.6.3-1.5,1.5-2,2.8-2.5M161.5,19.2l-.6.2c-1.4.5-3.6,1.4-4.1,4-.2,1-.2,1.9-.1,2.8-.1-.2-.2-.4-.3-.5l-.2-.4-.4-.3c-.3-.2-.7-.7-1-1.2-1.3-1.7-3.5-2.8-5.5-2.8s-2.6.5-3.4,1.4c-.5.5-1.1,1.5-1.3,2.9v.2c-1.1,1.9-.8,3.4-.3,4.4.1,1.8.4,3.5.7,5.2l.2,1.1c.4,2.4.6,5.2.8,8.1v.7s.5.5.5.5c1.1,1.3,2.4,2,3.7,2s3.2-1.2,4.2-2.2c1.6-1.6,1.3-3.2,1.1-4,0-.2,0-.3,0-.5v-1.1c.2.2.4.5.6.7.9,1.1,1.8,2.2,2.5,2.9.5.5,1.4,1.3,2.8,1.3s1.1-.1,1.8-.3c.3,0,.6-.1.9-.2h.5c0-.1.4-.4.4-.4,2.5-2,2.3-4,2.1-5.4,0-.4,0-.8,0-1.2v-10.2c-.1-.1,0-.6,0-1,.2-1.7.6-5.7-4.8-6.8h-.6c0-.1,0-.1,0-.1Z"/>
            <path class="st8" d="M179.3,49.2h-.3c-2-1-4-1.8-5.7-3-.2-.2-.5-.3-.7-.5-1.3-.9-2.9-2-3.6-3.5h0c0,0,0-.1,0-.1-.2-.6-.5-1.3-.8-2-.5-1.2-1.1-2.5-1.2-3.8-.1-1.2,0-2.2,0-3.2,0-.4,0-.9.1-1.4.2-2.6.7-4.8,1.3-6.5.8-2.6,2.8-6.6,5.7-9.4,1.2-1.2,3-2.1,3.5-2.3h.2c0-.1.2-.1.2-.1.2,0,.5,0,.8,0,.6,0,1.3,0,2,0s1.3,0,1.7.2c.1,0,.3,0,.4,0,1.1,0,1.9.5,2.6,1,2,1.4,3.7,3.6,2.5,5.5,0,.1-1.2,1.6-3,2.3-.6.2-1.1.2-1.6.2s-1.1-.1-1.6-.3h-.3c0-.1-.2-.4-.2-.4-.2-.4-.4-.7-.6-.8-.1,0-.4.2-.6.3-.2,0-.4.2-.6.2-.3.3-.7.4-.9.5-1.2,1.4-2.6,3.5-3.1,5.7h0c0,.4-.1,1.2-.1,1.8,0,1.2-.1,2.3-.5,3-.3.7,0,2.6,0,3.6,0,.3,0,.6,0,.8,0,.8.4,2.2,1.7,2.5h.4c0,.1.2.5.2.5.5.8,2,1.2,3.4,1.3.2-1.8.3-4,.3-6,0,0,0,0,0,0-.4,0-.8.1-1.2.1s-.3,0-.4,0c-1-.1-1.8-.6-2.4-1.3-.6-.7-.8-1.6-.7-2.6h0c0-.1.1-.8.1-.8.3-1.3.6-2.5,2.1-3,.5-.2,1.8-.5,2.8-.5s.5,0,.7,0c1.1-.2,2.3-.3,3.3-.3s.4,0,.5,0c1.4-.5,2.4-.8,3.3-.8s1.2.1,1.7.4h0s0,0,0,0c.8.6,1.3,1.5,1.7,2.9v.2c0,0,0,.2,0,.2-.2,1-.5,2-1.1,2.9-1,1.1-2.1,1.3-3.1,1.5h-.3c-.2.1-.4.2-.7.3,0,0,0,0,0,0,0,.3,0,.7,0,1,0,.9.2,1.9,0,3.1,0,.6,0,1.1.1,1.5.2,2.5.3,3.8-.9,5.4-.6,1.1-1.3,1.9-2.2,2.6-1.1.8-2.6,1.2-4.4,1.2s-.6,0-.6,0"/>
            <path class="st3" d="M180.7,14.4c.6,0,1.2,0,1.7.2.2,0,.3,0,.5,0,.8,0,1.4.4,2,.8,1.4,1,3.1,2.7,2.3,4.1,0,0-.9,1.3-2.5,1.8-.4.1-.8.2-1.2.2s-.8,0-1.3-.2c-.4-.7-.9-1.4-1.5-1.4s-.2,0-.2,0c-.1.1-1.5.7-1.6.8-.3.4-.6,0-.9.5-1.3,1.5-2.9,3.7-3.5,6.3-.3.9-.1,3.6-.6,4.5-.5,1.2,0,3.8,0,5,.1,1.4.8,3,2.5,3.5,1,1.5,3.6,1.8,4.9,1.8h.4c.3-2.6.4-5.7.4-8.2-.1,0-.2,0-.4,0-.6,0-1.3.2-1.9.2s-.2,0-.2,0c-1.3-.2-2.4-1.1-2.1-2.8.4-1.7.4-2.5,1.6-2.9.5-.2,1.6-.5,2.5-.5s.4,0,.6,0c1.2-.2,2.4-.3,3.4-.3s.5,0,.7,0c1.2-.5,2.2-.8,3.1-.8s.9,0,1.2.3c.6.4,1,1.1,1.3,2.3-.2,1.1-.5,1.9-.9,2.4-.8.9-1.7,1-2.8,1.2-.5,0-1.1.4-1.6.5-.1,1.6.5,3,0,4.7.2,3.7.6,4.9-.6,6.5-.7,1.1-1.2,1.8-1.9,2.4-1,.7-2.3,1-3.8,1h-.4c-1.9-.8-4.1-1.7-5.6-2.8-1.3-.9-3.2-2-3.9-3.5-.6-1.8-1.8-3.8-2-5.5-.1-1.5.1-2.8.2-4.4.1-2.3.6-4.2,1.2-6.2.9-2.8,2.8-6.5,5.4-8.9.9-.9,2.3-1.7,3.2-2.1.7,0,1.7-.1,2.7-.1M180.7,12.2c-.7,0-1.5,0-2.1,0-.3,0-.5,0-.7,0h-.4s-.4.2-.4.2c-.5.3-2.4,1.2-3.7,2.5-3,2.9-5.1,7-5.9,9.8-.6,1.8-1.1,4-1.3,6.8,0,.5,0,.9-.1,1.4-.1,1.1-.2,2.2,0,3.4.2,1.4.8,2.8,1.3,4.1.3.7.6,1.3.8,1.9h0c0,.1,0,.2,0,.2.8,1.7,2.6,2.9,3.9,3.9.2.2.5.3.7.5,1.7,1.2,3.9,2.2,5.9,3h.2c0,0,.4.2.4.2h.4c.2,0,.3,0,.5,0,2.1,0,3.7-.5,5-1.4,1.1-.8,1.8-1.7,2.5-2.9,1.4-1.9,1.3-3.5,1.1-6.1,0-.4,0-.9,0-1.4.3-1.3.1-2.4,0-3.3h0c0,0,.1-.1.1-.1,1.1-.2,2.5-.5,3.6-1.8h0s0,0,0,0c.8-1,1.2-2.3,1.4-3.4v-.5c0,0,0-.5,0-.5-.4-1.6-1.1-2.7-2.1-3.4h-.1c0,0-.1-.1-.1-.1-.6-.4-1.4-.5-2.2-.5s-2,.2-3.4.8h-.4c-1.1,0-2.2.1-3.3.3-.2,0-.4,0-.7,0-1.1,0-2.5.4-3.2.6-.7.2-1.2.6-1.5,1,.5-1.8,1.6-3.4,2.6-4.6.4-.1.7-.3.9-.5,0,0,.2,0,.2-.1,0,0,0,0,0,0l.4.6.7.3c.6.2,1.3.4,2,.4s1.2,0,1.8-.3h0s0,0,0,0c2.1-.8,3.3-2.4,3.5-2.6h0c0,0,0-.1,0-.1,1.3-2.1.2-4.8-2.8-6.9-.6-.4-1.7-1.2-3.2-1.2s-.2,0-.4,0c-.5-.1-1.1-.1-1.8-.1M179.7,39.9c-.8-.2-1.4-.4-1.5-.7l-.4-.7-.8-.2c-.7-.2-.9-1.1-1-1.7,0-.2,0-.5,0-.8,0-.4-.1-1-.2-1.7,0,.2.2.3.3.4.7,1,1.9,1.6,3.1,1.7.2,0,.3,0,.5,0h.2c0,1.2,0,2.5-.2,3.6"/>
            <path class="st4" d="M198.9,53.2c-1.1,0-2.1-.3-2.9-.9-2.5-1.1-3.1-2.7-3.1-3.9v-.3c.1-.3.2-.6.3-.8.3-1.1.5-1.9,1.4-3h.1c0-.1.1-.2.1-.2.4-.3.9-.4,1.4-.4.8,0,1.6.3,2.2.6.1,0,.2.1.3.2.4-.1,1.2-.9,1.4-1.5,0-.2,0-1.2-.3-1.6l-.2-.2v-.3c-.2-2-1.4-3.9-2.9-5.9l-.5-.7c-.8-1.1-1.6-2.3-2.1-3.5h0c0-.1,0-.2,0-.2-.2-1.1-.5-1.8-.7-2.5-.6-1.8-.8-2.7,0-6,1-3.8,3.4-7.4,5.7-10.4v-.2c.1,0,.3-.1.3-.1.3-.2.5-.4.8-.5,1.5-1,3.2-2.1,4.9-2.1s3.3,1.3,4.3,3.8v.2c0,0,0,.2,0,.2-.2,3.3-1.9,3.9-3.2,4.4-.7.2-1.4.5-1.9,1.1-.3.4-.8.6-1.2.9-.1,0-.3.1-.4.2-.9.9-1.9,3.3-1.6,4.4v.2s0,.2,0,.2c-.2,2.6,1.2,4.8,2.8,7.2v.2c1.9,2.8,3.9,5.9,3.9,10.2s0,1.3-.1,2.6v.9c0,0,0,.1,0,.1-.1.3-.2.6-.2.9-.3,1.4-.6,2.1-2.6,4.2-1.7,1.8-4,2.9-6,2.9"/>
            <path class="st3" d="M205.2,9.6c1.2,0,2.4.8,3.3,3.1-.2,4.2-2.8,2.6-4.9,4.9-.1.4-1.3.7-1.5,1-.9.9-2.3,3.7-1.9,5.4-.2,3,1.3,5.3,3,7.9,1.8,2.8,3.7,5.7,3.7,9.8s0,1.5-.1,3.3c-.6,1.9-.2,2.2-2.6,4.6-1.3,1.4-3.3,2.6-5.3,2.6s-1.7-.2-2.4-.8c-1.7-.7-2.5-1.7-2.5-3,.5-1.5.5-2.3,1.4-3.4.3-.2.6-.2.9-.2,1,0,2.1.8,2.5.8s.1,0,.1,0c.9-.2,2.1-1.3,2.3-2.4,0-.3.1-1.6-.5-2.5-.1-2.4-1.6-4.5-3-6.5-.9-1.3-1.9-2.6-2.5-4-.8-4-1.7-3.6-.7-8,.9-3.6,3.3-7.1,5.5-10.1,1.6-1,3.5-2.5,5.2-2.5M205.2,7.4h0c-2,0-3.9,1.2-5.5,2.3-.3.2-.5.4-.8.5l-.3.2-.2.3c-2.4,3.1-4.9,6.8-5.9,10.8-.9,3.6-.6,4.7,0,6.6.2.6.4,1.3.6,2.4v.2c0,0,.1.2.1.2.6,1.3,1.4,2.5,2.2,3.7.1.2.3.4.5.7,1.4,1.9,2.5,3.7,2.6,5.4v.6s.4.5.4.5c0,.1,0,.5,0,.8,0,.1-.2.4-.4.5-.6-.3-1.4-.6-2.4-.6s-1.4.2-2,.5l-.3.2-.2.3c-1,1.2-1.3,2.3-1.6,3.4,0,.2-.1.5-.2.8v.3c0,0,0,.3,0,.3,0,1.2.5,3.4,3.6,4.8,1,.7,2.2,1,3.5,1,2.3,0,4.8-1.2,6.8-3.3,2.1-2.1,2.5-3.1,2.9-4.7,0-.2.1-.5.2-.8v-.2c0,0,0-.2,0-.2v-.7c.1-1.3.2-2,.2-2.7,0-4.7-2.1-7.9-4-10.8v-.2c-1.6-2.3-2.9-4.3-2.8-6.6v-.3s0-.3,0-.3c-.2-.6.6-2.6,1.2-3.3,0,0,.1,0,.2,0,.5-.2,1.1-.5,1.6-1.1.4-.4.8-.5,1.5-.8,1.4-.5,3.7-1.3,3.9-5.3v-.4s-.1-.4-.1-.4c-1.4-3.7-3.7-4.5-5.3-4.5"/>
            <path class="st6" d="M231,56.5c-1.6,0-3.2-1.1-4-2.7h0c0-.1,0-.2,0-.2-.6-2.6-1.3-4.3-2.3-6.7l-.4-1c-.3-.7-.6-1.3-.9-1.9-.4-.8-.8-1.7-1.1-2.6l-.7-2-.7-1.9c0-.2-.2-.5-.3-.7,0,1.4.4,9,.6,9.8v.2c0,0,0,.2,0,.2-.1,1.4-.6,2.6-1.5,4.1v.2c-.1,0-.2.1-.2.1-.8.6-1.7.9-2.7.9s-2.3-.4-3.2-1.2l-.2-.2-.2-.5c-.6-1.5-.9-2.4-.9-4.3s0-.6.1-.9c0-.2,0-.5,0-.6,0-.2,0-.4-.1-.6,0-.3-.2-.7-.2-1.2,0-.8.1-1.5.2-2.2.1-.6.2-1.2.2-1.6,0-.2,0-.5-.2-.7-.1-.3-.2-.7-.2-1.1-.2-1.7-.2-3.4-.2-5.1,0-1.1,0-2.2-.1-3.4,0-.2,0-.4-.2-.6-.2-.7-.6-1.6-.1-3.1-.1-1.1-.3-2-.4-2.9-.2-1.1-.4-2.1-.5-3.5,0-.6,0-1.2,0-1.8s0-1.5-.1-2.2c-.2-1.7-.4-2.9-.4-4.9s0-2.3-.6-3.3v-.2c-.1,0-.1-.2-.1-.2-.1-3.1,1-4.3,4.3-5,.2,0,.4,0,.5,0,3.8,0,4.1,5.2,4.3,7.1,0,.3,0,.5,0,.8,0,.5.1,1,.1,1.5s0,.7,0,1c0,.3,0,.6,0,.8s0,.5,0,.7c0,.3,0,.7,0,1.1s0,.9,0,1.1c0,.6,0,.8.3,1.9v.2c0,0,0,.2,0,.2,0,1.8,0,2.5.2,4.2.4.7,1.1,2.3.8,3l-.2.5c0,.2,0,.3,0,.5.2-.4.5-.8.7-1.1l.2-.3c1-1.5,3.6-5.3,4.6-6.7h0c0-.1.1-.2.1-.2.8-.6,1.6-.9,2.4-.9s2.2.6,3.2,1.7c.9,1,1.2,2.6.9,3.9h0c0,.1,0,.2,0,.2-.5.9-.7,1.2-1,1.8l-.5.8c-.4.7-1.2,1.5-2.1,2.5-.7.8-1.5,1.6-2,2.3.1.4.2.8.3,1.2.3,1,.5,2,1.1,2.8l.2.2v.3c.1.5.5,1,.9,1.6.4.5.7,1.1,1,1.7.1.4.2.8.2,1.1,0,.2,0,.3,0,.5.2.9.7,1.8,1.3,2.8.8,1.3,1.6,2.8,1.9,4.6.6,1,.7,1.4.9,2.2,0,.3.2.6.3,1.1h0v.2c0,.2.1.4.2.7.2.7.3,1,.3,1.3,0,2-.7,3.1-2.6,4.2-.4.2-.9.3-1.4.3"/>
            <path class="st3" d="M214.1,2.1c2.3,0,3,2.8,3.2,6.1,0,.7.2,1.4.2,2.2s0,1.2,0,1.8.1,1.1.1,1.7c0,1.6-.3,1.6.4,3.4,0,1.9,0,2.7.3,4.6.4.4.9,2.2.8,2.2s0,0,0-.1c-.9,2.9.1,2.6.1,4.1.9-.9,1.7-2.1,2.5-3.3,1-1.5,3.6-5.3,4.6-6.6.6-.5,1.2-.7,1.8-.7s1.6.4,2.4,1.4c.7.8.9,2,.7,3-.7,1.2-.8,1.3-1.5,2.5s-3.3,3.5-4.4,5.2c.6,1.6.7,3.3,1.8,4.8.2,1.3,1.4,2.4,1.9,3.5.1.5.2,1,.3,1.5.6,2.5,2.8,4.4,3.2,7.5.8,1.4.7,1.5,1.2,3.3,0,.3.6,1.6.6,1.9,0,1.6-.4,2.4-2.1,3.2-.3.2-.6.2-.9.2-1.1,0-2.4-.8-3-2.1-.7-3.1-1.5-4.9-2.8-7.8-.7-1.6-1.4-2.9-2-4.5l-.7-2-.7-1.9c-.3-.8-.8-1.5-1.1-2.4-.5.5-1.2,1.1-1.3,1.7-.1.5.4,9.8.6,10.5-.1,1.3-.6,2.4-1.3,3.6-.6.5-1.3.7-2.1.7s-1.8-.3-2.5-.9c-.6-1.6-1-2.4-1-4.2s.2-1.1.1-1.6c0-.6-.3-1.1-.4-1.7-.1-1.3.6-2.6.5-3.9,0-.6-.4-1.2-.4-1.8-.3-2.7-.2-5.5-.4-8.4,0-1-.9-1.6-.3-3.6-.3-2.6-.7-4-.9-6.6-.1-1.3,0-2.7-.1-4-.3-1.7-.4-2.9-.4-4.7s0-2.6-.7-3.8c-.1-2.5.6-3.3,3.5-3.9.1,0,.2,0,.3,0M214.1,0c-.2,0-.3,0-.5,0h-.2c-3.2.7-5.4,1.9-5.2,6.1v.5s.2.4.2.4c.4.8.4,1.8.4,2.8,0,2.1.1,3.3.4,5,.1.6,0,1.3,0,2s0,1.2,0,1.8c.1,1.4.3,2.5.5,3.6.1.8.3,1.6.4,2.6-.4,1.7,0,2.9.2,3.5,0,.1.1.3.1.3,0,1.1,0,2.2.1,3.3,0,1.7,0,3.5.2,5.2,0,.5.2.9.3,1.3,0,.2.1.4.1.5,0,.3,0,.8-.2,1.3-.2.8-.4,1.6-.3,2.6,0,.5.2,1,.3,1.3,0,.2,0,.3.1.4,0,0,0,.2,0,.3,0,.3-.1.7-.1,1.1,0,2,.4,3.1,1,4.7v.3c.1,0,.3.5.3.5l.4.3c1.1.9,2.5,1.5,3.9,1.5s2.4-.4,3.4-1.1l.3-.2.2-.3c1-1.6,1.6-3,1.7-4.6v-.5s0-.3,0-.3c0-.5-.2-1.7-.3-3.1.2.4.4.8.6,1.3.3.6.6,1.2.8,1.8l.4,1c1,2.3,1.7,4,2.2,6.5v.2c0,0,.2.2.2.2.9,2,2.9,3.3,4.9,3.3s1.3-.2,1.9-.5c2.2-1.2,3.2-2.7,3.2-5.1s-.1-.9-.4-1.6c0-.1-.1-.3-.2-.5h0c0,0,0-.4,0-.4-.1-.5-.2-.8-.3-1.1-.2-.8-.4-1.3-.9-2.3-.3-2-1.2-3.5-2-4.8-.5-.9-1-1.7-1.2-2.5,0-.1,0-.3,0-.4,0-.4-.1-.8-.3-1.3-.3-.8-.7-1.5-1.1-2-.3-.4-.6-.9-.7-1.2v-.5c0,0-.4-.4-.4-.4-.5-.6-.7-1.4-1-2.4,0-.2-.1-.5-.2-.7.5-.6,1.1-1.2,1.6-1.8.9-1,1.8-1.9,2.2-2.6.2-.3.4-.6.5-.8.4-.6.6-.9,1.1-1.8v-.2c.1,0,.2-.2.2-.2.4-1.7,0-3.6-1.1-4.9-1.2-1.4-2.6-2.1-4.1-2.1s-2.1.4-3.1,1.2l-.2.2-.2.2c-.8,1-2.5,3.5-3.7,5.3-.1-.3-.3-.6-.4-.9-.2-1.5-.2-2.3-.2-3.9v-.8c-.5-.9-.4-.9-.4-1.4,0-.3,0-.7,0-1.2s0-.9-.1-1.2c0-.2,0-.4,0-.6,0-.2,0-.5,0-.8,0-.3,0-.7,0-1,0-.6,0-1.1-.1-1.6,0-.2,0-.5,0-.7-.1-2-.6-8.1-5.4-8.1"/>
          </g>
        </g>
      </g>
    </g>
  </g>
</svg>